STARTFONT 2.3
FONT -FontForge-Lobster-Book-R-Normal--11-110-72-72-P-64-ISO10646-1
SIZE 11 72 72  4
FONTBOUNDINGBOX 22 19 -5 -6
COMMENT "Generated by fontforge, http://fontforge.sourceforge.net"
COMMENT "Copyright 2010 The Lobster Project Authors (https://github.com/impallari/The-Lobster-Font), with Reserved Font Name "Lobster"."
STARTPROPERTIES 41
FOUNDRY "FontForge"
FAMILY_NAME "Lobster"
WEIGHT_NAME "Book"
SLANT "R"
SETWIDTH_NAME "Normal"
ADD_STYLE_NAME ""
PIXEL_SIZE 11
POINT_SIZE 110
RESOLUTION_X 72
RESOLUTION_Y 72
SPACING "P"
AVERAGE_WIDTH 64
CHARSET_REGISTRY "ISO10646"
CHARSET_ENCODING "1"
FONTNAME_REGISTRY ""
CHARSET_COLLECTIONS "ISO8859-2 ISO8859-5 ISO8859-9 ISO8859-4 ISO10646-1"
BITS_PER_PIXEL 4
FONT_NAME "Lobster-Regular"
FACE_NAME "Lobster Regular"
COPYRIGHT "Copyright 2010 The Lobster Project Authors (https://github.com/impallari/The-Lobster-Font), with Reserved Font Name "Lobster"."
FONT_VERSION "2.100"
FONT_ASCENT 9
FONT_DESCENT 2
UNDERLINE_POSITION -1
UNDERLINE_THICKNESS 1
X_HEIGHT 5
CAP_HEIGHT 8
DEFAULT_CHAR 1
RAW_ASCENT 800
RAW_DESCENT 200
NORM_SPACE 2
RELATIVE_WEIGHT 40
RELATIVE_SETWIDTH 50
SUPERSCRIPT_X 0
SUPERSCRIPT_Y 3
SUPERSCRIPT_SIZE 6
SUBSCRIPT_X 0
SUBSCRIPT_Y 0
SUBSCRIPT_SIZE 6
AVG_LOWERCASE_WIDTH 52
AVG_UPPERCASE_WIDTH 67
ENDPROPERTIES
CHARS 1148
STARTCHAR NULL.dup1
ENCODING 0
SWIDTH 600 0
DWIDTH 7 0
BBX 1 1 0 0
BITMAP
00
ENDCHAR
STARTCHAR nonmarkingreturn
ENCODING 13
SWIDTH 600 0
DWIDTH 7 0
BBX 1 1 0 0
BITMAP
00
ENDCHAR
STARTCHAR space
ENCODING 32
SWIDTH 217 0
DWIDTH 2 0
BBX 1 1 0 0
BITMAP
00
ENDCHAR
STARTCHAR exclam
ENCODING 33
SWIDTH 257 0
DWIDTH 3 0
BBX 4 10 0 0
BITMAP
0001
02F7
04F3
07E0
09A0
0B60
0D20
0000
5B00
7D00
ENDCHAR
STARTCHAR quotedbl
ENCODING 34
SWIDTH 353 0
DWIDTH 4 0
BBX 4 3 1 6
BITMAP
7AB6
B4D0
A370
ENDCHAR
STARTCHAR numbersign
ENCODING 35
SWIDTH 659 0
DWIDTH 7 0
BBX 7 9 0 0
BITMAP
00120300
00581B00
00754800
09EBDC50
00C0A200
3CEBEB00
0581B000
07548000
02112000
ENDCHAR
STARTCHAR dollar
ENCODING 36
SWIDTH 548 0
DWIDTH 6 0
BBX 6 11 0 -1
BITMAP
000080
008DD4
06F66C
06F979
01DD00
004F80
6D6AF2
C773F4
A787E1
2CEC40
036000
ENDCHAR
STARTCHAR percent
ENCODING 37
SWIDTH 796 0
DWIDTH 9 0
BBX 9 9 0 0
BITMAP
04C900B100
1E1E057000
5B0F1B1000
692D570000
6978B1AD40
1B96679690
000B0C4790
00660C3B40
00B007D800
ENDCHAR
STARTCHAR ampersand
ENCODING 38
SWIDTH 682 0
DWIDTH 8 0
BBX 8 9 0 0
BITMAP
005DC300
03F37900
06E08600
03F40000
07E636B3
5F73FFA0
CF223800
BF307400
3CDA5000
ENDCHAR
STARTCHAR quotesingle
ENCODING 39
SWIDTH 196 0
DWIDTH 2 0
BBX 2 3 1 6
BITMAP
79
C2
60
ENDCHAR
STARTCHAR parenleft
ENCODING 40
SWIDTH 437 0
DWIDTH 5 0
BBX 5 12 1 -3
BITMAP
000020
000950
009600
05C000
0C7000
2F2000
4F0000
5E0000
3F0000
0E2000
076000
004000
ENDCHAR
STARTCHAR parenright
ENCODING 41
SWIDTH 413 0
DWIDTH 5 0
BBX 5 12 -1 -3
BITMAP
002000
006600
001E00
000E40
000C60
000D60
000F40
004E00
009800
03C100
2B2000
410000
ENDCHAR
STARTCHAR asterisk
ENCODING 42
SWIDTH 515 0
DWIDTH 6 0
BBX 4 5 1 4
BITMAP
1850
DBB9
6ED2
BBA8
0A30
ENDCHAR
STARTCHAR plus
ENCODING 43
SWIDTH 442 0
DWIDTH 5 0
BBX 5 4 0 2
BITMAP
00C100
00D000
AEFE40
076000
ENDCHAR
STARTCHAR comma
ENCODING 44
SWIDTH 216 0
DWIDTH 2 0
BBX 2 3 0 -1
BITMAP
8B
6A
42
ENDCHAR
STARTCHAR hyphen
ENCODING 45
SWIDTH 290 0
DWIDTH 3 0
BBX 3 1 0 3
BITMAP
8B60
ENDCHAR
STARTCHAR period
ENCODING 46
SWIDTH 263 0
DWIDTH 3 0
BBX 2 2 0 0
BITMAP
5B
7D
ENDCHAR
STARTCHAR slash
ENCODING 47
SWIDTH 311 0
DWIDTH 3 0
BBX 4 12 0 -3
BITMAP
00A2
00C0
01B0
0390
0660
0930
0C00
0B00
3900
6600
9300
B000
ENDCHAR
STARTCHAR zero
ENCODING 48
SWIDTH 546 0
DWIDTH 6 0
BBX 7 9 0 0
BITMAP
007CD400
07E28D00
1F906F10
6F407F10
9F109E00
BE00CB00
BD01F600
8E08C000
1BCB2000
ENDCHAR
STARTCHAR one
ENCODING 49
SWIDTH 317 0
DWIDTH 3 0
BBX 4 9 0 0
BITMAP
0044
3DF5
07F2
0AE0
0DB0
1F80
4F50
7F20
AE00
ENDCHAR
STARTCHAR two
ENCODING 50
SWIDTH 492 0
DWIDTH 5 0
BBX 7 9 -1 0
BITMAP
007BE700
02E08F10
02F27F20
0020CA00
0007B100
00680000
04910200
0DFFDD00
1A8CE600
ENDCHAR
STARTCHAR three
ENCODING 51
SWIDTH 514 0
DWIDTH 6 0
BBX 6 9 0 0
BITMAP
03BCA1
0C71F6
0763F4
004D70
002DC0
6C17F4
D706F4
D60BC0
4CCB20
ENDCHAR
STARTCHAR four
ENCODING 52
SWIDTH 476 0
DWIDTH 5 0
BBX 6 9 0 0
BITMAP
009A00
00BC00
01E580
07A3A0
2B1881
BEEEF3
437F50
007D00
00CA00
ENDCHAR
STARTCHAR five
ENCODING 53
SWIDTH 517 0
DWIDTH 6 0
BBX 6 9 0 0
BITMAP
011012
06FFF5
0A4120
0DBC60
0309F1
2925F4
BA06F3
B70BC0
4DDA20
ENDCHAR
STARTCHAR six
ENCODING 54
SWIDTH 500 0
DWIDTH 6 0
BBX 6 9 0 0
BITMAP
007CC3
08E278
2F8074
7F4000
BF7C90
CE13F3
CC02F3
9D07C0
2CCB20
ENDCHAR
STARTCHAR seven
ENCODING 55
SWIDTH 464 0
DWIDTH 5 0
BBX 6 9 0 0
BITMAP
2DD414
4447F4
0009A0
005E20
01E800
09E100
1EA000
2F8000
0C8000
ENDCHAR
STARTCHAR eight
ENCODING 56
SWIDTH 499 0
DWIDTH 5 0
BBX 6 9 0 0
BITMAP
02CCA1
0BB0B7
0DC0D5
08FC80
06EF60
8D2DF2
E706F4
D908E1
3CCC30
ENDCHAR
STARTCHAR nine
ENCODING 57
SWIDTH 489 0
DWIDTH 5 0
BBX 6 9 0 0
BITMAP
03BD80
2E34F2
8D03F5
AB04F6
8C09F4
2BB9F1
100BB0
B44E30
7DC400
ENDCHAR
STARTCHAR colon
ENCODING 58
SWIDTH 267 0
DWIDTH 3 0
BBX 3 5 0 1
BITMAP
0A70
0C80
0000
4C10
5E10
ENDCHAR
STARTCHAR semicolon
ENCODING 59
SWIDTH 276 0
DWIDTH 3 0
BBX 3 6 0 -1
BITMAP
0970
0B90
0000
5E10
3D00
3400
ENDCHAR
STARTCHAR less
ENCODING 60
SWIDTH 358 0
DWIDTH 4 0
BBX 4 4 0 1
BITMAP
0049
3B92
9C30
03B3
ENDCHAR
STARTCHAR equal
ENCODING 61
SWIDTH 515 0
DWIDTH 6 0
BBX 5 4 0 1
BITMAP
1BBBB0
000000
000000
6BBB60
ENDCHAR
STARTCHAR greater
ENCODING 62
SWIDTH 362 0
DWIDTH 4 0
BBX 4 4 0 1
BITMAP
4810
06C6
17C5
A600
ENDCHAR
STARTCHAR question
ENCODING 63
SWIDTH 441 0
DWIDTH 5 0
BBX 5 9 0 0
BITMAP
08CD40
5B0DA0
4D1E70
008B00
04A000
0A1000
030000
4C1000
5E2000
ENDCHAR
STARTCHAR at
ENCODING 64
SWIDTH 688 0
DWIDTH 8 0
BBX 9 9 -1 -1
BITMAP
0004BBA100
007C204B00
03D3BB4D10
0A6A7C2D20
0E2F1E1E00
1E3E4C7800
0E1C6B9000
0B60181000
02ABB60000
ENDCHAR
STARTCHAR A
ENCODING 65
SWIDTH 668 0
DWIDTH 7 0
BBX 8 11 0 -2
BITMAP
000018E7
0000A6F5
000957F2
3BCE7BE0
C6B71EC0
44F21F90
08D04F60
0C807F30
0F609F00
1F400000
04200000
ENDCHAR
STARTCHAR B
ENCODING 66
SWIDTH 641 0
DWIDTH 7 0
BBX 7 9 0 0
BITMAP
03ABCB10
4C6A1B60
C49D2D20
83CEEC20
00F72F80
03F50D90
06F20E70
09E13F30
0CC9D700
ENDCHAR
STARTCHAR C
ENCODING 67
SWIDTH 497 0
DWIDTH 5 0
BBX 6 9 0 0
BITMAP
008EC6
07F51D
1FC049
6F7000
9F3000
BF1000
BF1000
9F4025
2BEA60
ENDCHAR
STARTCHAR D
ENCODING 68
SWIDTH 663 0
DWIDTH 7 0
BBX 8 9 0 0
BITMAP
02ABCA10
3C681CA0
B5AE07F0
D2DB07F1
32F808F0
04F50BC0
07F21E70
0AE08E10
0DDBD300
ENDCHAR
STARTCHAR E
ENCODING 69
SWIDTH 459 0
DWIDTH 5 0
BBX 6 9 0 0
BITMAP
006DC2
04F276
08D092
05F200
08E500
7F7000
CF1000
DF1041
5DD820
ENDCHAR
STARTCHAR F
ENCODING 70
SWIDTH 459 0
DWIDTH 5 0
BBX 7 9 0 0
BITMAP
049EAB40
56AE0000
C3CC0000
D2FA0000
65FED200
06F50000
09F10000
0BD00000
0EA00000
ENDCHAR
STARTCHAR G
ENCODING 71
SWIDTH 578 0
DWIDTH 6 0
BBX 7 11 0 -2
BITMAP
008DC900
0AF30D30
4F801E10
9F200000
BE003900
AE009B00
7F23F800
1AC9F400
07A6E100
2C1C9000
09C91000
ENDCHAR
STARTCHAR H
ENCODING 72
SWIDTH 665 0
DWIDTH 7 0
BBX 8 9 0 0
BITMAP
019E51F8
2DDF33F5
A98F06F2
D3BC08E0
62EEDFB0
02F70E90
06F32F60
09F06F30
0CC09F00
ENDCHAR
STARTCHAR I
ENCODING 73
SWIDTH 375 0
DWIDTH 4 0
BBX 5 9 0 0
BITMAP
03AE40
4DAF10
C5AD00
D2DA00
22F700
04F500
07F200
0AE000
0DB000
ENDCHAR
STARTCHAR J
ENCODING 74
SWIDTH 536 0
DWIDTH 6 0
BBX 7 11 0 -2
BITMAP
0003AE40
003B9F10
00C4BD00
00D2EA00
0023F700
0006F300
0009F100
000CC000
4B6F9000
B46F3000
5CB50000
ENDCHAR
STARTCHAR K
ENCODING 75
SWIDTH 601 0
DWIDTH 7 0
BBX 8 9 0 0
BITMAP
02AE43D1
3C9F2C30
B5AE6700
E2DDB000
53FDC700
04F58F00
07F2AC00
0AE0E900
0DB0D800
ENDCHAR
STARTCHAR L
ENCODING 76
SWIDTH 379 0
DWIDTH 4 0
BBX 8 12 0 -3
BITMAP
03AE4000
4B8F1000
C4BD0000
D2EA0000
12F70000
05F40000
08F10000
0BD00000
0ED20000
017E8100
0004EFE3
00003CC0
ENDCHAR
STARTCHAR M
ENCODING 77
SWIDTH 787 0
DWIDTH 9 0
BBX 9 9 0 0
BITMAP
006DF10EC0
089BF14FA0
2E1EF0AF80
2C5EE1EF60
01ABE6BF40
01B9DC8F20
067AEA9F00
0B2BF5BD00
1B0BE0CB00
ENDCHAR
STARTCHAR N
ENCODING 78
SWIDTH 668 0
DWIDTH 7 0
BBX 8 9 0 0
BITMAP
06DF504C
6D9F8079
C59FB0A6
D3CCE0C3
33F6F3E0
04C3F9C0
0790EE90
0A60BF60
0D308F30
ENDCHAR
STARTCHAR O
ENCODING 79
SWIDTH 665 0
DWIDTH 7 0
BBX 8 9 0 0
BITMAP
018BBC40
1C5857D0
97AD04F2
C6F705F3
28F207F1
0AE00BC0
0CC02F60
0AE1AC00
03DEA100
ENDCHAR
STARTCHAR P
ENCODING 80
SWIDTH 573 0
DWIDTH 6 0
BBX 7 9 0 0
BITMAP
02ABC800
3C691D50
C5AE0B70
D2DB0E40
32F88A00
04FA6000
07F20000
0AE00000
0DB00000
ENDCHAR
STARTCHAR Q
ENCODING 81
SWIDTH 665 0
DWIDTH 7 0
BBX 8 11 0 -2
BITMAP
018BBC40
1C5858D0
979D04F2
C5F805F3
39F306F1
0AE00AC0
0CD01E70
0AE8BD10
03DCF500
00009E70
00001610
ENDCHAR
STARTCHAR R
ENCODING 82
SWIDTH 601 0
DWIDTH 7 0
BBX 7 9 0 0
BITMAP
02ABC800
2C681D50
B5AE0D50
E2DB5C10
62FEF900
04F68E00
07F2AC00
0AE0E900
0DB0D800
ENDCHAR
STARTCHAR S
ENCODING 83
SWIDTH 570 0
DWIDTH 6 0
BBX 6 9 0 0
BITMAP
006DC7
03F51F
04F73A
00DE20
003FD1
1A76F7
8C11F9
8B04F5
1ACD70
ENDCHAR
STARTCHAR T
ENCODING 84
SWIDTH 481 0
DWIDTH 5 0
BBX 8 9 0 0
BITMAP
06BED615
790DD9B5
D31F9000
D24F6000
316F3000
009F0000
00CC0000
00F90000
03F60000
ENDCHAR
STARTCHAR U
ENCODING 85
SWIDTH 716 0
DWIDTH 8 0
BBX 9 9 0 0
BITMAP
049E904F40
6A3F507F10
E27F20AD00
E0AD00DA00
21E901F800
02F604F400
04F308E100
03F63E8000
008ED80000
ENDCHAR
STARTCHAR V
ENCODING 86
SWIDTH 615 0
DWIDTH 7 0
BBX 8 9 0 0
BITMAP
03AE5066
4B5F60A1
C43F61A0
D23F6550
213F6910
003F7900
002FB500
002FE100
002FA000
ENDCHAR
STARTCHAR W
ENCODING 87
SWIDTH 962 0
DWIDTH 11 0
BBX 12 9 0 0
BITMAP
03AE506F3093
4B5F60AF30B0
C43F61EF3380
D23F65CF3820
213F697F3A00
003F796F6700
002FB55FB200
002FE15FC000
002FA05F7000
ENDCHAR
STARTCHAR X
ENCODING 88
SWIDTH 620 0
DWIDTH 7 0
BBX 7 9 0 0
BITMAP
03AE7290
4B3FA920
C40EE800
D20BF200
2108F300
000BF600
003AF900
00A1EC00
0460CE00
ENDCHAR
STARTCHAR Y
ENCODING 89
SWIDTH 620 0
DWIDTH 7 0
BBX 8 9 0 0
BITMAP
03AE7047
4B3FA091
C40DE190
D20AF840
2106FC00
0004F800
0007F500
000AF200
000DE000
ENDCHAR
STARTCHAR Z
ENCODING 90
SWIDTH 542 0
DWIDTH 6 0
BBX 6 9 0 0
BITMAP
0ACCFD
0E16F6
000DE0
005F70
00CE10
04F800
0BF200
3F9096
AFDBC2
ENDCHAR
STARTCHAR bracketleft
ENCODING 91
SWIDTH 400 0
DWIDTH 4 0
BBX 5 12 0 -3
BITMAP
00DC60
01F100
04D000
07A000
0A7000
0C5000
0F2000
3E0000
6B0000
980000
C50000
FC4000
ENDCHAR
STARTCHAR backslash
ENCODING 92
SWIDTH 362 0
DWIDTH 4 0
BBX 4 12 0 -3
BITMAP
7500
4800
1B00
0C00
0A20
0750
0480
01B0
00C0
00A2
0075
0057
ENDCHAR
STARTCHAR bracketright
ENCODING 93
SWIDTH 400 0
DWIDTH 4 0
BBX 5 12 -1 -3
BITMAP
005CE0
0006B0
000980
000C50
000F20
003E00
006B00
009800
00C500
00E300
03E000
7CC000
ENDCHAR
STARTCHAR asciicircum
ENCODING 94
SWIDTH 421 0
DWIDTH 5 0
BBX 4 2 0 7
BITMAP
01A4
1857
ENDCHAR
STARTCHAR underscore
ENCODING 95
SWIDTH 444 0
DWIDTH 5 0
BBX 5 1 0 0
BITMAP
6BBB40
ENDCHAR
STARTCHAR grave
ENCODING 96
SWIDTH 201 0
DWIDTH 2 0
BBX 2 3 0 7
BITMAP
21
78
1A
ENDCHAR
STARTCHAR a
ENCODING 97
SWIDTH 526 0
DWIDTH 6 0
BBX 8 6 -1 0
BITMAP
009DBF30
07F39F00
0DB0CC00
1F80E910
1F96F871
0AE6BD40
ENDCHAR
STARTCHAR b
ENCODING 98
SWIDTH 444 0
DWIDTH 5 0
BBX 6 9 -1 0
BITMAP
002300
00EA00
02F700
05FBD2
08F1B6
0BD0A7
0EA0D4
1F83C0
0AEA20
ENDCHAR
STARTCHAR c
ENCODING 99
SWIDTH 384 0
DWIDTH 4 0
BBX 6 6 -1 0
BITMAP
008DB0
06F3C0
0DC000
1F9000
1F8043
09E940
ENDCHAR
STARTCHAR d
ENCODING 100
SWIDTH 525 0
DWIDTH 6 0
BBX 8 9 -1 0
BITMAP
00000230
00000F90
00003F60
009DBF30
07F39F10
0DC0CD00
1F90EA00
1F83F751
0AD8CC40
ENDCHAR
STARTCHAR e
ENCODING 101
SWIDTH 384 0
DWIDTH 4 0
BBX 6 6 -1 0
BITMAP
008DB0
06F3D0
0DC6A0
1FD900
1F8033
09E940
ENDCHAR
STARTCHAR f
ENCODING 102
SWIDTH 267 0
DWIDTH 3 0
BBX 8 12 -3 -3
BITMAP
00004DB1
0000DA32
0002F600
0005FC10
0008F100
000BD000
000EA000
002F7000
005F4000
08DF1000
37AD0000
1BD40000
ENDCHAR
STARTCHAR g
ENCODING 103
SWIDTH 507 0
DWIDTH 6 0
BBX 7 9 -1 -3
BITMAP
009DBF30
07F39F00
0DC0BC00
1F90E900
1F83F660
0AECFA40
004BF200
037CC000
02CD4000
ENDCHAR
STARTCHAR h
ENCODING 104
SWIDTH 505 0
DWIDTH 6 0
BBX 7 9 -1 0
BITMAP
00230000
00EA0000
02F60000
05FBE600
08F2DA00
0BC0F900
0E93F600
2F75F360
5F41DB30
ENDCHAR
STARTCHAR i
ENCODING 105
SWIDTH 267 0
DWIDTH 3 0
BBX 5 8 -1 0
BITMAP
00C800
00A700
05F300
08F100
0BD000
0EA010
1F9720
0BE500
ENDCHAR
STARTCHAR j
ENCODING 106
SWIDTH 240 0
DWIDTH 3 0
BBX 6 11 -3 -3
BITMAP
0000D7
0000B5
0005F4
0008F1
000BD0
000EA0
002F77
005F94
06DF20
29BC00
1BD400
ENDCHAR
STARTCHAR k
ENCODING 107
SWIDTH 518 0
DWIDTH 6 0
BBX 7 9 -1 0
BITMAP
00230000
00EA0000
02F70000
05F47800
08FA9000
0BFBF600
0EA1F810
2F73F780
5F41DE40
ENDCHAR
STARTCHAR l
ENCODING 108
SWIDTH 267 0
DWIDTH 3 0
BBX 5 9 -1 0
BITMAP
000100
00DA00
02F700
05F400
08F100
0BD000
0EA000
1F8630
0CE600
ENDCHAR
STARTCHAR m
ENCODING 109
SWIDTH 752 0
DWIDTH 8 0
BBX 10 6 -1 0
BITMAP
05FBE9AE30
08F2EC2F60
0BC1F84F50
0E94F57F20
2F76F29E06
5F49F04E91
ENDCHAR
STARTCHAR n
ENCODING 110
SWIDTH 505 0
DWIDTH 6 0
BBX 7 6 -1 0
BITMAP
05FBE600
08F2DA00
0BC0F900
0E93F600
2F75F360
5F41DB30
ENDCHAR
STARTCHAR o
ENCODING 111
SWIDTH 439 0
DWIDTH 5 0
BBX 8 6 -1 0
BITMAP
008DB000
06F3C451
0DC0D810
1F90D100
2F83A000
09EA1000
ENDCHAR
STARTCHAR p
ENCODING 112
SWIDTH 468 0
DWIDTH 5 0
BBX 6 10 -1 -3
BITMAP
028300
05FBE7
08F1AD
0BD0BC
0EA0EA
2F76F4
5FDE70
8F1000
BD0000
A60000
ENDCHAR
STARTCHAR q
ENCODING 113
SWIDTH 486 0
DWIDTH 5 0
BBX 7 9 -1 -3
BITMAP
009DBF20
07F39E00
0DC0CC00
1F90E900
1F83F600
0ADBF300
0009F000
000CC000
000B5000
ENDCHAR
STARTCHAR r
ENCODING 114
SWIDTH 376 0
DWIDTH 4 0
BBX 6 6 -1 0
BITMAP
05FAE2
08F3B1
0BD000
0EA000
2F7000
5F4000
ENDCHAR
STARTCHAR s
ENCODING 115
SWIDTH 382 0
DWIDTH 4 0
BBX 6 7 -1 0
BITMAP
000100
008F40
00CF50
057F60
1B3F60
493FB3
1ADA10
ENDCHAR
STARTCHAR t
ENCODING 116
SWIDTH 267 0
DWIDTH 3 0
BBX 5 8 -1 0
BITMAP
00A700
02F600
09FB00
08F100
0BD000
0EA010
1F9720
0CE600
ENDCHAR
STARTCHAR u
ENCODING 117
SWIDTH 505 0
DWIDTH 6 0
BBX 7 6 -1 0
BITMAP
05F39E00
08F1CB00
0BD0F800
0EA3F510
1F9AF680
0BD6EC20
ENDCHAR
STARTCHAR v
ENCODING 118
SWIDTH 414 0
DWIDTH 5 0
BBX 6 6 -1 0
BITMAP
05F3A4
08F155
0BD083
0EA0C0
1F9870
0BE800
ENDCHAR
STARTCHAR w
ENCODING 119
SWIDTH 661 0
DWIDTH 7 0
BBX 9 6 -1 0
BITMAP
05F39E2C00
08F1CB0910
0BD0F80B00
0EA3F53A00
1F9AF6B300
0BD5DD5000
ENDCHAR
STARTCHAR x
ENCODING 120
SWIDTH 522 0
DWIDTH 6 0
BBX 7 6 0 0
BITMAP
06E67400
34BC8500
609F9000
709F0000
06AF2610
480CB400
ENDCHAR
STARTCHAR y
ENCODING 121
SWIDTH 486 0
DWIDTH 5 0
BBX 7 9 -1 -3
BITMAP
05F3AE00
08F1DB00
0BD1F800
0EA3F510
1F9AF370
0BEDF910
008EC000
065F8000
04EC1000
ENDCHAR
STARTCHAR z
ENCODING 122
SWIDTH 428 0
DWIDTH 5 0
BBX 5 6 0 0
BITMAP
2CCF70
479D00
02F600
0AD000
3F6820
BFCB10
ENDCHAR
STARTCHAR braceleft
ENCODING 123
SWIDTH 352 0
DWIDTH 4 0
BBX 5 12 0 -3
BITMAP
005D40
00D400
02F100
03F000
04D000
06B000
5E2000
0B5000
0E3000
4E0000
7D0000
3D4000
ENDCHAR
STARTCHAR bar
ENCODING 124
SWIDTH 532 0
DWIDTH 6 0
BBX 2 12 2 -3
BITMAP
97
97
97
97
97
97
97
97
97
97
97
97
ENDCHAR
STARTCHAR braceright
ENCODING 125
SWIDTH 352 0
DWIDTH 4 0
BBX 5 12 -1 -3
BITMAP
009B00
003F20
003F10
005C00
008900
00A600
007D10
01F100
04E000
05D000
09A000
8D3000
ENDCHAR
STARTCHAR asciitilde
ENCODING 126
SWIDTH 431 0
DWIDTH 5 0
BBX 5 2 0 7
BITMAP
047310
28DE50
ENDCHAR
STARTCHAR uni00A0
ENCODING 160
SWIDTH 217 0
DWIDTH 2 0
BBX 1 1 0 0
BITMAP
00
ENDCHAR
STARTCHAR exclamdown
ENCODING 161
SWIDTH 219 0
DWIDTH 2 0
BBX 4 9 -1 -3
BITMAP
01E6
01C5
0020
04B0
0890
0C70
1F50
5F30
8C10
ENDCHAR
STARTCHAR cent
ENCODING 162
SWIDTH 384 0
DWIDTH 4 0
BBX 5 9 0 -1
BITMAP
001700
03AB30
2EB880
A98210
D68000
BB6200
3DC600
080000
070000
ENDCHAR
STARTCHAR sterling
ENCODING 163
SWIDTH 455 0
DWIDTH 5 0
BBX 6 9 0 0
BITMAP
002CD5
00CA79
02F521
05F200
6DFB60
0BC000
0E9000
3F5143
ADCFD3
ENDCHAR
STARTCHAR currency
ENCODING 164
SWIDTH 500 0
DWIDTH 6 0
BBX 5 5 0 2
BITMAP
010010
1BCB70
0A0460
0A0560
1ABA80
ENDCHAR
STARTCHAR yen
ENCODING 165
SWIDTH 558 0
DWIDTH 6 0
BBX 6 9 1 0
BITMAP
BF1092
7F51A0
4F8640
0FC900
0BF700
6DF950
0CE000
BFEB30
3F9000
ENDCHAR
STARTCHAR brokenbar
ENCODING 166
SWIDTH 532 0
DWIDTH 6 0
BBX 2 12 2 -3
BITMAP
97
97
97
97
97
00
97
97
97
97
97
97
ENDCHAR
STARTCHAR section
ENCODING 167
SWIDTH 542 0
DWIDTH 6 0
BBX 6 10 0 -1
BITMAP
003CC7
00D81B
01F813
0CEF50
0F6CF3
08E4D8
11AEA6
B83F80
D33F20
4A9400
ENDCHAR
STARTCHAR dieresis
ENCODING 168
SWIDTH 392 0
DWIDTH 4 0
BBX 4 2 0 6
BITMAP
4C4B
0101
ENDCHAR
STARTCHAR copyright
ENCODING 169
SWIDTH 587 0
DWIDTH 6 0
BBX 6 7 0 1
BITMAP
018840
091054
447937
646047
477027
097984
018850
ENDCHAR
STARTCHAR ordfeminine
ENCODING 170
SWIDTH 345 0
DWIDTH 4 0
BBX 4 4 0 5
BITMAP
0BD6
5894
76D1
4983
ENDCHAR
STARTCHAR guillemotleft
ENCODING 171
SWIDTH 589 0
DWIDTH 6 0
BBX 6 4 0 1
BITMAP
002516
287782
784930
029173
ENDCHAR
STARTCHAR logicalnot
ENCODING 172
SWIDTH 444 0
DWIDTH 5 0
BBX 5 3 0 1
BITMAP
8BBD40
002F20
004C00
ENDCHAR
STARTCHAR uni00AD
ENCODING 173
SWIDTH 290 0
DWIDTH 3 0
BBX 3 1 0 3
BITMAP
8B60
ENDCHAR
STARTCHAR registered
ENCODING 174
SWIDTH 553 0
DWIDTH 6 0
BBX 6 7 0 1
BITMAP
038830
180072
729827
71AA17
727717
182182
028730
ENDCHAR
STARTCHAR macron
ENCODING 175
SWIDTH 446 0
DWIDTH 5 0
BBX 5 1 0 7
BITMAP
2BBB40
ENDCHAR
STARTCHAR degree
ENCODING 176
SWIDTH 314 0
DWIDTH 3 0
BBX 4 4 0 4
BITMAP
0770
5691
8390
4830
ENDCHAR
STARTCHAR plusminus
ENCODING 177
SWIDTH 479 0
DWIDTH 5 0
BBX 5 7 0 1
BITMAP
000100
005800
008500
3EFEB0
00D000
017000
7BBB20
ENDCHAR
STARTCHAR uni00B2
ENCODING 178
SWIDTH 328 0
DWIDTH 4 0
BBX 4 5 0 4
BITMAP
09D4
0986
0290
1800
5CB2
ENDCHAR
STARTCHAR uni00B3
ENCODING 179
SWIDTH 336 0
DWIDTH 4 0
BBX 4 5 0 4
BITMAP
08D5
0A67
01B1
5796
2881
ENDCHAR
STARTCHAR acute
ENCODING 180
SWIDTH 316 0
DWIDTH 3 0
BBX 3 2 1 7
BITMAP
0D20
6500
ENDCHAR
STARTCHAR uni00B5
ENCODING 181
SWIDTH 505 0
DWIDTH 6 0
BBX 7 8 -1 -2
BITMAP
05F39E00
08F1CB00
0BD0F800
0EA3F610
2F99F580
5FE6EC20
8F100000
99000000
ENDCHAR
STARTCHAR paragraph
ENCODING 182
SWIDTH 542 0
DWIDTH 6 0
BBX 6 10 0 -1
BITMAP
02BEB1
0CFFA7
2FFF88
2FFDA5
0DFAD2
02CCE0
00B8C0
00E890
02EA60
05BD30
ENDCHAR
STARTCHAR periodcentered
ENCODING 183
SWIDTH 434 0
DWIDTH 5 0
BBX 3 3 1 2
BITMAP
0100
8F40
7E30
ENDCHAR
STARTCHAR cedilla
ENCODING 184
SWIDTH 227 0
DWIDTH 3 0
BBX 3 3 0 -3
BITMAP
1700
4C60
5930
ENDCHAR
STARTCHAR uni00B9
ENCODING 185
SWIDTH 229 0
DWIDTH 3 0
BBX 3 6 0 3
BITMAP
0320
4E30
0D10
1D00
4A00
5600
ENDCHAR
STARTCHAR ordmasculine
ENCODING 186
SWIDTH 329 0
DWIDTH 4 0
BBX 4 4 0 5
BITMAP
1B80
6881
8670
3A20
ENDCHAR
STARTCHAR guillemotright
ENCODING 187
SWIDTH 586 0
DWIDTH 6 0
BBX 6 4 0 1
BITMAP
150510
059496
039669
653720
ENDCHAR
STARTCHAR onequarter
ENCODING 188
SWIDTH 749 0
DWIDTH 8 0
BBX 8 9 0 0
BITMAP
03200750
4E301B00
0D108400
1D01B000
4A08448C
561B077C
008409BB
01B00096
084000B3
ENDCHAR
STARTCHAR onehalf
ENCODING 189
SWIDTH 745 0
DWIDTH 8 0
BBX 9 9 0 0
BITMAP
0320075000
4E301B0000
0D10840000
1D01B00000
4A0842CC00
561B054E10
0084005600
01B0036000
08400BB900
ENDCHAR
STARTCHAR threequarters
ENCODING 190
SWIDTH 836 0
DWIDTH 9 0
BBX 9 9 0 0
BITMAP
08D5008400
0A6701B000
01B1084000
57961A0000
28818358C0
0002A077B0
000930ABB0
002A000950
0093000B30
ENDCHAR
STARTCHAR questiondown
ENCODING 191
SWIDTH 439 0
DWIDTH 5 0
BBX 5 9 -1 -3
BITMAP
0007D0
0006B0
000120
000640
003B00
03D200
0D85D0
1F72E0
09DB40
ENDCHAR
STARTCHAR Agrave
ENCODING 192
SWIDTH 668 0
DWIDTH 7 0
BBX 8 14 0 -2
BITMAP
00000890
000003B0
00000020
000018E7
0000A6F5
000957F2
3BCE7BE0
C6B71EC0
44F21F90
08D04F60
0C807F30
0F609F00
1F400000
04200000
ENDCHAR
STARTCHAR Aacute
ENCODING 193
SWIDTH 668 0
DWIDTH 7 0
BBX 9 14 0 -2
BITMAP
0000000D30
0000004A00
0000004200
000018E700
0000A6F500
000957F200
3BCE7BE000
C6B71EC000
44F21F9000
08D04F6000
0C807F3000
0F609F0000
1F40000000
0420000000
ENDCHAR
STARTCHAR Acircumflex
ENCODING 194
SWIDTH 668 0
DWIDTH 7 0
BBX 9 14 0 -2
BITMAP
0000001B00
000001BB20
0000041130
000018E700
0000A6F500
000957F200
3BCE7BE000
C6B71EC000
44F21F9000
08D04F6000
0C807F3000
0F609F0000
1F40000000
0420000000
ENDCHAR
STARTCHAR Atilde
ENCODING 195
SWIDTH 668 0
DWIDTH 7 0
BBX 9 13 0 -2
BITMAP
00001BEA50
0000115610
000018E700
0000A6F500
000957F200
3BCE7BE000
C6B71EC000
44F21F9000
08D04F6000
0C807F3000
0F609F0000
1F40000000
0420000000
ENDCHAR
STARTCHAR Adieresis
ENCODING 196
SWIDTH 668 0
DWIDTH 7 0
BBX 9 13 0 -2
BITMAP
00000C3D30
0000010100
000018E700
0000A6F500
000957F200
3BCE7BE000
C6B71EC000
44F21F9000
08D04F6000
0C807F3000
0F609F0000
1F40000000
0420000000
ENDCHAR
STARTCHAR Aring
ENCODING 197
SWIDTH 668 0
DWIDTH 7 0
BBX 8 14 0 -2
BITMAP
000000A4
00000256
000000B3
000018E7
0000A6F5
000957F2
3BCE7BE0
C6B71EC0
44F21F90
08D04F60
0C807F30
0F609F00
1F400000
04200000
ENDCHAR
STARTCHAR AE
ENCODING 198
SWIDTH 764 0
DWIDTH 8 0
BBX 10 11 0 -2
BITMAP
000018E915
0001B7FBB5
000977F300
2ADE5AE000
C7B73EFD60
96F21F9000
08D03F6000
0C906F4000
0F609FCB50
1F40000000
0420000000
ENDCHAR
STARTCHAR Ccedilla
ENCODING 199
SWIDTH 497 0
DWIDTH 5 0
BBX 6 12 0 -3
BITMAP
008EC6
07F51D
1EC048
6F6000
9F3000
BF1000
BF1001
9F6156
2CFE70
009500
003E00
038500
ENDCHAR
STARTCHAR Egrave
ENCODING 200
SWIDTH 459 0
DWIDTH 5 0
BBX 6 12 0 0
BITMAP
001F00
000C20
000110
006DC2
04F276
08D092
05F200
08E500
7F7000
CF1000
DF1041
5DD820
ENDCHAR
STARTCHAR Eacute
ENCODING 201
SWIDTH 459 0
DWIDTH 5 0
BBX 6 12 0 0
BITMAP
000097
0002B0
000000
006DC2
04F276
08D092
05F200
08E500
7F7000
CF1000
DF1041
5DD820
ENDCHAR
STARTCHAR Ecircumflex
ENCODING 202
SWIDTH 459 0
DWIDTH 5 0
BBX 6 12 0 0
BITMAP
0002C0
004864
000000
006DC2
04F276
08D092
05F200
08E500
7F7000
CF1000
DF1041
5DD820
ENDCHAR
STARTCHAR Edieresis
ENCODING 203
SWIDTH 459 0
DWIDTH 5 0
BBX 6 11 0 0
BITMAP
004C4B
000101
006DC2
04F276
08D092
05F200
08E500
7F7000
CF1000
DF1041
5DD820
ENDCHAR
STARTCHAR Igrave
ENCODING 204
SWIDTH 375 0
DWIDTH 4 0
BBX 5 12 0 0
BITMAP
007900
003B00
000200
03AE40
4DAF10
C5AD00
D2DA00
22F700
04F500
07F200
0AE000
0DB000
ENDCHAR
STARTCHAR Iacute
ENCODING 205
SWIDTH 375 0
DWIDTH 4 0
BBX 6 12 0 0
BITMAP
0001E2
000690
000510
03AE40
4DAF10
C5AD00
D2DA00
22F700
04F500
07F200
0AE000
0DB000
ENDCHAR
STARTCHAR Icircumflex
ENCODING 206
SWIDTH 375 0
DWIDTH 4 0
BBX 5 12 0 0
BITMAP
000480
003BA0
005030
03AE40
4DAF10
C5AD00
D2DA00
22F700
04F500
07F200
0AE000
0DB000
ENDCHAR
STARTCHAR Idieresis
ENCODING 207
SWIDTH 375 0
DWIDTH 4 0
BBX 6 11 0 0
BITMAP
00B4C3
001010
03AE40
4DAF10
C5AD00
D2DA00
22F700
04F500
07F200
0AE000
0DB000
ENDCHAR
STARTCHAR Eth
ENCODING 208
SWIDTH 663 0
DWIDTH 7 0
BBX 8 9 0 0
BITMAP
02ABBA10
3C691BB0
C4AE07F0
D2DB07F1
37FD48F0
04F50BC0
07F21E70
0AE08E10
0DDBD400
ENDCHAR
STARTCHAR Ntilde
ENCODING 209
SWIDTH 686 0
DWIDTH 8 0
BBX 8 11 0 0
BITMAP
0002BEB4
00000220
06DF504C
6D9F8079
C59FB0A6
D3CCE0C3
33F6F3E0
04C3F9C0
0790EE90
0A60BF60
0D308F30
ENDCHAR
STARTCHAR Ograve
ENCODING 210
SWIDTH 665 0
DWIDTH 7 0
BBX 8 12 0 0
BITMAP
00088000
0003B000
00002000
018BBC40
1C5857D0
97AD04F2
C6F705F3
28F207F1
0AE00BC0
0CC02F60
0AE1AC00
03DEA100
ENDCHAR
STARTCHAR Oacute
ENCODING 211
SWIDTH 665 0
DWIDTH 7 0
BBX 8 12 0 0
BITMAP
00000C40
00004B00
00004200
018BBC40
1C5857D0
97AD04F2
C6F705F3
28F207F1
0AE00BC0
0CC02F60
0AE1AC00
03DEA100
ENDCHAR
STARTCHAR Ocircumflex
ENCODING 212
SWIDTH 665 0
DWIDTH 7 0
BBX 8 12 0 0
BITMAP
00003A00
0002CB00
00050210
018BBC40
1C5857D0
97AD04F2
C6F705F3
28F207F1
0AE00BC0
0CC02F60
0AE1AC00
03DEA100
ENDCHAR
STARTCHAR Otilde
ENCODING 213
SWIDTH 665 0
DWIDTH 7 0
BBX 8 11 0 0
BITMAP
0006ED82
00013730
018BBC40
1C5857D0
97AD04F2
C6F705F3
28F207F1
0AE00BC0
0CC02F60
0AE1AC00
03DEA100
ENDCHAR
STARTCHAR Odieresis
ENCODING 214
SWIDTH 665 0
DWIDTH 7 0
BBX 8 11 0 0
BITMAP
000A5A50
00010100
018BBC40
1C5857D0
97AD04F2
C6F705F3
28F207F1
0AE00BC0
0CC02F60
0AE1AC00
03DEA100
ENDCHAR
STARTCHAR multiply
ENCODING 215
SWIDTH 414 0
DWIDTH 5 0
BBX 4 4 0 2
BITMAP
1204
3DA9
0BE3
493A
ENDCHAR
STARTCHAR Oslash
ENCODING 216
SWIDTH 658 0
DWIDTH 7 0
BBX 7 10 0 -1
BITMAP
00004500
029BDC20
3C6DCAB0
B5D987E0
88F489D0
0AE36CB0
0CC65F60
0CC8BD10
04EED200
00090000
ENDCHAR
STARTCHAR Ugrave
ENCODING 217
SWIDTH 716 0
DWIDTH 8 0
BBX 9 12 0 0
BITMAP
00006A0000
00001C0000
0000020000
03AE705F30
5A4F408F10
E27F10BC00
E0BC00EA00
20E802F600
02F506F300
04F30AD000
04F65F7000
00BEE80000
ENDCHAR
STARTCHAR Uacute
ENCODING 218
SWIDTH 716 0
DWIDTH 8 0
BBX 9 12 0 0
BITMAP
000004C000
00000A4000
0000060000
03AE705F30
5A4F408F10
E27F10BC00
E0BC00EA00
20E802F600
02F506F300
04F30AD000
04F65F7000
00BEE80000
ENDCHAR
STARTCHAR Ucircumflex
ENCODING 219
SWIDTH 716 0
DWIDTH 8 0
BBX 9 12 0 0
BITMAP
0000049000
00003CB000
0000503100
03AE705F30
5A4F408F10
E27F10BC00
E0BC00EA00
20E802F600
02F506F300
04F30AD000
04F65F7000
00BEE80000
ENDCHAR
STARTCHAR Udieresis
ENCODING 220
SWIDTH 716 0
DWIDTH 8 0
BBX 9 11 0 0
BITMAP
0000A5A500
0000101000
03AE705F30
5A4F408F10
E27F10BC00
E0BC00EA00
20E802F600
02F506F300
04F30AD000
04F65F7000
00BEE80000
ENDCHAR
STARTCHAR Yacute
ENCODING 221
SWIDTH 620 0
DWIDTH 7 0
BBX 8 12 0 0
BITMAP
000000C4
000003B0
00000430
03AE7047
4B3FA091
C40DE190
D20AF840
2106FC00
0004F800
0007F500
000AF200
000DE000
ENDCHAR
STARTCHAR Thorn
ENCODING 222
SWIDTH 583 0
DWIDTH 6 0
BBX 7 10 0 0
BITMAP
00011000
005F3000
02BFC700
3CDD1E40
C5DA0B70
D3F70E50
25F49C00
07FC9100
0AE00000
0DB00000
ENDCHAR
STARTCHAR germandbls
ENCODING 223
SWIDTH 480 0
DWIDTH 5 0
BBX 6 11 -1 -3
BITMAP
002CD5
00CA68
02F694
06F3A0
0AE1D4
0DB09B
1F80AA
4F7CC2
7F2000
AE0000
A70000
ENDCHAR
STARTCHAR agrave
ENCODING 224
SWIDTH 526 0
DWIDTH 6 0
BBX 8 9 -1 0
BITMAP
00079000
0003B000
00002000
009DBF30
07F39F00
0DB0CC00
1F80E910
1F96F871
0AE6BD40
ENDCHAR
STARTCHAR aacute
ENCODING 225
SWIDTH 526 0
DWIDTH 6 0
BBX 8 9 -1 0
BITMAP
00008800
0000D100
00013000
009DBF30
07F39F00
0DB0CC00
1F80E910
1F96F871
0AE6BD40
ENDCHAR
STARTCHAR acircumflex
ENCODING 226
SWIDTH 526 0
DWIDTH 6 0
BBX 8 9 -1 0
BITMAP
00007600
00079900
00120200
009DBF30
07F39F00
0DB0CC00
1F80E910
1F96F871
0AE6BD40
ENDCHAR
STARTCHAR atilde
ENCODING 227
SWIDTH 526 0
DWIDTH 6 0
BBX 8 8 -1 0
BITMAP
003BEB40
00002200
009DBF30
07F39F00
0DB0CC00
1F80E910
1F96F871
0AE6BD40
ENDCHAR
STARTCHAR adieresis
ENCODING 228
SWIDTH 526 0
DWIDTH 6 0
BBX 8 8 -1 0
BITMAP
000D3D20
00010100
009DBF30
07F39F00
0DB0CC00
1F80E910
1F96F871
0AE6BD40
ENDCHAR
STARTCHAR aring
ENCODING 229
SWIDTH 526 0
DWIDTH 6 0
BBX 8 8 -1 0
BITMAP
0003B200
0003B100
009DBF30
07F39F00
0DB0CC00
1F80E910
1F96F871
0AE6BD40
ENDCHAR
STARTCHAR ae
ENCODING 230
SWIDTH 650 0
DWIDTH 7 0
BBX 9 6 -1 0
BITMAP
008CDADA00
0010EF2D00
04BCFB6900
0EB4FD8000
1F87F70420
0AD8CE9400
ENDCHAR
STARTCHAR ccedilla
ENCODING 231
SWIDTH 384 0
DWIDTH 4 0
BBX 6 9 -1 -3
BITMAP
008DB0
06F3B0
0DB000
1F8001
1F9163
09FD30
004810
002A40
008700
ENDCHAR
STARTCHAR egrave
ENCODING 232
SWIDTH 384 0
DWIDTH 4 0
BBX 6 9 -1 0
BITMAP
002E00
000C20
000100
008DB0
06F3D0
0DC6A0
1FD900
1F8033
09E940
ENDCHAR
STARTCHAR eacute
ENCODING 233
SWIDTH 384 0
DWIDTH 4 0
BBX 6 9 -1 0
BITMAP
0000B5
0003B0
000320
008DB0
06F3D0
0DC6A0
1FD900
1F8033
09E940
ENDCHAR
STARTCHAR ecircumflex
ENCODING 234
SWIDTH 384 0
DWIDTH 4 0
BBX 6 9 -1 0
BITMAP
0002B0
002BA2
003002
008DB0
06F3D0
0DC6A0
1FD900
1F8033
09E940
ENDCHAR
STARTCHAR edieresis
ENCODING 235
SWIDTH 384 0
DWIDTH 4 0
BBX 6 8 -1 0
BITMAP
008797
001010
008DB0
06F3D0
0DC6A0
1FD900
1F8033
09E940
ENDCHAR
STARTCHAR igrave
ENCODING 236
SWIDTH 267 0
DWIDTH 3 0
BBX 5 9 -1 0
BITMAP
04D000
00E000
002000
05F300
08F100
0BD000
0EA010
1F9720
0BE500
ENDCHAR
STARTCHAR iacute
ENCODING 237
SWIDTH 267 0
DWIDTH 3 0
BBX 5 9 -1 0
BITMAP
001E20
007700
003100
05F300
08F100
0BD000
0EA010
1F9720
0BE500
ENDCHAR
STARTCHAR icircumflex
ENCODING 238
SWIDTH 267 0
DWIDTH 3 0
BBX 5 9 -1 0
BITMAP
003A00
04AA10
020110
05F300
08F100
0BD000
0EA010
1F9720
0BE500
ENDCHAR
STARTCHAR idieresis
ENCODING 239
SWIDTH 267 0
DWIDTH 3 0
BBX 5 8 -1 0
BITMAP
0A6C40
010100
05F300
08F100
0BD000
0EA010
1F9720
0BE500
ENDCHAR
STARTCHAR eth
ENCODING 240
SWIDTH 526 0
DWIDTH 6 0
BBX 8 9 -1 0
BITMAP
0000A440
0005DF60
00035F20
009DBF20
07F39F10
0DC0BD00
1F90EA00
1F83F751
0AD8CC40
ENDCHAR
STARTCHAR ntilde
ENCODING 241
SWIDTH 505 0
DWIDTH 6 0
BBX 7 8 -1 0
BITMAP
006DD910
00003100
05FBE600
08F2DA00
0BC0F800
0E93F510
2F75F580
5F41DD20
ENDCHAR
STARTCHAR ograve
ENCODING 242
SWIDTH 433 0
DWIDTH 5 0
BBX 7 9 -1 0
BITMAP
000D3000
00095000
00011000
009DB000
07F2D350
0EB0E710
2F80D000
2F749000
0ADA1000
ENDCHAR
STARTCHAR oacute
ENCODING 243
SWIDTH 439 0
DWIDTH 5 0
BBX 8 9 -1 0
BITMAP
0000B500
0003C000
00022000
008DB000
06F3C451
0DC0D810
1F90D100
2F83A000
09EA1000
ENDCHAR
STARTCHAR ocircumflex
ENCODING 244
SWIDTH 433 0
DWIDTH 5 0
BBX 7 9 -1 0
BITMAP
0003A000
003BB100
00301100
009DB000
07F2D350
0EB0E710
2F80D000
2F749000
0ADA1000
ENDCHAR
STARTCHAR otilde
ENCODING 245
SWIDTH 433 0
DWIDTH 5 0
BBX 7 8 -1 0
BITMAP
02BEB500
00022000
009DB000
07F2D350
0EB0E710
2F80D000
2F749000
0ADA1000
ENDCHAR
STARTCHAR odieresis
ENCODING 246
SWIDTH 433 0
DWIDTH 5 0
BBX 7 8 -1 0
BITMAP
00A5B500
00101000
009DB000
07F2D350
0EB0E710
2F80D000
2F749000
0ADA1000
ENDCHAR
STARTCHAR divide
ENCODING 247
SWIDTH 415 0
DWIDTH 5 0
BBX 5 6 0 1
BITMAP
00C800
00B600
5BBB40
000000
06B000
08D000
ENDCHAR
STARTCHAR oslash
ENCODING 248
SWIDTH 428 0
DWIDTH 5 0
BBX 6 7 -1 -1
BITMAP
007DB8
06F3A4
0DC4E3
1FB8D1
1FD5A0
0DD910
410000
ENDCHAR
STARTCHAR ugrave
ENCODING 249
SWIDTH 505 0
DWIDTH 6 0
BBX 7 9 -1 0
BITMAP
000C4000
00086000
00011000
05F39E00
08F1CB00
0BD0F800
0EA3F510
1F9AF680
0BD6EC20
ENDCHAR
STARTCHAR uacute
ENCODING 250
SWIDTH 505 0
DWIDTH 6 0
BBX 7 9 -1 0
BITMAP
00009700
0001D000
00012000
05F39E00
08F1CB00
0BD0F800
0EA3F510
1F9AF680
0BD6EC20
ENDCHAR
STARTCHAR ucircumflex
ENCODING 251
SWIDTH 505 0
DWIDTH 6 0
BBX 7 9 -1 0
BITMAP
0001B100
001A8600
00210200
05F39E00
08F1CB00
0BD0F800
0EA3F510
1F9AF680
0BD6EC20
ENDCHAR
STARTCHAR udieresis
ENCODING 252
SWIDTH 505 0
DWIDTH 6 0
BBX 7 8 -1 0
BITMAP
005A6A00
00010100
05F39E00
08F1CB00
0BD0F800
0EA3F510
1F9AF680
0BD6EC20
ENDCHAR
STARTCHAR yacute
ENCODING 253
SWIDTH 505 0
DWIDTH 6 0
BBX 7 12 -1 -3
BITMAP
00009700
0001C000
00012000
05F3AE00
08F1DB00
0BD1F800
0EA3F510
1F9AF370
0BEDF910
008EC000
065F8000
04EC1000
ENDCHAR
STARTCHAR thorn
ENCODING 254
SWIDTH 473 0
DWIDTH 5 0
BBX 6 12 -1 -3
BITMAP
008A00
00E900
02F600
05FAE7
08F1AC
0BD0BC
0EA0EA
2F75F4
5FBE70
8F1000
BD0000
A60000
ENDCHAR
STARTCHAR ydieresis
ENCODING 255
SWIDTH 505 0
DWIDTH 6 0
BBX 7 11 -1 -3
BITMAP
00788800
00011100
05F3AE00
08F1DB00
0BD1F800
0EA3F510
1F9AF370
0BEDF910
008EC000
065F8000
04EC1000
ENDCHAR
STARTCHAR Amacron
ENCODING 256
SWIDTH 668 0
DWIDTH 7 0
BBX 9 13 0 -2
BITMAP
00000BBB60
0000000000
000018E700
0000A6F500
000957F200
3BCE7BE000
C6B71EC000
44F21F9000
08D04F6000
0C807F3000
0F609F0000
1F40000000
0420000000
ENDCHAR
STARTCHAR amacron
ENCODING 257
SWIDTH 526 0
DWIDTH 6 0
BBX 8 8 -1 0
BITMAP
001BBB50
00000000
009DBF30
07F39F00
0DB0CC00
1F80E910
1F96F871
0AE6BD40
ENDCHAR
STARTCHAR Abreve
ENCODING 258
SWIDTH 668 0
DWIDTH 7 0
BBX 9 13 0 -2
BITMAP
00000A21B0
000005B930
000018E700
0000A6F500
000957F200
3BCE7BE000
C6B71EC000
44F21F9000
08D04F6000
0C807F3000
0F609F0000
1F40000000
0420000000
ENDCHAR
STARTCHAR abreve
ENCODING 259
SWIDTH 526 0
DWIDTH 6 0
BBX 8 9 -1 0
BITMAP
004C0870
0009A700
00000000
009DBF30
07F39F00
0DB0CC00
1F80E910
1F96F871
0AE6BD40
ENDCHAR
STARTCHAR Aogonek
ENCODING 260
SWIDTH 668 0
DWIDTH 7 0
BBX 8 11 0 -2
BITMAP
000018E7
0000A6F5
000957F2
3BCE7BE0
C6B71EC0
45F21F90
09B04F60
0D807F30
1F509F00
0B40A100
0000B800
ENDCHAR
STARTCHAR aogonek
ENCODING 261
SWIDTH 526 0
DWIDTH 6 0
BBX 8 8 -1 -2
BITMAP
009DBF30
07F39F00
0DC0BC00
1F90E900
1F83F751
0AD7DC30
00008300
00008910
ENDCHAR
STARTCHAR Cacute
ENCODING 262
SWIDTH 497 0
DWIDTH 5 0
BBX 6 12 0 0
BITMAP
000079
0000D2
000150
008EC6
07F51D
1FC049
6F7000
9F3000
BF1000
BF1000
9F4025
2BEA60
ENDCHAR
STARTCHAR cacute
ENCODING 263
SWIDTH 384 0
DWIDTH 4 0
BBX 6 9 -1 0
BITMAP
000088
0000D1
000130
008DB0
06F3C0
0DC000
1F9000
1F8043
09E940
ENDCHAR
STARTCHAR Ccircumflex
ENCODING 264
SWIDTH 497 0
DWIDTH 5 0
BBX 6 12 0 0
BITMAP
0001B0
001BB3
004113
008EC6
07F51D
1FC049
6F7000
9F3000
BF1000
BF1000
9F4025
2BEA60
ENDCHAR
STARTCHAR ccircumflex
ENCODING 265
SWIDTH 384 0
DWIDTH 4 0
BBX 6 9 -1 0
BITMAP
0002B0
002BA2
003002
008DB0
06F3C0
0DC000
1F9000
1F8043
09E940
ENDCHAR
STARTCHAR Cdotaccent
ENCODING 266
SWIDTH 497 0
DWIDTH 5 0
BBX 6 12 0 0
BITMAP
000097
0000B9
000000
008EC6
07F51D
1FC049
6F7000
9F3000
BF1000
BF1000
9F4025
2BEA60
ENDCHAR
STARTCHAR cdotaccent
ENCODING 267
SWIDTH 384 0
DWIDTH 4 0
BBX 6 9 -1 0
BITMAP
0006D1
0005C0
000000
008DB0
06F3C0
0DC000
1F9000
1F8043
09E940
ENDCHAR
STARTCHAR Ccaron
ENCODING 268
SWIDTH 497 0
DWIDTH 5 0
BBX 7 12 0 0
BITMAP
00072920
0006D200
00013000
008EC600
07F51D00
1FC04900
6F700000
9F300000
BF100000
BF100000
9F402500
2BEA6000
ENDCHAR
STARTCHAR ccaron
ENCODING 269
SWIDTH 384 0
DWIDTH 4 0
BBX 7 9 -1 0
BITMAP
00083910
0006C100
00011000
008DB000
06F3B000
0DC00000
1F900100
1F906300
09EC4000
ENDCHAR
STARTCHAR Dcaron
ENCODING 270
SWIDTH 663 0
DWIDTH 7 0
BBX 8 12 0 0
BITMAP
00072920
0005E300
00013000
02ABCA10
3C681CA0
B5AE07F0
D2DB07F1
32F808F0
04F50BC0
07F21E70
0AE08E10
0DDBD300
ENDCHAR
STARTCHAR dcaron
ENCODING 271
SWIDTH 525 0
DWIDTH 6 0
BBX 9 9 -1 0
BITMAP
0000012A50
00000F9840
00003F6300
009DBF3000
07F39F1000
0DC0CD0000
1F90EA0000
1F83F75100
0AD8CC4000
ENDCHAR
STARTCHAR Dcroat
ENCODING 272
SWIDTH 663 0
DWIDTH 7 0
BBX 8 9 0 0
BITMAP
02ABBA10
3C691BB0
C4AE07F0
D2DB07F1
37FD48F0
04F50BC0
07F21E70
0AE08E10
0DDBD400
ENDCHAR
STARTCHAR dcroat
ENCODING 273
SWIDTH 525 0
DWIDTH 6 0
BBX 8 8 -1 0
BITMAP
00000B80
0001CFD4
009DBF40
07F39F10
0DC0CD00
1F90EA00
1F83F751
0AD8CC40
ENDCHAR
STARTCHAR Emacron
ENCODING 274
SWIDTH 459 0
DWIDTH 5 0
BBX 7 11 0 0
BITMAP
005BBB10
00000000
006DC200
04F27600
08D09200
05F20000
08E50000
7F700000
CF100000
DF104100
5DD82000
ENDCHAR
STARTCHAR emacron
ENCODING 275
SWIDTH 384 0
DWIDTH 4 0
BBX 6 8 -1 0
BITMAP
00BBB6
000000
008DB0
06F3D0
0DC6A0
1FD900
1F8033
09E940
ENDCHAR
STARTCHAR Ebreve
ENCODING 276
SWIDTH 459 0
DWIDTH 5 0
BBX 7 12 0 0
BITMAP
00670930
002BA600
00000000
006DC200
04F27600
08D09200
05F20000
08E50000
7F700000
CF100000
DF104100
5DD82000
ENDCHAR
STARTCHAR ebreve
ENCODING 277
SWIDTH 384 0
DWIDTH 4 0
BBX 6 9 -1 0
BITMAP
02E059
007A81
000000
008DB0
06F3D0
0DC6A0
1FD900
1F8033
09E940
ENDCHAR
STARTCHAR Edotaccent
ENCODING 278
SWIDTH 459 0
DWIDTH 5 0
BBX 6 12 0 0
BITMAP
0003C2
0004E2
000000
006DC2
04F276
08D092
05F200
08E500
7F7000
CF1000
DF1041
5DD820
ENDCHAR
STARTCHAR edotaccent
ENCODING 279
SWIDTH 384 0
DWIDTH 4 0
BBX 6 9 -1 0
BITMAP
0007D0
0006B0
000000
008DB0
06F3D0
0DC6A0
1FD900
1F8033
09E940
ENDCHAR
STARTCHAR Eogonek
ENCODING 280
SWIDTH 459 0
DWIDTH 5 0
BBX 6 11 0 -2
BITMAP
02CCA1
0CB076
0E9094
07E300
19E500
8F5000
CF1000
AF8161
2CFD20
004600
005B30
ENDCHAR
STARTCHAR eogonek
ENCODING 281
SWIDTH 384 0
DWIDTH 4 0
BBX 6 8 -1 -2
BITMAP
008DB0
06F3D0
0DC6A0
1FD900
1F8043
09EC40
006500
006A20
ENDCHAR
STARTCHAR Ecaron
ENCODING 282
SWIDTH 459 0
DWIDTH 5 0
BBX 7 12 0 0
BITMAP
00075820
0003B100
00000000
006DC200
04F27600
08D09200
05F20000
08E50000
7F700000
CF100000
DF104100
5DD82000
ENDCHAR
STARTCHAR ecaron
ENCODING 283
SWIDTH 384 0
DWIDTH 4 0
BBX 7 9 -1 0
BITMAP
00083910
0007C100
00011000
008DB000
06F3D000
0DC59000
1FC70000
1F804300
09E94000
ENDCHAR
STARTCHAR Gcircumflex
ENCODING 284
SWIDTH 578 0
DWIDTH 6 0
BBX 7 14 0 -2
BITMAP
00006700
00069900
00030200
008DC900
0AF30D30
4F801E10
9F200000
BE004900
AE009B00
7F23F800
1AC9F400
07A6E100
2C1C9000
09C91000
ENDCHAR
STARTCHAR gcircumflex
ENCODING 285
SWIDTH 507 0
DWIDTH 6 0
BBX 7 12 -1 -3
BITMAP
00007600
00079900
00120200
009DBF30
07F39F00
0DC0BC00
1F90E900
1F83F660
0AECFA40
004BF200
037CC000
02CD4000
ENDCHAR
STARTCHAR Gbreve
ENCODING 286
SWIDTH 578 0
DWIDTH 6 0
BBX 7 14 0 -2
BITMAP
000A21B0
0005B930
00000000
008DC900
0AF30D30
4F801E10
9F200000
BE003900
AE009B00
7F23F800
1AC9F400
07A6E100
2C1C9000
09C91000
ENDCHAR
STARTCHAR gbreve
ENCODING 287
SWIDTH 507 0
DWIDTH 6 0
BBX 7 12 -1 -3
BITMAP
004C0870
0009A700
00000000
009DBF30
07F39F00
0DC0BC00
1F90E900
1F83F660
0AECFA40
004BF200
037CC000
02CD4000
ENDCHAR
STARTCHAR Gdotaccent
ENCODING 288
SWIDTH 578 0
DWIDTH 6 0
BBX 7 14 0 -2
BITMAP
0001C300
0002E400
00000000
008DC900
0AF30D30
4F801E10
9F200000
BE003900
AE009B00
7F23F800
1AC9F400
07A6E100
2C1C9000
09C91000
ENDCHAR
STARTCHAR gdotaccent
ENCODING 289
SWIDTH 507 0
DWIDTH 6 0
BBX 7 12 -1 -3
BITMAP
0000D700
0000B500
00000000
009DBF30
07F39F00
0DC0BC00
1F90E900
1F83F660
0AECFA40
004BF200
037CC000
02CD4000
ENDCHAR
STARTCHAR Gcommaaccent
ENCODING 290
SWIDTH 578 0
DWIDTH 6 0
BBX 6 12 0 -3
BITMAP
007DC4
08F35B
2FA089
8F4000
CF1000
EE008C
DE00C8
AF25F5
2CCBF2
005200
009500
004000
ENDCHAR
STARTCHAR gcommaaccent
ENCODING 291
SWIDTH 507 0
DWIDTH 6 0
BBX 7 12 -1 -3
BITMAP
00009000
0001D000
00000000
009DBF30
07F39F00
0DC0BC00
1F90E900
1F83F660
0AECFA40
004BF200
037CC000
02CD4000
ENDCHAR
STARTCHAR Hcircumflex
ENCODING 292
SWIDTH 665 0
DWIDTH 7 0
BBX 8 12 0 0
BITMAP
00000760
00006B90
00014030
019E51F8
2DDF33F5
A98F06F2
D3BC08E0
62EEDFB0
02F70E90
06F32F60
09F06F30
0CC09F00
ENDCHAR
STARTCHAR hcircumflex
ENCODING 293
SWIDTH 505 0
DWIDTH 6 0
BBX 7 11 -1 0
BITMAP
00075000
006A8000
01413000
00EA0000
02F70000
05FBE600
08F2DA00
0BC0F900
0E93F600
2F75F360
5F41DB30
ENDCHAR
STARTCHAR Hbar
ENCODING 294
SWIDTH 665 0
DWIDTH 7 0
BBX 9 9 0 0
BITMAP
019E51F800
2B8F24F500
A7DF9BFA10
D3CC09E000
53FEBEB000
03F60E9000
06F32F6000
09F06F3000
0CC09F0000
ENDCHAR
STARTCHAR hbar
ENCODING 295
SWIDTH 505 0
DWIDTH 6 0
BBX 7 8 -1 0
BITMAP
00A90000
09FD7000
04FBE600
07F2DA00
0AC0F900
0D93F600
2F75F360
5F41DB30
ENDCHAR
STARTCHAR Itilde
ENCODING 296
SWIDTH 375 0
DWIDTH 4 0
BBX 6 11 0 0
BITMAP
01CEA5
011660
03AE40
4DAF10
C5AD00
D2DA00
22F700
04F500
07F200
0AE000
0DB000
ENDCHAR
STARTCHAR itilde
ENCODING 297
SWIDTH 267 0
DWIDTH 3 0
BBX 5 8 -1 0
BITMAP
06EA10
001100
05F300
08F100
0BD000
0EA010
1F9720
0BE500
ENDCHAR
STARTCHAR Imacron
ENCODING 298
SWIDTH 375 0
DWIDTH 4 0
BBX 6 11 0 0
BITMAP
03BBB3
000000
03AE40
4DAF10
C5AD00
D2DA00
22F700
04F500
07F200
0AE000
0DB000
ENDCHAR
STARTCHAR imacron
ENCODING 299
SWIDTH 267 0
DWIDTH 3 0
BBX 5 8 -1 0
BITMAP
08BB20
000000
05F300
08F100
0BD000
0EA010
1F9720
0BE500
ENDCHAR
STARTCHAR Ibreve
ENCODING 300
SWIDTH 375 0
DWIDTH 4 0
BBX 6 11 0 0
BITMAP
00C139
007B92
03AE40
4DAF10
C5AD00
D2DA00
22F700
04F500
07F200
0AE000
0DB000
ENDCHAR
STARTCHAR ibreve
ENCODING 301
SWIDTH 267 0
DWIDTH 3 0
BBX 5 9 -1 0
BITMAP
084570
02A800
000000
05F300
08F100
0BD000
0EA010
1F9720
0BE500
ENDCHAR
STARTCHAR Iogonek
ENCODING 302
SWIDTH 375 0
DWIDTH 4 0
BBX 5 15 0 -3
BITMAP
00E200
00A400
001100
03AE40
4B8F10
C4AD00
D2DA00
22F700
04F500
07F200
0AE000
0DB000
190000
4A1000
1C8000
ENDCHAR
STARTCHAR iogonek
ENCODING 303
SWIDTH 267 0
DWIDTH 3 0
BBX 5 11 -1 -3
BITMAP
00C800
00A700
05F300
08F100
0BD000
0EA010
1F9720
0CE500
280000
682000
3C6000
ENDCHAR
STARTCHAR Idotaccent
ENCODING 304
SWIDTH 375 0
DWIDTH 4 0
BBX 5 12 0 0
BITMAP
000980
000B90
000000
03AE40
4DAF10
C5AD00
D2DA00
22F700
04F500
07F200
0AE000
0DB000
ENDCHAR
STARTCHAR dotlessi
ENCODING 305
SWIDTH 267 0
DWIDTH 3 0
BBX 5 6 -1 0
BITMAP
05F300
08F100
0BD000
0EA010
1F9720
0BE500
ENDCHAR
STARTCHAR IJ
ENCODING 306
SWIDTH 663 0
DWIDTH 7 0
BBX 8 11 0 -2
BITMAP
03AE43C4
4B8F17F1
C4AD0BD0
D2DA0EA0
22F72F70
04F45F40
07F28F10
0AE0CD00
0DE4F900
0B56F300
05CC6000
ENDCHAR
STARTCHAR ij
ENCODING 307
SWIDTH 507 0
DWIDTH 6 0
BBX 7 11 -1 -3
BITMAP
00C81E60
00A71C50
05F36F30
08F19F00
0BD0CC00
0EA0F910
1F93F670
0BD7FA30
006CF100
036DB000
02DD3000
ENDCHAR
STARTCHAR Jcircumflex
ENCODING 308
SWIDTH 536 0
DWIDTH 6 0
BBX 7 14 0 -2
BITMAP
00000570
00004BA0
00005030
0003AE40
003B9F10
00C4BD00
00D2EA00
0023F700
0006F300
0009F100
000CC000
4B6F9000
B46F3000
5CB50000
ENDCHAR
STARTCHAR jcircumflex
ENCODING 309
SWIDTH 240 0
DWIDTH 3 0
BBX 6 12 -3 -3
BITMAP
000059
0005AA
000201
0005F4
0008F1
000BD0
000EA0
002F77
005F94
06DF20
29BC00
1BD400
ENDCHAR
STARTCHAR Kcommaaccent
ENCODING 310
SWIDTH 601 0
DWIDTH 7 0
BBX 8 12 0 -3
BITMAP
02AE43D1
3C9F2C30
B5AE6700
E2DDB000
53FDC700
04F58F00
07F2AC00
0AE0E900
0DB0D800
00150000
001C0000
00130000
ENDCHAR
STARTCHAR kcommaaccent
ENCODING 311
SWIDTH 518 0
DWIDTH 6 0
BBX 7 12 -1 -3
BITMAP
00230000
00EA0000
02F70000
05F47800
08FA9000
0BFBF600
0EA1F810
2F73F780
5F41DE40
00240000
00490000
00310000
ENDCHAR
STARTCHAR kgreenlandic
ENCODING 312
SWIDTH 518 0
DWIDTH 6 0
BBX 7 6 -1 0
BITMAP
05F47800
08FA9000
0BFBF600
0EA1F810
2F73F780
5F41DE40
ENDCHAR
STARTCHAR Lacute
ENCODING 313
SWIDTH 379 0
DWIDTH 4 0
BBX 8 15 0 -3
BITMAP
00006300
0002C000
00043000
03AE4000
4B8F1000
C4BD0000
D2EA0000
12F70000
05F40000
08F10000
0BD00000
0ED20000
017E8100
0004EFE3
00003CC0
ENDCHAR
STARTCHAR lacute
ENCODING 314
SWIDTH 267 0
DWIDTH 3 0
BBX 5 11 -1 0
BITMAP
000790
001C10
002300
00EA00
02F700
05F400
08F100
0BD000
0EA000
1F8630
0CE600
ENDCHAR
STARTCHAR Lcommaaccent
ENCODING 315
SWIDTH 379 0
DWIDTH 4 0
BBX 8 12 0 -3
BITMAP
03AE4000
4B8F1000
C4BD0000
D2EA0000
12F70000
05F40000
08F10000
0BD00000
0ED20000
067E8100
1E04EFE3
06003CC0
ENDCHAR
STARTCHAR lcommaaccent
ENCODING 316
SWIDTH 267 0
DWIDTH 3 0
BBX 5 12 -1 -3
BITMAP
000100
00DA00
02F700
05F400
08F100
0BD000
0EA000
1F8630
0CE600
060000
0C2000
040000
ENDCHAR
STARTCHAR Lcaron
ENCODING 317
SWIDTH 379 0
DWIDTH 4 0
BBX 8 15 0 -3
BITMAP
00030410
0008C400
00022000
03AE4000
4B8F1000
C4BD0000
D2EA0000
12F70000
05F40000
08F10000
0BD00000
0ED20000
017E8100
0004EFE3
00003CC0
ENDCHAR
STARTCHAR lcaron
ENCODING 318
SWIDTH 267 0
DWIDTH 3 0
BBX 6 9 -1 0
BITMAP
0002B4
00EA93
02F740
05F400
08F100
0BD000
0EA010
1F9720
0CE500
ENDCHAR
STARTCHAR Ldot
ENCODING 319
SWIDTH 605 0
DWIDTH 7 0
BBX 8 12 0 -3
BITMAP
02AE4000
3B9F1000
B4BD0000
D2EA0000
33F70000
05F45C10
08F16E10
0BD00000
0EC10000
017E7100
0004EFE3
00003CC0
ENDCHAR
STARTCHAR ldot
ENCODING 320
SWIDTH 353 0
DWIDTH 4 0
BBX 5 9 -1 0
BITMAP
004500
00E900
03F700
06F400
08F790
0BD580
0EB000
1F8000
0BC100
ENDCHAR
STARTCHAR Lslash
ENCODING 321
SWIDTH 392 0
DWIDTH 4 0
BBX 8 12 0 -3
BITMAP
03AE4000
4B8F1000
C4BD5000
D2DE6000
14F70000
0AF40000
07F10000
0BD00000
0ED20000
017E8100
0004EFE3
00003CC0
ENDCHAR
STARTCHAR lslash
ENCODING 322
SWIDTH 286 0
DWIDTH 3 0
BBX 5 9 -1 0
BITMAP
000100
00DA00
02F700
05FB50
07F300
3ED000
0EA000
1F8630
0CE600
ENDCHAR
STARTCHAR Nacute
ENCODING 323
SWIDTH 702 0
DWIDTH 8 0
BBX 8 12 0 0
BITMAP
000000B5
000002C0
00000330
06DF504C
6D9F8079
C59FB0A6
D3CCE0C3
33F6F3E0
04C3F9C0
0790EE90
0A60BF60
0D308F30
ENDCHAR
STARTCHAR nacute
ENCODING 324
SWIDTH 505 0
DWIDTH 6 0
BBX 7 9 -1 0
BITMAP
00005C00
0000B300
00003000
05FBE600
08F2DA00
0BC0F800
0E93F510
2F75F580
5F41DD20
ENDCHAR
STARTCHAR Ncommaaccent
ENCODING 325
SWIDTH 668 0
DWIDTH 7 0
BBX 8 12 0 -3
BITMAP
06DF504C
6D9F8079
C59FB0A6
D3CCE0C3
33F6F3E0
04C3F9C0
0790EE90
0A60BF60
0D308F30
00150000
002C0000
00130000
ENDCHAR
STARTCHAR ncommaaccent
ENCODING 326
SWIDTH 505 0
DWIDTH 6 0
BBX 7 9 -1 -3
BITMAP
05FBE600
08F2DA00
0BC0F900
0E93F600
2F75F360
5F41DB30
00510000
00940000
00400000
ENDCHAR
STARTCHAR Ncaron
ENCODING 327
SWIDTH 668 0
DWIDTH 7 0
BBX 8 12 0 0
BITMAP
00001757
00000BA0
00000400
06DF504C
6D9F8079
C59FB0A6
D3CCE0C3
33F6F3E0
04C3F9C0
0790EE90
0A60BF60
0D308F30
ENDCHAR
STARTCHAR ncaron
ENCODING 328
SWIDTH 505 0
DWIDTH 6 0
BBX 7 9 -1 0
BITMAP
00085800
00099000
00020000
05FBE600
08F2DA00
0BC0F900
0E93F600
2F75F360
5F41DB30
ENDCHAR
STARTCHAR napostrophe
ENCODING 329
SWIDTH 505 0
DWIDTH 6 0
BBX 7 9 -1 0
BITMAP
07900000
04800000
03000000
05FBE600
08F2DA00
0BC0F900
0E93F600
2F75F360
5F41DB30
ENDCHAR
STARTCHAR Eng
ENCODING 330
SWIDTH 723 0
DWIDTH 8 0
BBX 9 11 0 -2
BITMAP
01AEC00A60
0D5EF10D20
5B2FF41E00
5A5CF74B00
0488DA7700
00B49DA400
00E15FE100
03D02FC000
06A00D8000
00491D2000
001AA40000
ENDCHAR
STARTCHAR eng
ENCODING 331
SWIDTH 505 0
DWIDTH 6 0
BBX 6 9 -1 -3
BITMAP
05FBE6
08F4E9
0BD0F8
0EA2F5
2F75F2
5F48E0
007DC0
052F80
03CC10
ENDCHAR
STARTCHAR Omacron
ENCODING 332
SWIDTH 665 0
DWIDTH 7 0
BBX 8 11 0 0
BITMAP
000BBB70
00000000
018BBC40
1C5857D0
97AD04F2
C6F705F3
28F207F1
0AE00BC0
0CC02F60
0AE1AC00
03DEA100
ENDCHAR
STARTCHAR omacron
ENCODING 333
SWIDTH 433 0
DWIDTH 5 0
BBX 7 8 -1 0
BITMAP
00ABB700
00000000
009DB000
07F2D350
0EB0E710
2F80D000
2F749000
0ADA1000
ENDCHAR
STARTCHAR Obreve
ENCODING 334
SWIDTH 665 0
DWIDTH 7 0
BBX 8 11 0 0
BITMAP
000760A2
0002BA50
018BBC40
1C5857D0
97AD04F2
C6F705F3
28F207F1
0AE00BC0
0CC02F60
0AE1AC00
03DEA100
ENDCHAR
STARTCHAR obreve
ENCODING 335
SWIDTH 433 0
DWIDTH 5 0
BBX 7 9 -1 0
BITMAP
00B41D10
004A9300
00000000
009DB000
07F2D350
0EB0E710
2F80D000
2F749000
0ADA1000
ENDCHAR
STARTCHAR Ohungarumlaut
ENCODING 336
SWIDTH 665 0
DWIDTH 7 0
BBX 8 12 0 0
BITMAP
00002C6A
000093B1
00001010
018BBC40
1C5857D0
97AD04F2
C6F705F3
28F207F1
0AE00BC0
0CC02F60
0AE1AC00
03DEA100
ENDCHAR
STARTCHAR ohungarumlaut
ENCODING 337
SWIDTH 433 0
DWIDTH 5 0
BBX 7 9 -1 0
BITMAP
000A6D30
00295600
00111000
009DB000
07F2D350
0EB0E710
2F80D000
2F749000
0ADA1000
ENDCHAR
STARTCHAR OE
ENCODING 338
SWIDTH 846 0
DWIDTH 9 0
BBX 10 9 0 0
BITMAP
018CEDDBB8
1C8E28E100
97DA04F200
C7F604F300
29F106FD70
0BE00AC000
0CC01E7000
0AD09E4410
03DDFFFF40
ENDCHAR
STARTCHAR oe
ENCODING 339
SWIDTH 663 0
DWIDTH 7 0
BBX 9 6 -1 0
BITMAP
009DA6EB10
08E1CF7720
0DA1EF1800
1F70CD4010
0F62FC0360
09EA7EC600
ENDCHAR
STARTCHAR Racute
ENCODING 340
SWIDTH 601 0
DWIDTH 7 0
BBX 7 12 0 0
BITMAP
00002E10
00008600
00006000
02ABC800
2C681D50
B5AE0D50
E2DB5C10
62FEF900
04F68E00
07F2AC00
0AE0E900
0DB0D800
ENDCHAR
STARTCHAR racute
ENCODING 341
SWIDTH 376 0
DWIDTH 4 0
BBX 6 9 -1 0
BITMAP
0001E2
000680
000310
05FAE2
08F3B1
0BD000
0EA000
2F7000
5F4000
ENDCHAR
STARTCHAR Rcommaaccent
ENCODING 342
SWIDTH 601 0
DWIDTH 7 0
BBX 7 12 0 -3
BITMAP
02ABC800
2C681D50
B5AE0D50
E2DB5C10
62FEF900
04F68E00
07F2AC00
0AE0E900
0DB0D800
00240000
00490000
00310000
ENDCHAR
STARTCHAR rcommaaccent
ENCODING 343
SWIDTH 376 0
DWIDTH 4 0
BBX 6 9 -1 -3
BITMAP
05FAE2
08F3B1
0BD000
0EA000
2F7000
5F4000
024000
059000
031000
ENDCHAR
STARTCHAR Rcaron
ENCODING 344
SWIDTH 601 0
DWIDTH 7 0
BBX 7 12 0 0
BITMAP
00027670
0000C900
00004000
02ABC800
2C681D50
B5AE0D50
E2DB5C10
62FEF900
04F68E00
07F2AC00
0AE0E900
0DB0D800
ENDCHAR
STARTCHAR rcaron
ENCODING 345
SWIDTH 376 0
DWIDTH 4 0
BBX 6 9 -1 0
BITMAP
006493
003E20
000200
05FAE2
08F3B1
0BD000
0EA000
2F7000
5F4000
ENDCHAR
STARTCHAR Sacute
ENCODING 346
SWIDTH 570 0
DWIDTH 6 0
BBX 6 12 0 0
BITMAP
00005B
0000C2
000000
006DC7
03F51F
04F73A
00DE20
003FD1
1A76F7
8C11F9
8B04F5
1ACD70
ENDCHAR
STARTCHAR sacute
ENCODING 347
SWIDTH 382 0
DWIDTH 4 0
BBX 6 9 -1 0
BITMAP
0000D3
0005A0
001620
009F40
00CF50
067F60
1B3F60
493FB3
1ADA10
ENDCHAR
STARTCHAR Scircumflex
ENCODING 348
SWIDTH 570 0
DWIDTH 6 0
BBX 6 12 0 0
BITMAP
000087
000768
000000
006DC7
03F51F
04F73A
00DE20
003FD1
1A76F7
8C11F9
8B04F5
1ACD70
ENDCHAR
STARTCHAR scircumflex
ENCODING 349
SWIDTH 382 0
DWIDTH 4 0
BBX 6 9 -1 0
BITMAP
000670
006990
003330
009F40
00CF50
067F60
1B3F60
493FB3
1ADA10
ENDCHAR
STARTCHAR Scedilla
ENCODING 350
SWIDTH 570 0
DWIDTH 6 0
BBX 6 12 0 -3
BITMAP
006DC7
03F51F
04F63B
00DE20
003FD1
1A77F6
8C11F9
8B03F6
1BCD80
009600
003F10
03B900
ENDCHAR
STARTCHAR scedilla
ENCODING 351
SWIDTH 382 0
DWIDTH 4 0
BBX 6 10 -1 -3
BITMAP
000100
008F40
00CF40
058F50
1A3F60
5D2F83
146A10
043000
08E400
09C200
ENDCHAR
STARTCHAR Scaron
ENCODING 352
SWIDTH 570 0
DWIDTH 6 0
BBX 7 12 0 0
BITMAP
00018760
0000A500
00000000
006DC700
03F51F00
04F73A00
00DE2000
003FD100
1A76F700
8C11F900
8B04F500
1ACD7000
ENDCHAR
STARTCHAR scaron
ENCODING 353
SWIDTH 369 0
DWIDTH 4 0
BBX 6 9 -1 0
BITMAP
005484
001E40
001510
009F40
00CF50
056F60
1B3F71
484FB2
1BE910
ENDCHAR
STARTCHAR uni0162
ENCODING 354
SWIDTH 481 0
DWIDTH 5 0
BBX 8 12 0 -3
BITMAP
06BED615
790DD9B5
D31F9000
D24F6000
316F3000
009F0000
00CC0000
00F90000
03F60000
00920000
017D0000
05C70000
ENDCHAR
STARTCHAR uni0163
ENCODING 355
SWIDTH 267 0
DWIDTH 3 0
BBX 5 11 -1 -3
BITMAP
00A700
02F600
09FB00
08F100
0BD000
0EA010
1F9720
0CE600
084000
05F100
3BA000
ENDCHAR
STARTCHAR Tcaron
ENCODING 356
SWIDTH 481 0
DWIDTH 5 0
BBX 8 12 0 0
BITMAP
00053840
0001F500
00004000
06BED615
790DD9B5
D31F9000
D24F6000
316F3000
009F0000
00CC0000
00F90000
03F60000
ENDCHAR
STARTCHAR tcaron
ENCODING 357
SWIDTH 267 0
DWIDTH 3 0
BBX 6 9 -1 0
BITMAP
0000A6
009774
02F630
09FB00
08F100
0BD000
0EA010
1F9720
0CE600
ENDCHAR
STARTCHAR Tbar
ENCODING 358
SWIDTH 481 0
DWIDTH 5 0
BBX 8 9 0 0
BITMAP
06BED615
790DC8B5
D31F9000
D23F6000
216F3000
1BDFB900
00CC0000
00E90000
02F60000
ENDCHAR
STARTCHAR tbar
ENCODING 359
SWIDTH 267 0
DWIDTH 3 0
BBX 5 8 -1 0
BITMAP
00A700
02F600
09FB00
1DFA00
0BD000
0EA010
1F9720
0CE500
ENDCHAR
STARTCHAR Utilde
ENCODING 360
SWIDTH 716 0
DWIDTH 8 0
BBX 9 11 0 0
BITMAP
0000AEB700
0001147100
03AE705F30
5A4F408F10
E27F10BC00
E0BC00EA00
20E802F600
02F506F300
04F30AD000
04F65F7000
00BEE80000
ENDCHAR
STARTCHAR utilde
ENCODING 361
SWIDTH 505 0
DWIDTH 6 0
BBX 7 8 -1 0
BITMAP
006DD910
00003100
05F39E00
08F1CB00
0BD0F800
0EA3F510
1F9AF680
0BD6EC20
ENDCHAR
STARTCHAR Umacron
ENCODING 362
SWIDTH 716 0
DWIDTH 8 0
BBX 9 11 0 0
BITMAP
0000ABB700
0000000000
03AE705F30
5A4F408F10
E27F10BC00
E0BC00EA00
20E802F600
02F506F300
04F30AD000
04F65F7000
00BEE80000
ENDCHAR
STARTCHAR umacron
ENCODING 363
SWIDTH 505 0
DWIDTH 6 0
BBX 7 8 -1 0
BITMAP
007BBA00
00000000
05F39E00
08F1CB00
0BD0F800
0EA3F510
1F9AF680
0BD6EC20
ENDCHAR
STARTCHAR Ubreve
ENCODING 364
SWIDTH 716 0
DWIDTH 8 0
BBX 9 12 0 0
BITMAP
0000A31B00
00005B9300
0000000000
03AE705F30
5A4F408F10
E27F10BC00
E0BC00EA00
20E802F600
02F506F300
04F30AD000
04F65F7000
00BEE80000
ENDCHAR
STARTCHAR ubreve
ENCODING 365
SWIDTH 505 0
DWIDTH 6 0
BBX 7 9 -1 0
BITMAP
00A60C20
003A9400
00000000
05F39E00
08F1CB00
0BD0F800
0EA3F510
1F9AF680
0BD6EC20
ENDCHAR
STARTCHAR Uring
ENCODING 366
SWIDTH 716 0
DWIDTH 8 0
BBX 9 12 0 0
BITMAP
0000096000
0000076000
00000A5000
03AE705F30
5A4F408F10
E27F10BC00
E0BC00EA00
20E802F600
02F506F300
04F30AD000
04F65F7000
00BEE80000
ENDCHAR
STARTCHAR uring
ENCODING 367
SWIDTH 505 0
DWIDTH 6 0
BBX 7 8 -1 0
BITMAP
00079000
00078000
05F39E00
08F1CB00
0BD0F800
0EA3F510
1F9AF680
0BD6EC20
ENDCHAR
STARTCHAR Uhungarumlaut
ENCODING 368
SWIDTH 716 0
DWIDTH 8 0
BBX 9 12 0 0
BITMAP
0000096C30
00001A4700
0000111000
03AE705F30
5A4F408F10
E27F10BC00
E0BC00EA00
20E802F600
02F506F300
04F30AD000
04F65F7000
00BEE80000
ENDCHAR
STARTCHAR uhungarumlaut
ENCODING 369
SWIDTH 505 0
DWIDTH 6 0
BBX 7 9 -1 0
BITMAP
00096C30
002A4700
00111000
05F39E00
08F1CB00
0BD0F800
0EA3F510
1F9AF680
0BD6EC20
ENDCHAR
STARTCHAR Uogonek
ENCODING 370
SWIDTH 716 0
DWIDTH 8 0
BBX 9 15 0 -3
BITMAP
00006A0000
00001C0000
0000020000
039E805F30
4B4F408F10
D37F10BC00
F0BC00EA00
40E901F600
02F505F300
04F309E000
04F31E7000
01CDD80000
001A000000
004A110000
001C800000
ENDCHAR
STARTCHAR uogonek
ENCODING 371
SWIDTH 505 0
DWIDTH 6 0
BBX 7 9 -1 -3
BITMAP
05F39E00
08F1CB00
0BD0F800
0EA3F510
1F9AF680
0BD5EE30
0001B100
0004A110
0001C800
ENDCHAR
STARTCHAR Wcircumflex
ENCODING 372
SWIDTH 962 0
DWIDTH 11 0
BBX 12 12 0 0
BITMAP
000000048000
0000003BA000
000000503000
03AE506F3093
4B5F60AF30B0
C43F61EF3380
D23F65CF3820
213F697F3A00
003F796F6700
002FB55FB200
002FE15FC000
002FA05F7000
ENDCHAR
STARTCHAR wcircumflex
ENCODING 373
SWIDTH 661 0
DWIDTH 7 0
BBX 9 9 -1 0
BITMAP
00000B1000
0000AA5000
0003203000
05F39E2C00
08F1CB0910
0BD0F80B00
0EA3F53A00
1F9AF6B300
0BD5DD5000
ENDCHAR
STARTCHAR Ycircumflex
ENCODING 374
SWIDTH 620 0
DWIDTH 7 0
BBX 8 12 0 0
BITMAP
00000570
00005BA0
00005030
03AE7047
4B3FA091
C40DE190
D20AF840
2106FC00
0004F800
0007F500
000AF200
000DE000
ENDCHAR
STARTCHAR ycircumflex
ENCODING 375
SWIDTH 505 0
DWIDTH 6 0
BBX 7 12 -1 -3
BITMAP
0001C100
001A8500
00200200
05F3AE00
08F1DB00
0BD1F800
0EA3F510
1F9AF370
0BEDF910
008EC000
065F8000
04EC1000
ENDCHAR
STARTCHAR Ydieresis
ENCODING 376
SWIDTH 620 0
DWIDTH 7 0
BBX 8 11 0 0
BITMAP
0000A5A5
00001010
03AE7047
4B3FA091
C40DE190
D20AF840
2106FC00
0004F800
0007F500
000AF200
000DE000
ENDCHAR
STARTCHAR Zacute
ENCODING 377
SWIDTH 542 0
DWIDTH 6 0
BBX 6 12 0 0
BITMAP
00003D
000095
000060
0ACCFD
0E16F6
000DE0
005F70
00CE10
04F800
0BF200
3F9096
AFDBC2
ENDCHAR
STARTCHAR zacute
ENCODING 378
SWIDTH 428 0
DWIDTH 5 0
BBX 5 9 0 0
BITMAP
000A60
002C00
002200
2CCF70
479D00
02F600
0AD000
3F6820
BFCB10
ENDCHAR
STARTCHAR Zdotaccent
ENCODING 379
SWIDTH 530 0
DWIDTH 6 0
BBX 6 11 0 0
BITMAP
000870
000110
0ACCFD
0E16F6
000DE0
005F70
00CE10
04F800
0BF200
3F9096
AFDBC2
ENDCHAR
STARTCHAR zdotaccent
ENCODING 380
SWIDTH 428 0
DWIDTH 5 0
BBX 5 8 0 0
BITMAP
007900
000100
2CCF70
479D00
02F600
0AD000
3F6820
BFCB10
ENDCHAR
STARTCHAR Zcaron
ENCODING 381
SWIDTH 542 0
DWIDTH 6 0
BBX 7 12 0 0
BITMAP
00073930
0004E300
00003000
0ACCFD00
0E16F600
000DE000
005F7000
00CE1000
04F80000
0BF20000
3F909600
AFDBC200
ENDCHAR
STARTCHAR zcaron
ENCODING 382
SWIDTH 428 0
DWIDTH 5 0
BBX 6 9 0 0
BITMAP
008481
008B00
001000
2CCF70
479D00
02F600
0AD000
3F6820
BFCB10
ENDCHAR
STARTCHAR longs
ENCODING 383
SWIDTH 267 0
DWIDTH 3 0
BBX 8 12 -3 -3
BITMAP
00004DB1
0000D932
0002F600
000BF300
0007F000
000AC000
000D9000
001F7000
004F4000
07DF1000
37AC0000
1BD40000
ENDCHAR
STARTCHAR uni018F
ENCODING 399
SWIDTH 544 0
DWIDTH 6 0
BBX 6 9 0 0
BITMAP
05DEA1
0B46F9
0100ED
0000DD
018BFC
1D94F7
9C08E2
B91E60
4DC600
ENDCHAR
STARTCHAR florin
ENCODING 402
SWIDTH 267 0
DWIDTH 3 0
BBX 8 12 -3 -3
BITMAP
000008D9
00005F5A
0000CB00
000AFD90
0005F400
0009F000
000DB000
002F7000
006F3000
00AD0000
95E60000
8C900000
ENDCHAR
STARTCHAR Ohorn
ENCODING 416
SWIDTH 665 0
DWIDTH 7 0
BBX 8 11 0 0
BITMAP
00000006
0000001D
018BBB87
1C5857E0
97AD04F2
C6F705F3
28F207F1
0AE00BD0
0CC02F70
0AE1AC10
03DEA100
ENDCHAR
STARTCHAR ohorn
ENCODING 417
SWIDTH 439 0
DWIDTH 5 0
BBX 7 8 -1 0
BITMAP
00000420
00000940
008DBB00
07F3A300
0DC0B400
1F90D100
1F84A000
09DA1000
ENDCHAR
STARTCHAR Uhorn
ENCODING 431
SWIDTH 716 0
DWIDTH 8 0
BBX 10 11 0 0
BITMAP
0000000067
00000000A5
03AE705F90
5A4F408F10
E27F10BD00
E0BC00EA00
20E802F700
02F506F300
04F30AE000
04F65F7000
00BEE80000
ENDCHAR
STARTCHAR uhorn
ENCODING 432
SWIDTH 505 0
DWIDTH 6 0
BBX 7 8 -1 0
BITMAP
000000D0
000002B0
05F39E20
08F1CB00
0BD0F800
0EA3F510
1F9AF680
0BD6EC20
ENDCHAR
STARTCHAR uni01B7
ENCODING 439
SWIDTH 555 0
DWIDTH 6 0
BBX 7 9 0 0
BITMAP
08CBEE10
0C34F500
001E9000
009F2000
005DE200
0005F700
4505F700
B60AE200
5CBC3000
ENDCHAR
STARTCHAR uni01CD
ENCODING 461
SWIDTH 668 0
DWIDTH 7 0
BBX 10 14 0 -2
BITMAP
0000008391
0000006D20
0000002200
000018E700
0000A6F500
000957F200
3BCE7BE000
C6B71EC000
44F21F9000
08D04F6000
0C807F3000
0F609F0000
1F40000000
0420000000
ENDCHAR
STARTCHAR uni01CE
ENCODING 462
SWIDTH 526 0
DWIDTH 6 0
BBX 8 9 -1 0
BITMAP
00045840
0000E500
00002000
009DBF30
07F39F00
0DB0CC00
1F80E910
1F96F871
0AE6BD40
ENDCHAR
STARTCHAR uni01CF
ENCODING 463
SWIDTH 375 0
DWIDTH 4 0
BBX 6 12 0 0
BITMAP
000848
000AB0
000310
03AE40
4DAF10
C5AD00
D2DA00
22F700
04F500
07F200
0AE000
0DB000
ENDCHAR
STARTCHAR uni01D0
ENCODING 464
SWIDTH 267 0
DWIDTH 3 0
BBX 5 9 -1 0
BITMAP
018670
00B800
002000
05F300
08F100
0BD000
0EA010
1F9720
0BE500
ENDCHAR
STARTCHAR uni01D1
ENCODING 465
SWIDTH 665 0
DWIDTH 7 0
BBX 8 12 0 0
BITMAP
00005384
00002F50
00000400
018BBC40
1C5857D0
97AD04F2
C6F705F3
28F207F1
0AE00BC0
0CC02F60
0AE1AC00
03DEA100
ENDCHAR
STARTCHAR uni01D2
ENCODING 466
SWIDTH 433 0
DWIDTH 5 0
BBX 7 9 -1 0
BITMAP
00084800
0009A000
00020000
009DB000
07F2D460
0EA0D710
2F70E000
2F879000
0AEB1000
ENDCHAR
STARTCHAR uni01D3
ENCODING 467
SWIDTH 716 0
DWIDTH 8 0
BBX 9 12 0 0
BITMAP
0000083910
000008C100
0000021000
03AE705F30
5A4F408F10
E27F10BC00
E0BC00EA00
20E802F600
02F506F300
04F30AD000
04F65F7000
00BEE80000
ENDCHAR
STARTCHAR uni01D4
ENCODING 468
SWIDTH 505 0
DWIDTH 6 0
BBX 7 9 -1 0
BITMAP
00084910
0006C100
00011000
05F39E00
08F1CB00
0BD0F800
0EA3F510
1F9AF680
0BD6EC20
ENDCHAR
STARTCHAR uni01D5
ENCODING 469
SWIDTH 716 0
DWIDTH 8 0
BBX 9 12 0 0
BITMAP
00007BBA00
0000A56900
0000100100
03AE705F30
5A4F408F10
E27F10BC00
E0BC00EA00
20E802F600
02F506F300
04F30AD000
04F65F7000
00BEE80000
ENDCHAR
STARTCHAR uni01D6
ENCODING 470
SWIDTH 505 0
DWIDTH 6 0
BBX 7 10 -1 0
BITMAP
003BBB30
00000000
005A6A00
00010100
05F39E00
08F1CB00
0BD0F800
0EA3F510
1F9AF680
0BD6EC20
ENDCHAR
STARTCHAR uni01D7
ENCODING 471
SWIDTH 716 0
DWIDTH 8 0
BBX 9 12 0 0
BITMAP
000002D100
0004C95C30
0000140100
03AE705F30
5A4F408F10
E27F10BC00
E0BC00EA00
20E802F600
02F506F300
04F30AD000
04F65F7000
00BEE80000
ENDCHAR
STARTCHAR uni01D8
ENCODING 472
SWIDTH 505 0
DWIDTH 6 0
BBX 7 11 -1 0
BITMAP
00006A00
0000C100
00000000
005A6A00
00010100
05F39E00
08F1CB00
0BD0F800
0EA3F510
1F9AF680
0BD6EC20
ENDCHAR
STARTCHAR uni01D9
ENCODING 473
SWIDTH 716 0
DWIDTH 8 0
BBX 9 12 0 0
BITMAP
0000054400
0004DB7D30
0000210200
03AE705F30
5A4F408F10
E27F10BC00
E0BC00EA00
20E802F600
02F506F300
04F30AD000
04F65F7000
00BEE80000
ENDCHAR
STARTCHAR uni01DA
ENCODING 474
SWIDTH 505 0
DWIDTH 6 0
BBX 7 11 -1 0
BITMAP
00063830
0002F400
00004000
005A6A00
00010100
05F39E00
08F1CB00
0BD0F800
0EA3F510
1F9AF680
0BD6EC20
ENDCHAR
STARTCHAR uni01DB
ENCODING 475
SWIDTH 716 0
DWIDTH 8 0
BBX 9 12 0 0
BITMAP
00000B6000
0004C68C30
0000111100
03AE705F30
5A4F408F10
E27F10BC00
E0BC00EA00
20E802F600
02F506F300
04F30AD000
04F65F7000
00BEE80000
ENDCHAR
STARTCHAR uni01DC
ENCODING 476
SWIDTH 505 0
DWIDTH 6 0
BBX 7 11 -1 0
BITMAP
000B5000
00077000
00011000
005A6A00
00010100
05F39E00
08F1CB00
0BD0F800
0EA3F510
1F9AF680
0BD6EC20
ENDCHAR
STARTCHAR uni01E4
ENCODING 484
SWIDTH 601 0
DWIDTH 7 0
BBX 7 11 0 -2
BITMAP
008DCA00
0AF30E30
4F801600
9F203700
BE07CE40
AE00D900
7F25F600
1AC9F300
07A6E000
2C1C7000
09C90000
ENDCHAR
STARTCHAR uni01E5
ENCODING 485
SWIDTH 507 0
DWIDTH 6 0
BBX 7 9 -1 -3
BITMAP
009DBF30
07F39F00
0DC0BC00
1F90E900
1F83F660
0AECFA50
003CF300
07CEE500
02BE4000
ENDCHAR
STARTCHAR Gcaron
ENCODING 486
SWIDTH 578 0
DWIDTH 6 0
BBX 7 14 0 -2
BITMAP
00007580
0000BA00
00003000
008DC900
0AF30D30
4F801E10
9F200000
BE003900
AE009B00
7F23F800
1AC9F400
07A6E100
2C1C9000
09C91000
ENDCHAR
STARTCHAR gcaron
ENCODING 487
SWIDTH 507 0
DWIDTH 6 0
BBX 7 12 -1 -3
BITMAP
00045840
0000E500
00002000
009DBF30
07F39F00
0DC0BC00
1F90E900
1F83F660
0AECFA40
004BF200
037CC000
02CD4000
ENDCHAR
STARTCHAR uni01E8
ENCODING 488
SWIDTH 601 0
DWIDTH 7 0
BBX 8 12 0 0
BITMAP
00003784
00000C30
00000000
02AE43D1
3C9F2C30
B5AE6700
E2DDB000
53FDC700
04F58F00
07F2AC00
0AE0E900
0DB0D800
ENDCHAR
STARTCHAR uni01E9
ENCODING 489
SWIDTH 518 0
DWIDTH 6 0
BBX 7 11 -1 0
BITMAP
00009760
00009600
00230000
00EA0000
02F70000
05F47800
08FA9000
0BFBF600
0EA1F810
2F73F780
5F41DE40
ENDCHAR
STARTCHAR uni01EA
ENCODING 490
SWIDTH 665 0
DWIDTH 7 0
BBX 8 15 0 -3
BITMAP
000A7000
00059000
00002000
018BBC40
1C5857D0
97AD04F2
C6F705F3
28F207F1
0AE00BC0
0CC02F60
0BE1AC00
03DEA100
00A00000
01D02000
00AA1000
ENDCHAR
STARTCHAR uni01EB
ENCODING 491
SWIDTH 433 0
DWIDTH 5 0
BBX 7 9 -1 -3
BITMAP
009DB000
07F2D350
0EB0E710
2F80D000
3F749000
0BEA1000
07300000
0D220000
07B20000
ENDCHAR
STARTCHAR uni01EE
ENCODING 494
SWIDTH 525 0
DWIDTH 6 0
BBX 7 12 0 0
BITMAP
00085810
00069000
00000000
08CBEE10
0C34F500
001E9000
009F2000
005DE200
0005F700
4505F700
B60AE200
5CBC3000
ENDCHAR
STARTCHAR uni01EF
ENCODING 495
SWIDTH 600 0
DWIDTH 7 0
BBX 6 12 0 -3
BITMAP
008680
007800
000000
5CDF30
74CA00
06F200
0EA000
0AD052
05F670
2AF600
A8F100
AD7000
ENDCHAR
STARTCHAR uni01F4
ENCODING 500
SWIDTH 578 0
DWIDTH 6 0
BBX 7 14 0 -2
BITMAP
00002E10
00008600
00004000
008DC900
0AF30D30
4F801E10
9F200000
BE004900
AE009B00
7F23F800
1AC9F400
07A6E100
2C1C9000
09C91000
ENDCHAR
STARTCHAR uni01F5
ENCODING 501
SWIDTH 507 0
DWIDTH 6 0
BBX 7 12 -1 -3
BITMAP
00008800
0000D100
00013000
009DBF30
07F39F00
0DC0BC00
1F90E900
1F83F660
0AECFA40
004BF200
037CC000
02CD4000
ENDCHAR
STARTCHAR Aringacute
ENCODING 506
SWIDTH 668 0
DWIDTH 7 0
BBX 9 14 0 -2
BITMAP
0000000A50
0000008A00
000000A800
000019F800
0001A6F500
000957F200
3BCE7BE000
C6B71EB000
44F21F8000
08D04F6000
0C807F3000
0F609F0000
1F40000000
0420000000
ENDCHAR
STARTCHAR aringacute
ENCODING 507
SWIDTH 526 0
DWIDTH 6 0
BBX 8 10 -1 0
BITMAP
00001600
00008400
00045300
0003B100
009DBF30
07F39F00
0DB0CC00
1F80E910
1F96F871
0AE6BD40
ENDCHAR
STARTCHAR AEacute
ENCODING 508
SWIDTH 764 0
DWIDTH 8 0
BBX 10 14 0 -2
BITMAP
00000003C0
0000000930
0000000500
000018E915
0001B7FBB5
000977F300
2ADE5AE000
C7B73EFD60
96F21F9000
08D03F6000
0C906F4000
0F609FCB50
1F40000000
0420000000
ENDCHAR
STARTCHAR aeacute
ENCODING 509
SWIDTH 650 0
DWIDTH 7 0
BBX 9 9 -1 0
BITMAP
000000D200
0000068000
0000031000
008CDADA00
0010EF2D00
04BCFB6900
0EB4FD8000
1F87F70420
0AD8CE9400
ENDCHAR
STARTCHAR Oslashacute
ENCODING 510
SWIDTH 658 0
DWIDTH 7 0
BBX 7 13 0 -1
BITMAP
000006B0
00000C30
00001600
00004500
029BDC20
3C6DCAB0
B5D987E0
88F489D0
0AE36CB0
0CC65F60
0CC8BD10
04EED200
00090000
ENDCHAR
STARTCHAR oslashacute
ENCODING 511
SWIDTH 428 0
DWIDTH 5 0
BBX 6 10 -1 -1
BITMAP
000097
0001D1
000130
007DB8
06F3A4
0DC4E3
1FB8D1
1FD5A0
0DD910
410000
ENDCHAR
STARTCHAR uni0200
ENCODING 512
SWIDTH 668 0
DWIDTH 7 0
BBX 8 14 0 -2
BITMAP
0000C5D1
00002A47
00000101
000018E7
0000A6F5
000957F2
3BCE7BE0
C6B71EC0
44F21F90
08D04F60
0C807F30
0F609F00
1F400000
04200000
ENDCHAR
STARTCHAR uni0201
ENCODING 513
SWIDTH 526 0
DWIDTH 6 0
BBX 8 9 -1 0
BITMAP
00C5D100
00295600
00010100
009DBF30
07F39F00
0DB0CC00
1F80E910
1F96F871
0AE6BD40
ENDCHAR
STARTCHAR uni0202
ENCODING 514
SWIDTH 668 0
DWIDTH 7 0
BBX 9 14 0 -2
BITMAP
000003AC50
00000B13B0
0000000000
000018E700
0000A6F500
000957F200
3BCE7BE000
C6B71EC000
44F21F9000
08D04F6000
0C807F3000
0F609F0000
1F40000000
0420000000
ENDCHAR
STARTCHAR uni0203
ENCODING 515
SWIDTH 526 0
DWIDTH 6 0
BBX 8 8 -1 0
BITMAP
001ABC10
00650830
009DBF30
07F39F00
0DB0CC00
1F80E910
1F96F871
0AE6BD40
ENDCHAR
STARTCHAR uni0204
ENCODING 516
SWIDTH 459 0
DWIDTH 5 0
BBX 6 12 0 0
BITMAP
078A50
00A2A0
001110
006DC2
04F276
08D092
05F200
08E500
7F7000
CF1000
DF1041
5DD820
ENDCHAR
STARTCHAR uni0205
ENCODING 517
SWIDTH 384 0
DWIDTH 4 0
BBX 6 9 -1 0
BITMAP
087B40
00B2A0
001010
008DB0
06F3D0
0DC6A0
1FD900
1F8053
09EC40
ENDCHAR
STARTCHAR uni0206
ENCODING 518
SWIDTH 459 0
DWIDTH 5 0
BBX 7 12 0 0
BITMAP
0019C800
00850B20
00000000
006DC200
04F27600
08D09200
05F20000
08E50000
7F700000
CF100000
DF104100
5DD82000
ENDCHAR
STARTCHAR uni0207
ENCODING 519
SWIDTH 384 0
DWIDTH 4 0
BBX 6 8 -1 0
BITMAP
008BC2
047065
008DB0
06F3D0
0DC6A0
1FD900
1F8033
09E940
ENDCHAR
STARTCHAR uni0208
ENCODING 520
SWIDTH 375 0
DWIDTH 4 0
BBX 5 12 0 0
BITMAP
1D4C00
048750
001010
03AE40
4B8F10
D3AD00
B2DA00
01F700
04F500
07F200
0AE000
0DB000
ENDCHAR
STARTCHAR uni0209
ENCODING 521
SWIDTH 267 0
DWIDTH 3 0
BBX 5 9 -1 0
BITMAP
B5D100
1A4800
010100
05F300
08F100
0BD000
0EA010
1F9720
0BE500
ENDCHAR
STARTCHAR uni020A
ENCODING 522
SWIDTH 375 0
DWIDTH 4 0
BBX 6 12 0 0
BITMAP
007BB1
048095
000000
03AE40
4DAF10
C5AD00
D2DA00
22F700
04F500
07F200
0AE000
0DB000
ENDCHAR
STARTCHAR uni020B
ENCODING 523
SWIDTH 267 0
DWIDTH 3 0
BBX 5 8 -1 0
BITMAP
05BC10
090730
05F300
08F100
0BD000
0EA010
1F9720
0BE500
ENDCHAR
STARTCHAR uni020C
ENCODING 524
SWIDTH 665 0
DWIDTH 7 0
BBX 8 12 0 0
BITMAP
0087C400
000B2A00
00010100
018BBC40
1C5857D0
97AD04F2
C6F705F3
28F207F1
0AE00BC0
0CC02F60
0AE1AC00
03DEA100
ENDCHAR
STARTCHAR uni020D
ENCODING 525
SWIDTH 433 0
DWIDTH 5 0
BBX 7 9 -1 0
BITMAP
097C3000
01B29000
00101000
009DB000
07F2D460
0EA0D710
2F70E000
2F879000
0AEB1000
ENDCHAR
STARTCHAR uni020E
ENCODING 526
SWIDTH 665 0
DWIDTH 7 0
BBX 8 12 0 0
BITMAP
00019C80
000840C2
00000000
018BBC40
1C5857D0
97AD04F2
C6F705F3
28F207F1
0AE00BC0
0CC02F60
0AE1AC00
03DEA100
ENDCHAR
STARTCHAR uni020F
ENCODING 527
SWIDTH 433 0
DWIDTH 5 0
BBX 7 8 -1 0
BITMAP
005BD500
01A03800
009DB000
07F2D350
0EB0E710
2F80D000
2F749000
0ADA1000
ENDCHAR
STARTCHAR uni0210
ENCODING 528
SWIDTH 601 0
DWIDTH 7 0
BBX 7 12 0 0
BITMAP
05A97000
00A3B000
00111000
02ABC800
2C681D50
B5AE0D50
E2DB5C10
62FEF900
04F68E00
07F2AC00
0AE0E900
0DB0D800
ENDCHAR
STARTCHAR uni0211
ENCODING 529
SWIDTH 376 0
DWIDTH 4 0
BBX 6 9 -1 0
BITMAP
2D5C00
057840
001010
05FAE2
08F3B1
0BD000
0EA000
2F7000
5F4000
ENDCHAR
STARTCHAR uni0212
ENCODING 530
SWIDTH 601 0
DWIDTH 7 0
BBX 7 12 0 0
BITMAP
0019C800
00850B20
00000000
02ABC800
2C681D50
B5AE0D50
E2DB5C10
62FEF900
04F68E00
07F2AC00
0AE0E900
0DB0D800
ENDCHAR
STARTCHAR uni0213
ENCODING 531
SWIDTH 376 0
DWIDTH 4 0
BBX 6 8 -1 0
BITMAP
008BC3
038066
05FAE2
08F3B1
0BD000
0EA000
2F7000
5F4000
ENDCHAR
STARTCHAR uni0214
ENCODING 532
SWIDTH 716 0
DWIDTH 8 0
BBX 9 12 0 0
BITMAP
000A6C3000
0001B39000
0000101000
03AE705F30
5A4F408F10
E27F10BC00
E0BC00EA00
20E802F600
02F506F300
04F30AD000
04F65F7000
00BEE80000
ENDCHAR
STARTCHAR uni0215
ENCODING 533
SWIDTH 505 0
DWIDTH 6 0
BBX 7 9 -1 0
BITMAP
079A6000
00A2B000
00111000
05F39E00
08F1CB00
0BD0F800
0EA3F510
1F9AF680
0BD6EC20
ENDCHAR
STARTCHAR uni0216
ENCODING 534
SWIDTH 716 0
DWIDTH 8 0
BBX 9 12 0 0
BITMAP
00004AC400
0001B14A00
0000000000
03AE705F30
5A4F408F10
E27F10BC00
E0BC00EA00
20E802F600
02F506F300
04F30AD000
04F65F7000
00BEE80000
ENDCHAR
STARTCHAR uni0217
ENCODING 535
SWIDTH 505 0
DWIDTH 6 0
BBX 7 8 -1 0
BITMAP
004BC700
00A12A00
05F39E00
08F1CB00
0BD0F800
0EA3F510
1F9AF680
0BD6EC20
ENDCHAR
STARTCHAR Scommaaccent
ENCODING 536
SWIDTH 570 0
DWIDTH 6 0
BBX 6 12 0 -3
BITMAP
006DC7
03F51F
04F73A
00DE20
003FD1
1A76F7
8C11F9
8B04F5
1ACD70
016000
01C000
013000
ENDCHAR
STARTCHAR scommaaccent
ENCODING 537
SWIDTH 382 0
DWIDTH 4 0
BBX 6 10 -1 -3
BITMAP
000100
008F40
00CF50
057F60
1B3F60
493FB3
1ADA10
024000
04A000
031000
ENDCHAR
STARTCHAR uni021A
ENCODING 538
SWIDTH 481 0
DWIDTH 5 0
BBX 8 12 0 -3
BITMAP
06BED615
790DD9B5
D31F9000
D24F6000
316F3000
009F0000
00CC0000
00F90000
03F60000
01600000
01C00000
01300000
ENDCHAR
STARTCHAR uni021B
ENCODING 539
SWIDTH 267 0
DWIDTH 3 0
BBX 5 11 -1 -3
BITMAP
00A700
02F600
09FB00
08F100
0BD000
0EA010
1F9720
0CE600
060000
0C2000
040000
ENDCHAR
STARTCHAR uni021E
ENCODING 542
SWIDTH 665 0
DWIDTH 7 0
BBX 8 12 0 0
BITMAP
00003784
00000C30
00000000
019E51F8
2DDF33F5
A98F06F2
D3BC08E0
62EEDFB0
02F70E90
06F32F60
09F06F30
0CC09F00
ENDCHAR
STARTCHAR uni021F
ENCODING 543
SWIDTH 600 0
DWIDTH 7 0
BBX 8 11 -1 0
BITMAP
00008581
00006800
00230000
00EA0000
02F60000
05FBE600
08F2DA00
0BC0F900
0E93F600
2F75F360
5F41DB30
ENDCHAR
STARTCHAR uni0237
ENCODING 567
SWIDTH 240 0
DWIDTH 3 0
BBX 6 9 -3 -3
BITMAP
0005F4
0008F1
000BD0
000EA0
002F77
005F94
06DF20
29BC00
1BD400
ENDCHAR
STARTCHAR uni0259
ENCODING 601
SWIDTH 404 0
DWIDTH 4 0
BBX 5 6 0 0
BITMAP
3BE900
107F20
08DF30
97AE10
E2E800
BD8000
ENDCHAR
STARTCHAR uni0292
ENCODING 658
SWIDTH 442 0
DWIDTH 5 0
BBX 6 9 0 -3
BITMAP
5CDF30
74CA00
06F200
0EA000
0AD052
05F670
2AF600
A8F100
AD7000
ENDCHAR
STARTCHAR uni02BB
ENCODING 699
SWIDTH 241 0
DWIDTH 3 0
BBX 2 3 1 6
BITMAP
04
78
7A
ENDCHAR
STARTCHAR uni02BC
ENCODING 700
SWIDTH 228 0
DWIDTH 3 0
BBX 2 3 1 6
BITMAP
4C
1B
21
ENDCHAR
STARTCHAR circumflex
ENCODING 710
SWIDTH 293 0
DWIDTH 3 0
BBX 4 2 0 7
BITMAP
04A0
5881
ENDCHAR
STARTCHAR caron
ENCODING 711
SWIDTH 294 0
DWIDTH 3 0
BBX 4 2 1 7
BITMAP
8581
6800
ENDCHAR
STARTCHAR uni02C9
ENCODING 713
SWIDTH 421 0
DWIDTH 5 0
BBX 4 1 1 7
BITMAP
6BBB
ENDCHAR
STARTCHAR uni02CA
ENCODING 714
SWIDTH 256 0
DWIDTH 3 0
BBX 3 2 1 7
BITMAP
1D20
7400
ENDCHAR
STARTCHAR uni02CB
ENCODING 715
SWIDTH 274 0
DWIDTH 3 0
BBX 3 3 1 7
BITMAP
1200
1E00
0920
ENDCHAR
STARTCHAR breve
ENCODING 728
SWIDTH 431 0
DWIDTH 5 0
BBX 5 2 0 6
BITMAP
2C1680
08B810
ENDCHAR
STARTCHAR dotaccent
ENCODING 729
SWIDTH 250 0
DWIDTH 3 0
BBX 3 2 0 7
BITMAP
2C20
3E30
ENDCHAR
STARTCHAR ring
ENCODING 730
SWIDTH 156 0
DWIDTH 2 0
BBX 2 2 0 6
BITMAP
86
85
ENDCHAR
STARTCHAR ogonek
ENCODING 731
SWIDTH 291 0
DWIDTH 3 0
BBX 3 3 0 -3
BITMAP
0600
6710
4C60
ENDCHAR
STARTCHAR tilde
ENCODING 732
SWIDTH 403 0
DWIDTH 4 0
BBX 5 2 0 7
BITMAP
057210
39DD40
ENDCHAR
STARTCHAR hungarumlaut
ENCODING 733
SWIDTH 436 0
DWIDTH 5 0
BBX 4 3 1 7
BITMAP
0212
5A87
A2A0
ENDCHAR
STARTCHAR gravecomb
ENCODING 768
SWIDTH 0 0
DWIDTH 0 0
BBX 2 3 -2 7
BITMAP
20
A5
47
ENDCHAR
STARTCHAR acutecomb
ENCODING 769
SWIDTH 0 0
DWIDTH 0 0
BBX 2 2 -2 7
BITMAP
69
A0
ENDCHAR
STARTCHAR uni0302
ENCODING 770
SWIDTH 0 0
DWIDTH 0 0
BBX 4 2 -3 7
BITMAP
05A0
6781
ENDCHAR
STARTCHAR tildecomb
ENCODING 771
SWIDTH 0 0
DWIDTH 0 0
BBX 5 2 -4 7
BITMAP
175110
6AEA10
ENDCHAR
STARTCHAR uni0304
ENCODING 772
SWIDTH 0 0
DWIDTH 0 0
BBX 5 1 -4 7
BITMAP
2BBB40
ENDCHAR
STARTCHAR uni0306
ENCODING 774
SWIDTH 0 0
DWIDTH 0 0
BBX 5 2 -4 6
BITMAP
690950
1AB600
ENDCHAR
STARTCHAR uni0307
ENCODING 775
SWIDTH 0 0
DWIDTH 0 0
BBX 3 2 -2 7
BITMAP
2C30
2E40
ENDCHAR
STARTCHAR uni0308
ENCODING 776
SWIDTH 0 0
DWIDTH 0 0
BBX 4 2 -3 6
BITMAP
C3C3
1010
ENDCHAR
STARTCHAR hookabovecomb
ENCODING 777
SWIDTH 0 0
DWIDTH 0 0
BBX 3 3 -3 7
BITMAP
4A50
0290
1810
ENDCHAR
STARTCHAR uni030A
ENCODING 778
SWIDTH 0 0
DWIDTH 0 0
BBX 3 2 -2 6
BITMAP
2920
3920
ENDCHAR
STARTCHAR uni030B
ENCODING 779
SWIDTH 0 0
DWIDTH 0 0
BBX 5 3 -4 7
BITMAP
012110
096C30
295700
ENDCHAR
STARTCHAR uni030C
ENCODING 780
SWIDTH 0 0
DWIDTH 0 0
BBX 4 2 -3 7
BITMAP
6582
2C10
ENDCHAR
STARTCHAR uni030F
ENCODING 783
SWIDTH 0 0
DWIDTH 0 0
BBX 5 3 -4 7
BITMAP
212000
4B8700
083A10
ENDCHAR
STARTCHAR uni0311
ENCODING 785
SWIDTH 0 0
DWIDTH 0 0
BBX 5 2 -4 6
BITMAP
19B800
950C20
ENDCHAR
STARTCHAR uni031B
ENCODING 795
SWIDTH 0 0
DWIDTH 0 0
BBX 3 3 -2 5
BITMAP
0930
0B10
2400
ENDCHAR
STARTCHAR dotbelowcomb
ENCODING 803
SWIDTH 0 0
DWIDTH 0 0
BBX 2 2 -2 -3
BITMAP
A7
C8
ENDCHAR
STARTCHAR uni0324
ENCODING 804
SWIDTH 0 0
DWIDTH 0 0
BBX 4 2 -5 -3
BITMAP
A6A5
1010
ENDCHAR
STARTCHAR uni0326
ENCODING 806
SWIDTH 0 0
DWIDTH 0 0
BBX 2 2 -3 -3
BITMAP
77
54
ENDCHAR
STARTCHAR uni0327
ENCODING 807
SWIDTH 0 0
DWIDTH 0 0
BBX 3 3 -4 -3
BITMAP
1600
5C50
6920
ENDCHAR
STARTCHAR uni0328
ENCODING 808
SWIDTH 0 0
DWIDTH 0 0
BBX 3 3 -4 -3
BITMAP
3300
D110
9B20
ENDCHAR
STARTCHAR uni032E
ENCODING 814
SWIDTH 0 0
DWIDTH 0 0
BBX 4 2 -5 -2
BITMAP
5225
3981
ENDCHAR
STARTCHAR uni0331
ENCODING 817
SWIDTH 0 0
DWIDTH 0 0
BBX 4 1 -5 -2
BITMAP
BBB6
ENDCHAR
STARTCHAR uni0335
ENCODING 821
SWIDTH 0 0
DWIDTH 0 0
BBX 5 1 -5 3
BITMAP
199940
ENDCHAR
STARTCHAR uni0394
ENCODING 916
SWIDTH 619 0
DWIDTH 7 0
BBX 7 9 0 0
BITMAP
00006500
0003EB00
000B7D00
004A2F00
00C20E30
06900D50
1D100A70
87000890
CDDDDEA0
ENDCHAR
STARTCHAR uni03A9
ENCODING 937
SWIDTH 745 0
DWIDTH 8 0
BBX 8 9 0 0
BITMAP
0006DE90
009911C6
05A0005A
0B30005A
0E000078
0E0000C2
0B200590
04903A10
8DE0BDD1
ENDCHAR
STARTCHAR uni03BC
ENCODING 956
SWIDTH 505 0
DWIDTH 6 0
BBX 7 8 -1 -2
BITMAP
02824700
07F2BD00
0AE0E900
0DB3F600
1F98F470
5FE6DC30
8F100000
87000000
ENDCHAR
STARTCHAR pi
ENCODING 960
SWIDTH 530 0
DWIDTH 6 0
BBX 7 6 -1 0
BITMAP
1DEDDEA0
03A06700
0670A400
0940D100
0C11D000
0A00A200
ENDCHAR
STARTCHAR uni0400
ENCODING 1024
SWIDTH 459 0
DWIDTH 5 0
BBX 6 13 0 0
BITMAP
000200
000D20
000740
000000
006DC2
04F276
08D092
05F200
08E500
7F7000
CF1000
DF1041
5DD820
ENDCHAR
STARTCHAR uni0401
ENCODING 1025
SWIDTH 459 0
DWIDTH 5 0
BBX 6 11 0 0
BITMAP
004B5B
000101
006DC2
04F276
08D092
05F200
08E500
7F7000
CF1000
DF1041
5DD820
ENDCHAR
STARTCHAR uni0402
ENCODING 1026
SWIDTH 725 0
DWIDTH 8 0
BBX 8 11 0 -2
BITMAP
05ADFBB8
5A0CC000
B40EA000
D22F8000
625FBCA0
008F26F3
00BE07F1
00EA0AD0
02F70E80
00007E10
000AB300
ENDCHAR
STARTCHAR uni0403
ENCODING 1027
SWIDTH 400 0
DWIDTH 4 0
BBX 7 12 0 0
BITMAP
00000960
00002900
00000000
068EAB80
878F1000
D4AD0000
84DA0000
01F80000
04F50000
06F20000
09E00000
0CC00000
ENDCHAR
STARTCHAR uni0404
ENCODING 1028
SWIDTH 497 0
DWIDTH 5 0
BBX 6 9 0 0
BITMAP
008DC7
07F31C
1F9024
6FCB40
9F2000
BF1000
BF1001
9F5025
2BE950
ENDCHAR
STARTCHAR uni0405
ENCODING 1029
SWIDTH 570 0
DWIDTH 6 0
BBX 6 9 0 0
BITMAP
006DC7
03F51F
04F73A
00DE20
003FD1
1A76F7
8C11F9
8B04F5
1ACD70
ENDCHAR
STARTCHAR uni0406
ENCODING 1030
SWIDTH 374 0
DWIDTH 4 0
BBX 5 9 0 0
BITMAP
02AE50
3D9F20
B69E00
C3CB00
11F800
03F600
06F300
09E000
0CC000
ENDCHAR
STARTCHAR uni0407
ENCODING 1031
SWIDTH 375 0
DWIDTH 4 0
BBX 6 11 0 0
BITMAP
00B4B4
001010
03AE40
4DAF10
C5AD00
D2DA00
22F700
04F500
07F200
0AE000
0DB000
ENDCHAR
STARTCHAR uni0408
ENCODING 1032
SWIDTH 536 0
DWIDTH 6 0
BBX 7 11 0 -2
BITMAP
0003AE40
003B9F10
00C4BD00
00D2EA00
0023F700
0006F300
0009F100
000CC000
4B6F9000
B46F3000
5CB50000
ENDCHAR
STARTCHAR uni0409
ENCODING 1033
SWIDTH 817 0
DWIDTH 9 0
BBX 10 10 -1 -1
BITMAP
00002BE400
0001B9F200
000B4AE000
006B0DB000
00D41FDBA1
06D04F61F7
0C807F20E8
2F40AE03F4
4F10DB9D80
2D10000000
ENDCHAR
STARTCHAR uni040A
ENCODING 1034
SWIDTH 931 0
DWIDTH 10 0
BBX 10 9 0 0
BITMAP
019E51F800
2C9F33F600
A69F06F300
D3CD08F000
52FEBEEBC3
03F60EA0CB
06F32F60BC
09F06F30E8
0CC09F7CA1
ENDCHAR
STARTCHAR uni040B
ENCODING 1035
SWIDTH 745 0
DWIDTH 8 0
BBX 8 9 0 0
BITMAP
07BDFBB8
890CB000
D30E8000
622FBC90
005F36F2
008F06F2
00BC09F0
00EA0BD0
02F709D0
ENDCHAR
STARTCHAR uni040C
ENCODING 1036
SWIDTH 635 0
DWIDTH 7 0
BBX 8 12 0 0
BITMAP
00000960
00002900
00000000
02AE56E5
2C8F5CA4
A69FA200
D3CE8000
42FDB800
03F67F00
06F39D00
09F0DA00
0CC0D900
ENDCHAR
STARTCHAR uni040D
ENCODING 1037
SWIDTH 705 0
DWIDTH 8 0
BBX 8 13 0 0
BITMAP
00001100
00006900
00001A00
00000000
02AE50CF
3D9F24FC
B69E0CF9
C3CB5CF6
11F8C7F3
03FB89F0
06FE1CC0
09F70E90
0CE13F60
ENDCHAR
STARTCHAR uni040E
ENCODING 1038
SWIDTH 644 0
DWIDTH 7 0
BBX 8 12 0 0
BITMAP
00001001
0000E546
00008B70
029E801A
3C2FB074
B50CE0B0
C308F680
1104FE20
0001FB00
0000C500
0056A000
008E4000
ENDCHAR
STARTCHAR uni040F
ENCODING 1039
SWIDTH 665 0
DWIDTH 7 0
BBX 8 13 0 -4
BITMAP
02AE51F8
3DAF24F5
B69E07F2
C3CB0AE0
11F80CB0
03F51F90
06F23F60
09E06F30
0CFDEF00
00450000
009C0000
004F2000
00090000
ENDCHAR
STARTCHAR uni0410
ENCODING 1040
SWIDTH 668 0
DWIDTH 7 0
BBX 8 11 0 -2
BITMAP
000018E7
0000A6F5
000957F2
3BCE7BE0
C6B71EC0
44F21F90
08D04F60
0C807F30
0F609F00
1F400000
04200000
ENDCHAR
STARTCHAR uni0411
ENCODING 1041
SWIDTH 638 0
DWIDTH 7 0
BBX 7 9 0 0
BITMAP
049FAB80
65AE0000
C2DC0000
E2FA0000
65FCC900
06F43F60
09F11F70
0CD04F20
0E9AD600
ENDCHAR
STARTCHAR uni0412
ENCODING 1042
SWIDTH 641 0
DWIDTH 7 0
BBX 7 9 0 0
BITMAP
03ABCB10
4C6A1B60
C49D2D20
83CEEC20
00F72F80
03F50D90
06F20E70
09E13F30
0CC9D700
ENDCHAR
STARTCHAR uni0413
ENCODING 1043
SWIDTH 400 0
DWIDTH 4 0
BBX 7 9 0 0
BITMAP
068EAB80
878F1000
D4AD0000
84DA0000
01F80000
04F50000
06F20000
09E00000
0CC00000
ENDCHAR
STARTCHAR uni0414
ENCODING 1044
SWIDTH 669 0
DWIDTH 7 0
BBX 9 9 -1 0
BITMAP
003ABCB100
04D692BB00
0B59F06F10
0B3DC06F20
001F907F10
004F60AD00
09DF30E800
37AF07E200
1BE8AD4000
ENDCHAR
STARTCHAR uni0415
ENCODING 1045
SWIDTH 459 0
DWIDTH 5 0
BBX 6 9 0 0
BITMAP
006DC2
04F276
08D092
05F200
08E500
7F7000
CF1000
DF1041
5DD820
ENDCHAR
STARTCHAR uni0416
ENCODING 1046
SWIDTH 777 0
DWIDTH 9 0
BBX 10 9 -1 0
BITMAP
00BC16C1BD
00AB5CB99B
00038F9B00
0002BFB500
008EDFCE60
03F59F0DA0
07F0CC0E70
0AC0F94F40
2E73F64F40
ENDCHAR
STARTCHAR uni0417
ENCODING 1047
SWIDTH 525 0
DWIDTH 6 0
BBX 7 9 -1 0
BITMAP
003ADC10
00604F60
00009E20
002DF500
0000CE10
00009F30
0A30BF10
1F12FA00
08BC9100
ENDCHAR
STARTCHAR uni0418
ENCODING 1048
SWIDTH 705 0
DWIDTH 8 0
BBX 8 9 0 0
BITMAP
02AE50CF
3D9F24FC
B69E0CF9
C3CB5CF6
11F8C7F3
03FB89F0
06FE1CC0
09F70E90
0CE13F60
ENDCHAR
STARTCHAR uni0419
ENCODING 1049
SWIDTH 705 0
DWIDTH 8 0
BBX 8 12 0 0
BITMAP
00001001
0001F364
0000AB60
02AE50CF
3D9F24FC
B69E0CF9
C3CB5CF6
11F8C7F3
03FB89F0
06FE1CC0
09F70E90
0CE13F60
ENDCHAR
STARTCHAR uni041A
ENCODING 1050
SWIDTH 635 0
DWIDTH 7 0
BBX 8 9 0 0
BITMAP
02AE56E5
2C8F5CA4
A69FA200
D3CE8000
42FDB800
03F67F00
06F39D00
09F0DA00
0CC0D900
ENDCHAR
STARTCHAR uni041B
ENCODING 1051
SWIDTH 549 0
DWIDTH 6 0
BBX 8 11 -1 -2
BITMAP
00001AE4
0001B9F1
00094AE0
004C0DB0
00C51F80
04E04F50
0AA07F20
1F50AE00
3F20DB00
4F000000
06100000
ENDCHAR
STARTCHAR uni041C
ENCODING 1052
SWIDTH 787 0
DWIDTH 9 0
BBX 9 9 0 0
BITMAP
006DF10EC0
089BF14FA0
2E1EF0AF80
2C5EE1EF60
01ABE6BF40
01B9DC8F20
067AEA9F00
0B2BF5BD00
1B0BE0CB00
ENDCHAR
STARTCHAR uni041D
ENCODING 1053
SWIDTH 665 0
DWIDTH 7 0
BBX 8 9 0 0
BITMAP
019E51F8
2DDF33F5
A98F06F2
D3BC08E0
62EEDFB0
02F70E90
06F32F60
09F06F30
0CC09F00
ENDCHAR
STARTCHAR uni041E
ENCODING 1054
SWIDTH 665 0
DWIDTH 7 0
BBX 8 9 0 0
BITMAP
018BBC40
1C5857D0
97AD04F2
C6F705F3
28F207F1
0AE00BC0
0CC02F60
0AE1AC00
03DEA100
ENDCHAR
STARTCHAR uni041F
ENCODING 1055
SWIDTH 688 0
DWIDTH 8 0
BBX 9 9 0 0
BITMAP
05CED71040
5FCFACFC30
C68F15F300
C3BC08F000
32E90CC000
03F60E9000
06F33F6000
09F06F3000
0CC09F0000
ENDCHAR
STARTCHAR uni0420
ENCODING 1056
SWIDTH 573 0
DWIDTH 6 0
BBX 7 9 0 0
BITMAP
02ABC800
3C691D50
C5AE0B70
D2DB0E40
32F88A00
04FA6000
07F20000
0AE00000
0DB00000
ENDCHAR
STARTCHAR uni0421
ENCODING 1057
SWIDTH 497 0
DWIDTH 5 0
BBX 6 9 0 0
BITMAP
008EC6
07F51D
1FC049
6F7000
9F3000
BF1000
BF1000
9F4025
2BEA60
ENDCHAR
STARTCHAR uni0422
ENCODING 1058
SWIDTH 481 0
DWIDTH 5 0
BBX 8 9 0 0
BITMAP
06BED615
790DD9B5
D31F9000
D24F6000
316F3000
009F0000
00CC0000
00F90000
03F60000
ENDCHAR
STARTCHAR uni0423
ENCODING 1059
SWIDTH 644 0
DWIDTH 7 0
BBX 8 9 0 0
BITMAP
029E801A
3C2FB074
B50CE0B0
C308F680
1104FE20
0001FB00
0000C500
0056A000
008E4000
ENDCHAR
STARTCHAR uni0424
ENCODING 1060
SWIDTH 786 0
DWIDTH 9 0
BBX 9 10 0 0
BITMAP
018BCB0000
0990BD0000
0333EC3000
05DBF9B900
5F54F43F30
BD07F13F40
BC0BD07F10
8E2EA3E800
18CFDB6000
004F400000
ENDCHAR
STARTCHAR uni0425
ENCODING 1061
SWIDTH 620 0
DWIDTH 7 0
BBX 7 9 0 0
BITMAP
03AE7290
4B3FA920
C40EE800
D20BF200
2108F300
000BF600
003AF900
00A1EC00
0460CE00
ENDCHAR
STARTCHAR uni0426
ENCODING 1062
SWIDTH 692 0
DWIDTH 8 0
BBX 8 12 0 -3
BITMAP
02AE51F8
3C8F24F5
B59E07F2
C3CB0AE0
11F80DC0
03F61F90
06F33F60
09F06F30
0CFBCF00
0016EE43
00003DF9
00000140
ENDCHAR
STARTCHAR uni0427
ENCODING 1063
SWIDTH 695 0
DWIDTH 8 0
BBX 8 9 0 0
BITMAP
019E50BD
2C9F20DA
A6AF01F7
D3BC04F4
626D06F1
00000BE0
00000EB0
00002F80
00004F50
ENDCHAR
STARTCHAR uni0428
ENCODING 1064
SWIDTH 906 0
DWIDTH 10 0
BBX 11 9 0 0
BITMAP
02AE56F36F30
3DAF29F09F00
B69E0CC0CC00
C3CB0E90F900
11F82F63F600
03F55F36F300
06F28F19F000
09E0BD0CC000
0CFDFEDF9000
ENDCHAR
STARTCHAR uni0429
ENCODING 1065
SWIDTH 934 0
DWIDTH 10 0
BBX 11 12 0 -3
BITMAP
02AE56F36F30
3B8F29F09F00
B59E0CC0CC00
C3CB0E90E900
11F82F63F600
03F55F36F400
06F38F18F100
09E0BD0BD000
0CFCFC3EA000
00139EFFA320
0000017DFF40
000000003300
ENDCHAR
STARTCHAR uni042A
ENCODING 1066
SWIDTH 714 0
DWIDTH 8 0
BBX 8 9 0 0
BITMAP
039DF200
380AF000
A30DC000
D41FA000
764FCCA0
006F44F5
009F11F6
00CC05F2
00F9AD60
ENDCHAR
STARTCHAR uni042B
ENCODING 1067
SWIDTH 909 0
DWIDTH 10 0
BBX 11 9 0 0
BITMAP
02AE50005F30
2C8F30008F10
A69F0000BC00
D3CC0000E900
52FDBA12F700
03F61F85F400
06F30E98F100
09F12F5BD000
0CC8D80EA000
ENDCHAR
STARTCHAR uni042C
ENCODING 1068
SWIDTH 640 0
DWIDTH 7 0
BBX 7 9 0 0
BITMAP
02AE5000
2C8F3000
A69F0000
D3CC0000
52FDBA10
03F61F80
06F30E90
09F12F50
0CC8D800
ENDCHAR
STARTCHAR uni042D
ENCODING 1069
SWIDTH 544 0
DWIDTH 6 0
BBX 7 9 -1 0
BITMAP
0049DC20
02402FA0
00000ED0
003BBFD0
00003FB0
00007F70
0C20BF10
1E04F700
099C7000
ENDCHAR
STARTCHAR uni042E
ENCODING 1070
SWIDTH 946 0
DWIDTH 10 0
BBX 11 9 0 0
BITMAP
019E509BD500
2C8F32857E10
A69F06E13F40
D3CC0E903F40
63FEEF405F20
03F78F109E00
06F3AE01E800
09F09F19D100
0CC03DDA2000
ENDCHAR
STARTCHAR uni042F
ENCODING 1071
SWIDTH 630 0
DWIDTH 7 0
BBX 9 9 -1 0
BITMAP
0006CBBA10
006D288980
00B61F9650
008A4F6000
007FEF3000
03F69F0000
07E0CC0000
0AC0F90000
2E63F60000
ENDCHAR
STARTCHAR uni0430
ENCODING 1072
SWIDTH 526 0
DWIDTH 6 0
BBX 8 6 -1 0
BITMAP
009DBF30
07F39F00
0DB0CC00
1F80E910
1F96F871
0AE6BD40
ENDCHAR
STARTCHAR uni0431
ENCODING 1073
SWIDTH 430 0
DWIDTH 5 0
BBX 8 9 -1 0
BITMAP
002CDDD1
002FFF80
00075000
007CD000
07F3A300
0EC0B300
1F80D100
1F73A000
08DA1000
ENDCHAR
STARTCHAR uni0432
ENCODING 1074
SWIDTH 449 0
DWIDTH 5 0
BBX 7 9 -1 0
BITMAP
001BC200
008B4600
01E55600
06F18300
0BD0A010
0EA7D970
2F80B400
1F81D100
08EB4000
ENDCHAR
STARTCHAR uni0433
ENCODING 1075
SWIDTH 375 0
DWIDTH 4 0
BBX 6 6 -1 0
BITMAP
03AE60
080EB0
01AF60
0CE501
3F8052
1CE930
ENDCHAR
STARTCHAR uni0434
ENCODING 1076
SWIDTH 507 0
DWIDTH 6 0
BBX 7 9 -1 -3
BITMAP
009DBF30
07F39F00
0DC0BC00
1F90E900
1F83F660
0AECFA40
004BF200
037CC000
02CD4000
ENDCHAR
STARTCHAR uni0435
ENCODING 1077
SWIDTH 384 0
DWIDTH 4 0
BBX 6 6 -1 0
BITMAP
008DB0
06F3D0
0DC6A0
1FD900
1F8033
09E940
ENDCHAR
STARTCHAR uni0436
ENCODING 1078
SWIDTH 882 0
DWIDTH 10 0
BBX 11 6 -1 0
BITMAP
06CC19D1BD50
050E6CA8C340
000ECFDF7000
132F5F5F5020
586B6F2F5060
2CB28E08D810
ENDCHAR
STARTCHAR uni0437
ENCODING 1079
SWIDTH 498 0
DWIDTH 5 0
BBX 6 9 0 -3
BITMAP
06CD30
450F90
701F90
607E21
09F507
00CC73
06DE10
46DA00
3CC200
ENDCHAR
STARTCHAR uni0438
ENCODING 1080
SWIDTH 505 0
DWIDTH 6 0
BBX 7 6 -1 0
BITMAP
05F39E00
08F1CB00
0BD0F800
0EA3F510
1F9AF680
0BD6EC20
ENDCHAR
STARTCHAR uni0439
ENCODING 1081
SWIDTH 505 0
DWIDTH 6 0
BBX 7 9 -1 0
BITMAP
00010100
008A1900
004BA200
05F39E00
08F1CB00
0BD0F800
0EA3F510
1F9AF680
0BD6EC20
ENDCHAR
STARTCHAR uni043A
ENCODING 1082
SWIDTH 501 0
DWIDTH 6 0
BBX 7 6 -1 0
BITMAP
05F46E20
08F73100
0BFFE200
0EB5F410
2F75F570
5F42DD20
ENDCHAR
STARTCHAR uni043B
ENCODING 1083
SWIDTH 558 0
DWIDTH 6 0
BBX 8 6 -1 0
BITMAP
0003CF80
00093F50
00095F20
00278E00
4A63BC15
3BA07E80
ENDCHAR
STARTCHAR uni043C
ENCODING 1084
SWIDTH 827 0
DWIDTH 9 0
BBX 11 6 -1 0
BITMAP
0003D806F700
0009C90DF400
0008B95CF100
0126AAA9D020
5B639E7BC540
2BA08E17E800
ENDCHAR
STARTCHAR uni043D
ENCODING 1085
SWIDTH 507 0
DWIDTH 6 0
BBX 7 6 -1 0
BITMAP
05F38E00
08F0BC00
0BEBF900
0E92F610
2F74F460
5F41DB20
ENDCHAR
STARTCHAR uni043E
ENCODING 1086
SWIDTH 439 0
DWIDTH 5 0
BBX 8 6 -1 0
BITMAP
008DB000
06F3C451
0DC0D810
1F90D100
2F83A000
09EA1000
ENDCHAR
STARTCHAR uni043F
ENCODING 1087
SWIDTH 505 0
DWIDTH 6 0
BBX 7 6 -1 0
BITMAP
05FBE600
08F2DA00
0BC0F900
0E93F600
2F75F360
5F41DB30
ENDCHAR
STARTCHAR uni0440
ENCODING 1088
SWIDTH 468 0
DWIDTH 5 0
BBX 6 10 -1 -3
BITMAP
028300
05FBE7
08F1AD
0BD0BC
0EA0EA
2F76F4
5FDE70
8F1000
BD0000
A60000
ENDCHAR
STARTCHAR uni0441
ENCODING 1089
SWIDTH 384 0
DWIDTH 4 0
BBX 6 6 -1 0
BITMAP
008DB0
06F3C0
0DC000
1F9000
1F8043
09E940
ENDCHAR
STARTCHAR uni0442
ENCODING 1090
SWIDTH 752 0
DWIDTH 8 0
BBX 10 6 -1 0
BITMAP
05FBE9AE30
08F2EC2F60
0BC1F84F50
0E94F57F20
2F76F29E06
5F49F04E91
ENDCHAR
STARTCHAR uni0443
ENCODING 1091
SWIDTH 486 0
DWIDTH 5 0
BBX 7 9 -1 -3
BITMAP
05F3AE00
08F1DB00
0BD1F800
0EA3F510
1F9AF370
0BEDF910
008EC000
065F8000
04EC1000
ENDCHAR
STARTCHAR uni0444
ENCODING 1092
SWIDTH 738 0
DWIDTH 8 0
BBX 9 12 -1 -3
BITMAP
0000022000
00000F7000
00003F4000
008DBFAE40
06F39D0D90
0DC0CA0E90
1F80E71F70
2F84F46F20
0ADBFCD500
0009D00000
000CA00000
000B400000
ENDCHAR
STARTCHAR uni0445
ENCODING 1093
SWIDTH 522 0
DWIDTH 6 0
BBX 7 6 0 0
BITMAP
06E67400
34BC8500
609F9000
709F0000
06AF2610
480CB400
ENDCHAR
STARTCHAR uni0446
ENCODING 1094
SWIDTH 535 0
DWIDTH 6 0
BBX 7 9 -1 -3
BITMAP
05F39E00
08F1CB00
0BD0F800
0EA3F500
1F9AF500
0BD5ED20
00000900
007EF900
00A97100
ENDCHAR
STARTCHAR uni0447
ENCODING 1095
SWIDTH 505 0
DWIDTH 6 0
BBX 6 6 0 0
BITMAP
5F3AE0
8F1DB0
AE5F80
6EBF53
005F78
002EC2
ENDCHAR
STARTCHAR uni0448
ENCODING 1096
SWIDTH 752 0
DWIDTH 8 0
BBX 10 6 -1 0
BITMAP
05F39E0EA0
08F1CB2F70
0BD0F85F40
0EA3F57F11
1F9AF6DF36
0BD6EC6EA0
ENDCHAR
STARTCHAR uni0449
ENCODING 1097
SWIDTH 782 0
DWIDTH 9 0
BBX 9 9 -1 -3
BITMAP
05F39E0EA0
08F1CB2F70
0BD0F85F40
0EA3F57F10
1F9AF6DF20
0BD6EC6EB0
0000000180
00001CFF50
0000699600
ENDCHAR
STARTCHAR uni044A
ENCODING 1098
SWIDTH 448 0
DWIDTH 5 0
BBX 5 6 0 0
BITMAP
9CD000
DA7000
5FBC20
DB0F70
F84F30
9DC500
ENDCHAR
STARTCHAR uni044B
ENCODING 1099
SWIDTH 655 0
DWIDTH 7 0
BBX 8 6 0 0
BITMAP
5F200990
8E01BF60
BB8C5F30
E90E7F01
F76B9E46
9FC26EA0
ENDCHAR
STARTCHAR uni044C
ENCODING 1100
SWIDTH 448 0
DWIDTH 5 0
BBX 5 6 0 0
BITMAP
5F4000
8F4300
BEBF40
EA0F70
F86F20
9ED500
ENDCHAR
STARTCHAR uni044D
ENCODING 1101
SWIDTH 413 0
DWIDTH 5 0
BBX 6 6 -1 0
BITMAP
04AE80
0409F1
00BEF1
220CC0
863F50
4BB600
ENDCHAR
STARTCHAR uni044E
ENCODING 1102
SWIDTH 675 0
DWIDTH 7 0
BBX 10 6 -1 0
BITMAP
05F33CC700
08F1DC4D65
0BECF63D30
0E98F35A00
2F67F2A400
5F42CC7000
ENDCHAR
STARTCHAR uni044F
ENCODING 1103
SWIDTH 527 0
DWIDTH 6 0
BBX 8 6 -1 0
BITMAP
006CCF30
02F47F00
03F3AC00
00ADEA00
4A75F751
3CA0CD50
ENDCHAR
STARTCHAR uni0450
ENCODING 1104
SWIDTH 384 0
DWIDTH 4 0
BBX 6 10 -1 0
BITMAP
001200
001E00
000A10
000000
008DB0
06F3D0
0DC6A0
1FD900
1F8033
09E940
ENDCHAR
STARTCHAR uni0451
ENCODING 1105
SWIDTH 384 0
DWIDTH 4 0
BBX 6 8 -1 0
BITMAP
007887
001111
008DB0
06F3D0
0DC6A0
1FD900
1F8033
09E940
ENDCHAR
STARTCHAR uni0452
ENCODING 1106
SWIDTH 491 0
DWIDTH 5 0
BBX 7 12 -1 -3
BITMAP
00560000
00F90000
0AFD9000
06F30000
08FAC400
0BE1F800
0EA2F610
2F75F370
5F48F810
008EB000
065E7000
03CC1000
ENDCHAR
STARTCHAR uni0453
ENCODING 1107
SWIDTH 375 0
DWIDTH 4 0
BBX 6 9 -1 0
BITMAP
0000D2
000650
000000
03AE60
080EB0
01AF60
0CE501
3F8052
1CE930
ENDCHAR
STARTCHAR uni0454
ENCODING 1108
SWIDTH 384 0
DWIDTH 4 0
BBX 6 6 -1 0
BITMAP
008DC0
06E280
0DEB00
1F8001
1F8052
09E930
ENDCHAR
STARTCHAR uni0455
ENCODING 1109
SWIDTH 382 0
DWIDTH 4 0
BBX 6 7 -1 0
BITMAP
000100
008F40
00CF50
057F60
1B3F60
493FB3
1ADA10
ENDCHAR
STARTCHAR uni0456
ENCODING 1110
SWIDTH 267 0
DWIDTH 3 0
BBX 5 8 -1 0
BITMAP
00C800
00A700
05F300
08F100
0BD000
0EA010
1F9720
0BE500
ENDCHAR
STARTCHAR uni0457
ENCODING 1111
SWIDTH 267 0
DWIDTH 3 0
BBX 5 8 -1 0
BITMAP
0A5A50
010100
05F300
08F100
0BD000
0EA010
1F9720
0BE500
ENDCHAR
STARTCHAR uni0458
ENCODING 1112
SWIDTH 240 0
DWIDTH 3 0
BBX 6 11 -3 -3
BITMAP
0000D7
0000B5
0005F4
0008F1
000BD0
000EA0
002F77
005F94
06DF20
29BC00
1BD400
ENDCHAR
STARTCHAR uni0459
ENCODING 1113
SWIDTH 745 0
DWIDTH 8 0
BBX 9 6 -1 0
BITMAP
0003CF8000
000A4F7300
000A6FCF80
00379E0BB0
5B74AC1E60
3CA05EC800
ENDCHAR
STARTCHAR uni045A
ENCODING 1114
SWIDTH 694 0
DWIDTH 8 0
BBX 9 6 -1 0
BITMAP
05F38E0000
08F0BD7400
0BEBFBAF10
0E92F55F20
2F73F49C00
5F40BDB200
ENDCHAR
STARTCHAR uni045B
ENCODING 1115
SWIDTH 505 0
DWIDTH 6 0
BBX 7 9 -1 0
BITMAP
00560000
00F90000
0AFD9000
06F30000
08FAC300
0BE1F800
0EA2F600
2F74F360
5F42DB30
ENDCHAR
STARTCHAR uni045C
ENCODING 1116
SWIDTH 501 0
DWIDTH 6 0
BBX 7 9 -1 0
BITMAP
00007900
0001A000
00000000
05F46E20
08F73100
0BFFE200
0EB5F410
2F75F570
5F42DD20
ENDCHAR
STARTCHAR uni045D
ENCODING 1117
SWIDTH 505 0
DWIDTH 6 0
BBX 7 10 -1 0
BITMAP
00020000
000D2000
00074000
00000000
05F39E00
08F1CB00
0BD0F800
0EA3F510
1F9AF680
0BD6EC20
ENDCHAR
STARTCHAR uni045E
ENCODING 1118
SWIDTH 486 0
DWIDTH 5 0
BBX 7 12 -1 -3
BITMAP
00010100
008A1900
004BA200
05F3AE00
08F1DB00
0BD1F800
0EA3F510
1F9AF370
0BEDF910
008EC000
065F8000
04EC1000
ENDCHAR
STARTCHAR uni045F
ENCODING 1119
SWIDTH 505 0
DWIDTH 6 0
BBX 7 9 -1 -3
BITMAP
05F39E00
08F1CB00
0BD0F800
0EA3F510
1F9AF680
0BD6EC20
00190000
004F2000
00080000
ENDCHAR
STARTCHAR uni0462
ENCODING 1122
SWIDTH 659 0
DWIDTH 7 0
BBX 7 9 0 0
BITMAP
006F3000
2AEF5040
B5DCAC50
E3F90000
85FCBA10
06F42F60
09F10F70
0CD04F30
0EAAD700
ENDCHAR
STARTCHAR uni0463
ENCODING 1123
SWIDTH 692 0
DWIDTH 8 0
BBX 9 6 -1 0
BITMAP
05FBE60000
08F2DA0000
0BC0FDC900
0E93F65F20
2F74F38D00
5F41CDB200
ENDCHAR
STARTCHAR uni046A
ENCODING 1130
SWIDTH 834 0
DWIDTH 9 0
BBX 9 9 0 0
BITMAP
006DFCBD70
0979F40A10
3C04F95500
5A00EDA000
047BDFBB30
04F3BD0F70
09D0EA2F50
0CA2F76F20
3F55F46F20
ENDCHAR
STARTCHAR uni046B
ENCODING 1131
SWIDTH 750 0
DWIDTH 8 0
BBX 8 6 0 0
BITMAP
06CFDBA0
2D1DA510
04BDFB90
0AA8E4F2
0D7BB7E0
3E3D98D0
ENDCHAR
STARTCHAR uni0472
ENCODING 1138
SWIDTH 665 0
DWIDTH 7 0
BBX 8 9 0 0
BITMAP
018BBC40
2D5957D0
A6AD04F2
B5F705F3
08F9BCF1
0BE00BC0
0CD01F60
0AD09C00
03DCA100
ENDCHAR
STARTCHAR uni0473
ENCODING 1139
SWIDTH 439 0
DWIDTH 5 0
BBX 8 6 -1 0
BITMAP
008DB000
06F3C451
0DD2C810
1FCBE100
2F96A000
09EB1000
ENDCHAR
STARTCHAR uni0474
ENCODING 1140
SWIDTH 668 0
DWIDTH 7 0
BBX 8 9 0 0
BITMAP
03AE507B
4B5F62F2
C43F67A0
D23F6B40
213F7D00
003F9800
002FC300
002FD000
002F9000
ENDCHAR
STARTCHAR uni0475
ENCODING 1141
SWIDTH 414 0
DWIDTH 5 0
BBX 6 6 -1 0
BITMAP
05F3A4
08F155
0BD083
0EA0C0
1F9870
0BE800
ENDCHAR
STARTCHAR uni0490
ENCODING 1168
SWIDTH 431 0
DWIDTH 5 0
BBX 8 11 0 0
BITMAP
00000010
000001A1
06BEFFC0
788F1200
C3BC0000
B3E90000
02F60000
05F40000
08F10000
0BD00000
0EA00000
ENDCHAR
STARTCHAR uni0491
ENCODING 1169
SWIDTH 342 0
DWIDTH 4 0
BBX 6 7 -1 0
BITMAP
0000C2
05FC90
08F100
0BD000
0EA000
2F7000
5F4000
ENDCHAR
STARTCHAR uni0492
ENCODING 1170
SWIDTH 400 0
DWIDTH 4 0
BBX 7 9 0 0
BITMAP
058EBB80
687F1000
C5AE0000
C4CC0000
32E90000
0AFC5000
05F40000
08F10000
0CC00000
ENDCHAR
STARTCHAR uni0493
ENCODING 1171
SWIDTH 375 0
DWIDTH 4 0
BBX 6 6 -1 0
BITMAP
02AE60
080EB0
034F80
2CEEA0
1EA032
1CEA40
ENDCHAR
STARTCHAR uni0494
ENCODING 1172
SWIDTH 665 0
DWIDTH 7 0
BBX 7 9 0 0
BITMAP
048EBB80
498F2000
B5AF0000
D4DD0000
75FECB20
04F70DA0
06F40BB0
09F12E50
0CC8C600
ENDCHAR
STARTCHAR uni0495
ENCODING 1173
SWIDTH 486 0
DWIDTH 5 0
BBX 7 9 -1 -3
BITMAP
05EAB700
08F00000
0BEBC100
0EB6F410
2F75F270
5F49F810
008EA000
064F6000
04DB1000
ENDCHAR
STARTCHAR uni0496
ENCODING 1174
SWIDTH 777 0
DWIDTH 9 0
BBX 10 13 -1 -4
BITMAP
00BC16C1BD
00AB5CB99B
00038F9B00
0002BFB500
008EDFCE60
03F59F0DA0
07F0CC0E70
0AC0F94F40
2E73F64F40
0000005A00
0000006E20
0000000D40
0000000500
ENDCHAR
STARTCHAR uni0497
ENCODING 1175
SWIDTH 882 0
DWIDTH 10 0
BBX 11 9 -1 -3
BITMAP
06CC19D1BD50
050E6CA8C340
000ECFDF7000
132F5F5F5020
586B6F2F6160
2CB28E08E800
00000001C100
00000002F300
000000006000
ENDCHAR
STARTCHAR uni0498
ENCODING 1176
SWIDTH 525 0
DWIDTH 6 0
BBX 7 13 -1 -4
BITMAP
003ADC10
00604F60
00009E20
002DF500
0000CE10
00009F30
0A30BF10
1F12F900
08BC7000
007A0000
006F2000
000D2000
00040000
ENDCHAR
STARTCHAR uni0499
ENCODING 1177
SWIDTH 498 0
DWIDTH 5 0
BBX 6 12 0 -6
BITMAP
06CD30
450F90
701F90
607E21
09F507
00CC72
06DE10
46EA00
3DD300
0A1000
0E6000
071000
ENDCHAR
STARTCHAR uni049A
ENCODING 1178
SWIDTH 635 0
DWIDTH 7 0
BBX 8 13 0 -4
BITMAP
02AE56E5
2C8F5CA4
A69FA200
D3CE8000
42FDC800
03F67F00
06F39D00
09F0DA00
0CC0E900
0000C400
0000DB00
00005C00
00002200
ENDCHAR
STARTCHAR uni049B
ENCODING 1179
SWIDTH 501 0
DWIDTH 6 0
BBX 7 9 -1 -3
BITMAP
05F46E20
08F73100
0BFFE200
0EB5F400
2F75F370
5F42EB20
0000A300
0000D700
00005100
ENDCHAR
STARTCHAR uni049C
ENCODING 1180
SWIDTH 721 0
DWIDTH 8 0
BBX 9 9 0 0
BITMAP
03AE508E40
4C8F17CA30
C49D8D1000
A3CEF60000
00FA4E5000
03F40F8000
06F23F5000
09E06F2000
0CC05F2000
ENDCHAR
STARTCHAR uni049D
ENCODING 1181
SWIDTH 551 0
DWIDTH 6 0
BBX 8 6 -1 0
BITMAP
05F42AB0
08FA7010
0BDEFA00
0EE6BC00
2FC4CC54
5F408E90
ENDCHAR
STARTCHAR uni04A0
ENCODING 1184
SWIDTH 691 0
DWIDTH 8 0
BBX 8 9 0 0
BITMAP
06BEE1AD
690DC85B
C31FB800
E24FE200
616FED50
009F1DA0
00CD0E70
00F94F40
03F64F40
ENDCHAR
STARTCHAR uni04A1
ENCODING 1185
SWIDTH 676 0
DWIDTH 7 0
BBX 9 6 -1 0
BITMAP
04BDE27E10
0E39F68B10
1E1CED7000
021FB8F300
003F66F470
006F33EC20
ENDCHAR
STARTCHAR uni04A2
ENCODING 1186
SWIDTH 665 0
DWIDTH 7 0
BBX 8 11 0 -2
BITMAP
019E51F8
2C9F33F5
A69F06F2
D3CC08E0
63FEDFB0
03F70E80
06F32F50
09F06F20
0CC09F30
00000AFA
000002E6
ENDCHAR
STARTCHAR uni04A3
ENCODING 1187
SWIDTH 507 0
DWIDTH 6 0
BBX 7 9 -1 -3
BITMAP
05F38E00
08F0BC00
0BEBF900
0E92F610
2F74F460
5F42EB30
00009300
0000C800
00005200
ENDCHAR
STARTCHAR uni04A4
ENCODING 1188
SWIDTH 689 0
DWIDTH 8 0
BBX 11 9 0 0
BITMAP
017E51EBAA10
298F33F30000
A5BF06F10000
D3DC08D00000
63FEDFA00000
04F70E800000
07F32F500000
09F06F200000
0CC09F000000
ENDCHAR
STARTCHAR uni04A5
ENCODING 1189
SWIDTH 681 0
DWIDTH 7 0
BBX 9 6 -1 0
BITMAP
05F37DAB60
08F0BA0000
0BEBF80000
0E92F52000
2F74F68000
5F41DD2000
ENDCHAR
STARTCHAR uni04AA
ENCODING 1194
SWIDTH 497 0
DWIDTH 5 0
BBX 6 13 0 -4
BITMAP
008EC6
07F51D
1EC049
5F7000
9F3000
BF1000
CF1000
AF4026
4FECA1
02E300
01F700
009A00
004200
ENDCHAR
STARTCHAR uni04AB
ENCODING 1195
SWIDTH 384 0
DWIDTH 4 0
BBX 6 9 -1 -3
BITMAP
008DB0
06F3B0
0DC000
1F9001
1F9063
0AFC40
00B100
01E500
006100
ENDCHAR
STARTCHAR uni04AE
ENCODING 1198
SWIDTH 620 0
DWIDTH 7 0
BBX 8 9 0 0
BITMAP
03AE7047
4B3FA091
C40DE190
D20AF840
2106FC00
0004F800
0007F500
000AF200
000DE000
ENDCHAR
STARTCHAR uni04AF
ENCODING 1199
SWIDTH 480 0
DWIDTH 5 0
BBX 5 9 0 -3
BITMAP
6F33B0
4F5090
3F6190
1F7820
0FB800
0ED000
1F8000
4F5000
340000
ENDCHAR
STARTCHAR uni04B0
ENCODING 1200
SWIDTH 620 0
DWIDTH 7 0
BBX 8 9 0 0
BITMAP
03AE7047
4B3FA091
C40DE190
D20AF840
2106FC00
002DFF30
0007F500
000AF200
000DE000
ENDCHAR
STARTCHAR uni04B1
ENCODING 1201
SWIDTH 480 0
DWIDTH 5 0
BBX 5 9 0 -3
BITMAP
6F33B0
4F5090
3F6190
1F7820
0FB800
8FF700
1F8000
4F5000
340000
ENDCHAR
STARTCHAR uni04B6
ENCODING 1206
SWIDTH 695 0
DWIDTH 8 0
BBX 9 11 0 -2
BITMAP
019E50BD00
2C9F20DA00
A6AF01F700
D3BC04F400
626D18F100
00000AD000
00000DB000
00001F8000
00004F6000
000005FA10
000000CB00
ENDCHAR
STARTCHAR uni04B7
ENCODING 1207
SWIDTH 505 0
DWIDTH 6 0
BBX 6 9 0 -3
BITMAP
5F3AE0
8F1DB0
AE5F80
6EBF53
005F78
002EB1
000A30
000D70
000510
ENDCHAR
STARTCHAR uni04B8
ENCODING 1208
SWIDTH 715 0
DWIDTH 8 0
BBX 9 9 0 0
BITMAP
02AE508F10
3C9F20AD00
B5AE00DB00
C3BC01F800
215EBAF500
000078F200
00000AE000
00000DB000
00001F8000
ENDCHAR
STARTCHAR uni04B9
ENCODING 1209
SWIDTH 545 0
DWIDTH 6 0
BBX 7 6 0 0
BITMAP
5F33F600
8F46F300
AEACE000
6EDEC120
017EC920
0009E600
ENDCHAR
STARTCHAR uni04BA
ENCODING 1210
SWIDTH 679 0
DWIDTH 7 0
BBX 7 9 0 0
BITMAP
03AE5000
4C8F2000
C49E0000
A3CB0000
00F91C60
03F40CC0
06F20EB0
09E02F80
0CC04F50
ENDCHAR
STARTCHAR uni04BB
ENCODING 1211
SWIDTH 505 0
DWIDTH 6 0
BBX 7 9 -1 0
BITMAP
00230000
00EA0000
02F60000
05FBE600
08F2DA00
0BC0F900
0E93F600
2F75F360
5F41DB30
ENDCHAR
STARTCHAR uni04C0
ENCODING 1216
SWIDTH 375 0
DWIDTH 4 0
BBX 5 9 0 0
BITMAP
03AE40
4DAF10
C5AD00
D2DA00
22F700
04F500
07F200
0AE000
0DB000
ENDCHAR
STARTCHAR uni04C1
ENCODING 1217
SWIDTH 777 0
DWIDTH 9 0
BBX 10 12 -1 0
BITMAP
0000010010
00004F1820
00001AB400
00BC16C1BD
00AB5CB99B
00038F9B00
0002BFB500
008EDFCE60
03F59F0DA0
07F0CC0E70
0AC0F94F40
2E73F64F40
ENDCHAR
STARTCHAR uni04C2
ENCODING 1218
SWIDTH 882 0
DWIDTH 10 0
BBX 11 9 -1 0
BITMAP
000001001000
00004F182000
00001BB40000
06CC19D1BD50
050E6CA8C340
000ECFDF7000
132F5F5F5020
586B6F2F5060
2CB28E08D810
ENDCHAR
STARTCHAR uni04CB
ENCODING 1227
SWIDTH 695 0
DWIDTH 8 0
BBX 8 11 0 -2
BITMAP
03AE50BD
4B8F20EA
C4AE02F7
93BD06F4
006EDDF1
00000BD0
00000EA0
00001F70
00119F40
00DF7100
00010000
ENDCHAR
STARTCHAR uni04CC
ENCODING 1228
SWIDTH 516 0
DWIDTH 6 0
BBX 6 9 0 -3
BITMAP
3F58F1
7F2BD0
9F4FA0
5EBF72
003F78
002FE3
000910
3DFB00
898100
ENDCHAR
STARTCHAR uni04CF
ENCODING 1231
SWIDTH 267 0
DWIDTH 3 0
BBX 5 9 -1 0
BITMAP
000100
00DA00
02F700
05F400
08F100
0BD000
0EA000
1F8630
0CE600
ENDCHAR
STARTCHAR uni04D0
ENCODING 1232
SWIDTH 668 0
DWIDTH 7 0
BBX 9 14 0 -2
BITMAP
0000011010
00000B8280
000006B910
000018E700
0000A6F500
000957F200
3BCE7BE000
C6B71EC000
44F21F9000
08D04F6000
0C807F3000
0F609F0000
1F40000000
0420000000
ENDCHAR
STARTCHAR uni04D1
ENCODING 1233
SWIDTH 526 0
DWIDTH 6 0
BBX 8 9 -1 0
BITMAP
00010010
000F4550
0009B700
009DBF30
07F39F00
0DB0CC00
1F80E910
1F96F871
0AE6BD40
ENDCHAR
STARTCHAR uni04D2
ENCODING 1234
SWIDTH 668 0
DWIDTH 7 0
BBX 9 13 0 -2
BITMAP
0000078780
0000011110
000018E700
0000A6F500
000957F200
3BCE7BE000
C6B71EC000
44F21F9000
08D04F6000
0C807F3000
0F609F0000
1F40000000
0420000000
ENDCHAR
STARTCHAR uni04D3
ENCODING 1235
SWIDTH 526 0
DWIDTH 6 0
BBX 8 8 -1 0
BITMAP
000B4B40
00010100
009DBF30
07F39F00
0DB0CC00
1F80E910
1F96F871
0AE6BD40
ENDCHAR
STARTCHAR uni04D4
ENCODING 1236
SWIDTH 764 0
DWIDTH 8 0
BBX 10 11 0 -2
BITMAP
000018E915
0001B7FBB5
000977F300
2ADE5AE000
C7B73EFD60
96F21F9000
08D03F6000
0C906F4000
0F609FCB50
1F40000000
0420000000
ENDCHAR
STARTCHAR uni04D5
ENCODING 1237
SWIDTH 650 0
DWIDTH 7 0
BBX 9 6 -1 0
BITMAP
008CDADA00
0010EF2D00
04BCFB6900
0EB4FD8000
1F87F70420
0AD8CE9400
ENDCHAR
STARTCHAR uni04D6
ENCODING 1238
SWIDTH 459 0
DWIDTH 5 0
BBX 6 12 0 0
BITMAP
000101
008A19
004BA2
006DC2
04F276
08D092
05F200
08E500
7F7000
CF1000
DF1041
5DD820
ENDCHAR
STARTCHAR uni04D7
ENCODING 1239
SWIDTH 384 0
DWIDTH 4 0
BBX 6 9 -1 0
BITMAP
001001
00C737
006B91
008DB0
06F3D0
0DC6A0
1FD900
1F8033
09E940
ENDCHAR
STARTCHAR uni04D8
ENCODING 1240
SWIDTH 544 0
DWIDTH 6 0
BBX 6 9 0 0
BITMAP
05DEA1
0B46F9
0100ED
0000DD
018BFC
1D94F7
9C08E2
B91E60
4DC600
ENDCHAR
STARTCHAR uni04D9
ENCODING 1241
SWIDTH 404 0
DWIDTH 4 0
BBX 5 6 0 0
BITMAP
3BE900
107F20
08DF30
97AE10
E2E800
BD8000
ENDCHAR
STARTCHAR uni04DC
ENCODING 1244
SWIDTH 777 0
DWIDTH 9 0
BBX 10 11 -1 0
BITMAP
00000D2D10
0000010100
00BC16C1BD
00AB5CB99B
00038F9B00
0002BFB500
008EDFCE60
03F59F0DA0
07F0CC0E70
0AC0F94F40
2E73F64F40
ENDCHAR
STARTCHAR uni04DD
ENCODING 1245
SWIDTH 882 0
DWIDTH 10 0
BBX 11 8 -1 0
BITMAP
00000D2D1000
000001010000
06CC19D1BD50
050E6CA8C340
000ECFDF7000
132F5F5F5020
586B6F2F5060
2CB28E08D810
ENDCHAR
STARTCHAR uni04DE
ENCODING 1246
SWIDTH 525 0
DWIDTH 6 0
BBX 7 11 -1 0
BITMAP
00078780
00011110
003ADC10
00604F60
00009E20
002DF500
0000CE10
00009F30
0A30BF10
1F12FA00
08BC9100
ENDCHAR
STARTCHAR uni04DF
ENCODING 1247
SWIDTH 498 0
DWIDTH 5 0
BBX 6 11 0 -3
BITMAP
03C4C0
001010
06CD30
450F90
701F90
607E21
09F507
00CC73
06DE10
46DA00
3CC200
ENDCHAR
STARTCHAR uni04E2
ENCODING 1250
SWIDTH 705 0
DWIDTH 8 0
BBX 8 11 0 0
BITMAP
0001BBB5
00000000
02AE50CF
3D9F24FC
B69E0CF9
C3CB5CF6
11F8C7F3
03FB89F0
06FE1CC0
09F70E90
0CE13F60
ENDCHAR
STARTCHAR uni04E3
ENCODING 1251
SWIDTH 505 0
DWIDTH 6 0
BBX 7 8 -1 0
BITMAP
006BBB00
00000000
05F39E00
08F1CB00
0BD0F800
0EA3F510
1F9AF680
0BD6EC20
ENDCHAR
STARTCHAR uni04E4
ENCODING 1252
SWIDTH 705 0
DWIDTH 8 0
BBX 8 11 0 0
BITMAP
0000C3C3
00001010
02AE50CF
3D9F24FC
B69E0CF9
C3CB5CF6
11F8C7F3
03FB89F0
06FE1CC0
09F70E90
0CE13F60
ENDCHAR
STARTCHAR uni04E5
ENCODING 1253
SWIDTH 505 0
DWIDTH 6 0
BBX 7 8 -1 0
BITMAP
004B5B00
00010100
05F39E00
08F1CB00
0BD0F800
0EA3F510
1F9AF680
0BD6EC20
ENDCHAR
STARTCHAR uni04E6
ENCODING 1254
SWIDTH 665 0
DWIDTH 7 0
BBX 8 11 0 0
BITMAP
0001D2D0
00001010
018BBC40
1C5857D0
97AD04F2
C6F705F3
28F207F1
0AE00BC0
0CC02F60
0AE1AC00
03DEA100
ENDCHAR
STARTCHAR uni04E7
ENCODING 1255
SWIDTH 439 0
DWIDTH 5 0
BBX 8 8 -1 0
BITMAP
003C4C00
00010100
008DB000
06F3C451
0DC0D810
1F90D100
2F83A000
09EA1000
ENDCHAR
STARTCHAR uni04E8
ENCODING 1256
SWIDTH 665 0
DWIDTH 7 0
BBX 8 9 0 0
BITMAP
018BBC40
2C5957D0
A7AD04F2
B5F705F3
18FA9CF1
0BE00BC0
0CD01F60
0AD09C00
03DCA100
ENDCHAR
STARTCHAR uni04E9
ENCODING 1257
SWIDTH 439 0
DWIDTH 5 0
BBX 8 6 -1 0
BITMAP
008DB000
06F3C451
0FF9FA10
1F90D100
2F83A000
09EA1000
ENDCHAR
STARTCHAR uni04EE
ENCODING 1262
SWIDTH 644 0
DWIDTH 7 0
BBX 8 11 0 0
BITMAP
0000ABB7
00000000
029E801A
3C2FB074
B50CE0B0
C308F680
1104FE20
0001FB00
0000C500
0056A000
008E4000
ENDCHAR
STARTCHAR uni04EF
ENCODING 1263
SWIDTH 486 0
DWIDTH 5 0
BBX 7 11 -1 -3
BITMAP
006BBB00
00000000
05F3AE00
08F1DB00
0BD1F800
0EA3F510
1F9AF370
0BEDF910
008EC000
065F8000
04EC1000
ENDCHAR
STARTCHAR uni04F0
ENCODING 1264
SWIDTH 644 0
DWIDTH 7 0
BBX 8 11 0 0
BITMAP
0000A5A5
00001010
029E801A
3C2FB074
B50CE0B0
C308F680
1104FE20
0001FB00
0000C500
0056A000
008E4000
ENDCHAR
STARTCHAR uni04F1
ENCODING 1265
SWIDTH 486 0
DWIDTH 5 0
BBX 7 11 -1 -3
BITMAP
004B5A00
00010100
05F3AE00
08F1DB00
0BD1F800
0EA3F510
1F9AF370
0BEDF910
008EC000
065F8000
04EC1000
ENDCHAR
STARTCHAR uni04F2
ENCODING 1266
SWIDTH 644 0
DWIDTH 7 0
BBX 8 13 0 0
BITMAP
00000212
00001D5B
000083A1
00000000
029E801A
3C2FB074
B50CE0B0
C308F680
1104FE20
0001FB00
0000C500
0056A000
008E4000
ENDCHAR
STARTCHAR uni04F3
ENCODING 1267
SWIDTH 486 0
DWIDTH 5 0
BBX 7 13 -1 -3
BITMAP
00012110
000A5C20
00295600
00000000
05F3AE00
08F1DB00
0BD1F800
0EA3F510
1F9AF370
0BEDF910
008EC000
065F8000
04EC1000
ENDCHAR
STARTCHAR uni04F4
ENCODING 1268
SWIDTH 695 0
DWIDTH 8 0
BBX 8 11 0 0
BITMAP
0000B4C3
00001010
019E50BD
2C9F20DA
A6AF01F7
D3BC04F4
626D06F1
00000BE0
00000EB0
00002F80
00004F50
ENDCHAR
STARTCHAR uni04F5
ENCODING 1269
SWIDTH 505 0
DWIDTH 6 0
BBX 6 8 0 0
BITMAP
05A5A0
001010
5F3AE0
8F1DB0
AE5F80
6EBF53
005F78
002EC2
ENDCHAR
STARTCHAR uni04F6
ENCODING 1270
SWIDTH 442 0
DWIDTH 5 0
BBX 7 11 0 -2
BITMAP
068EAB80
878F1000
D4AD0000
74DA0000
01F80000
04F50000
07F20000
09E00000
0CD10000
01CD6000
004E4000
ENDCHAR
STARTCHAR uni04F7
ENCODING 1271
SWIDTH 375 0
DWIDTH 4 0
BBX 6 9 -1 -3
BITMAP
03AE60
080EB0
01AF50
0CD301
3F9171
1CEB20
02A000
04F200
007000
ENDCHAR
STARTCHAR uni04F8
ENCODING 1272
SWIDTH 909 0
DWIDTH 10 0
BBX 11 11 0 0
BITMAP
000009696000
000001010000
02AE50005F30
2C8F30008F10
A69F0000BC00
D3CC0000E900
52FDBA12F700
03F61F85F400
06F30E98F100
09F12F5BD000
0CC8D80EA000
ENDCHAR
STARTCHAR uni04F9
ENCODING 1273
SWIDTH 642 0
DWIDTH 7 0
BBX 8 8 0 0
BITMAP
00667600
00222100
5D200860
8E01BF50
BB8B6F20
E80D7E00
F76AAC54
9EB27E90
ENDCHAR
STARTCHAR uni051A
ENCODING 1306
SWIDTH 665 0
DWIDTH 7 0
BBX 8 11 0 -2
BITMAP
018BBC40
1C5858D0
979D04F2
C5F805F3
39F306F1
0AE00AC0
0CD01E70
0AE8BD10
03DCF500
00009E70
00001610
ENDCHAR
STARTCHAR uni051B
ENCODING 1307
SWIDTH 486 0
DWIDTH 5 0
BBX 7 9 -1 -3
BITMAP
009DBF20
07F39E00
0DC0CC00
1F90E900
1F83F600
0ADBF300
0009F000
000CC000
000B5000
ENDCHAR
STARTCHAR uni051C
ENCODING 1308
SWIDTH 962 0
DWIDTH 11 0
BBX 12 9 0 0
BITMAP
03AE506F3093
4B5F60AF30B0
C43F61EF3380
D23F65CF3820
213F697F3A00
003F796F6700
002FB55FB200
002FE15FC000
002FA05F7000
ENDCHAR
STARTCHAR uni051D
ENCODING 1309
SWIDTH 661 0
DWIDTH 7 0
BBX 9 6 -1 0
BITMAP
05F39E2C00
08F1CB0910
0BD0F80B00
0EA3F53A00
1F9AF6B300
0BD5DD5000
ENDCHAR
STARTCHAR uni0524
ENCODING 1316
SWIDTH 742 0
DWIDTH 8 0
BBX 9 11 0 -2
BITMAP
07AFABEC50
778F15F300
C3AD08F100
82DA0BD000
01F80DA000
04F51F8000
07F24F5000
09E07F2000
0CC09F2000
00000AFA00
000002E600
ENDCHAR
STARTCHAR uni0525
ENCODING 1317
SWIDTH 505 0
DWIDTH 6 0
BBX 7 9 -1 -3
BITMAP
05FBE600
08F2DA00
0BC0F800
0E93F520
2F75F680
5F42EC20
00009300
0000C800
00005200
ENDCHAR
STARTCHAR uni1E0C
ENCODING 7692
SWIDTH 663 0
DWIDTH 7 0
BBX 8 12 0 -3
BITMAP
02ABCA10
3C681CA0
B5AE07F0
D2DB07F1
32F808F0
04F50BC0
07F21E70
0AE08E10
0DDBD300
00000000
00980000
00B90000
ENDCHAR
STARTCHAR uni1E0D
ENCODING 7693
SWIDTH 525 0
DWIDTH 6 0
BBX 8 12 -1 -3
BITMAP
00000230
00000F90
00003F60
009DBF30
07F39F10
0DC0CD00
1F90EA00
1F83F751
0AD8CC40
00000000
00A70000
00C80000
ENDCHAR
STARTCHAR uni1E20
ENCODING 7712
SWIDTH 578 0
DWIDTH 6 0
BBX 7 13 0 -2
BITMAP
004BBB20
00000000
008DC900
0AF30D30
4F801E10
9F200000
BE003900
AE009B00
7F23F800
1AC9F400
07A6E100
2C1C9000
09C91000
ENDCHAR
STARTCHAR uni1E21
ENCODING 7713
SWIDTH 507 0
DWIDTH 6 0
BBX 7 11 -1 -3
BITMAP
004BBB20
00000000
009DBF30
07F39F00
0DC0BC00
1F90E900
1F83F660
0AECFA40
004BF200
037CC000
02CD4000
ENDCHAR
STARTCHAR uni1E24
ENCODING 7716
SWIDTH 665 0
DWIDTH 7 0
BBX 8 12 0 -3
BITMAP
019E51F8
2DDF33F5
A98F06F2
D3BC08E0
62EEDFB0
02F70E90
06F32F60
09F06F30
0CC09F00
00000000
006B0000
007D0000
ENDCHAR
STARTCHAR uni1E25
ENCODING 7717
SWIDTH 505 0
DWIDTH 6 0
BBX 7 12 -1 -3
BITMAP
00230000
00EA0000
02F60000
05FBE600
08F2DA00
0BC0F900
0E93F600
2F75F360
5F41DB30
00000000
00B50000
00D70000
ENDCHAR
STARTCHAR uni1E2A
ENCODING 7722
SWIDTH 665 0
DWIDTH 7 0
BBX 8 12 0 -3
BITMAP
019E51F8
2DDF33F5
A98F06F2
D3BC08E0
62EEDFB0
02F70E90
06F32F60
09F06F30
0CC09F00
00000000
06509100
02A94000
ENDCHAR
STARTCHAR uni1E2B
ENCODING 7723
SWIDTH 505 0
DWIDTH 6 0
BBX 7 12 -1 -3
BITMAP
00230000
00EA0000
02F60000
05FBE600
08F2DA00
0BC0F900
0E93F600
2F75F360
5F41DB30
00000000
0A037000
06A81000
ENDCHAR
STARTCHAR uni1E36
ENCODING 7734
SWIDTH 379 0
DWIDTH 4 0
BBX 8 12 0 -3
BITMAP
03AE4000
4B8F1000
C4BD0000
D2EA0000
12F70000
05F40000
08F10000
0BD00000
0ED20000
017E8100
1C44EFD3
1E503CC0
ENDCHAR
STARTCHAR uni1E37
ENCODING 7735
SWIDTH 293 0
DWIDTH 3 0
BBX 4 12 0 -3
BITMAP
0010
09E0
0CB0
1F80
4F50
7F20
AE00
CD26
8E90
0000
B600
D700
ENDCHAR
STARTCHAR uni1E42
ENCODING 7746
SWIDTH 787 0
DWIDTH 9 0
BBX 9 12 0 -3
BITMAP
006DF10EC0
089BF14FA0
2E1EF0AF80
2C5EE1EF60
01ABE6BF40
01B9DC8F20
067AEA9F00
0B2BF5BD00
1B0BE0CB00
0000000000
001C400000
001E500000
ENDCHAR
STARTCHAR uni1E43
ENCODING 7747
SWIDTH 752 0
DWIDTH 8 0
BBX 10 9 -1 -3
BITMAP
05FBE9AE30
08F2EC2F60
0BC1F84F50
0E94F57F20
2F76F29E06
5F49F04E91
0000000000
000A700000
000C800000
ENDCHAR
STARTCHAR uni1E44
ENCODING 7748
SWIDTH 668 0
DWIDTH 7 0
BBX 8 12 0 0
BITMAP
00000A70
00000C80
00000000
06DF504C
6D9F8079
C59FB0A6
D3CCE0C3
33F6F3E0
04C3F9C0
0790EE90
0A60BF60
0D308F30
ENDCHAR
STARTCHAR uni1E45
ENCODING 7749
SWIDTH 505 0
DWIDTH 6 0
BBX 7 9 -1 0
BITMAP
0004E200
0004C100
00000000
05FBE600
08F2DA00
0BC0F900
0E93F600
2F75F360
5F41DB30
ENDCHAR
STARTCHAR uni1E46
ENCODING 7750
SWIDTH 668 0
DWIDTH 7 0
BBX 8 12 0 -3
BITMAP
06DF504C
6D9F8079
C59FB0A6
D3CCE0C3
33F6F3E0
04C3F9C0
0790EE90
0A60BF60
0D308F30
00000000
005C1000
006E1000
ENDCHAR
STARTCHAR uni1E47
ENCODING 7751
SWIDTH 505 0
DWIDTH 6 0
BBX 7 9 -1 -3
BITMAP
05FBE600
08F2DA00
0BC0F900
0E93F600
2F75F360
5F41DB30
00000000
00A70000
00C80000
ENDCHAR
STARTCHAR uni1E5A
ENCODING 7770
SWIDTH 601 0
DWIDTH 7 0
BBX 7 12 0 -3
BITMAP
02ABC800
2C681D50
B5AE0D50
E2DB5C10
62FEF900
04F68E00
07F2AC00
0AE0E900
0DB0D800
00000000
006A0000
008C0000
ENDCHAR
STARTCHAR uni1E5B
ENCODING 7771
SWIDTH 376 0
DWIDTH 4 0
BBX 6 9 -1 -3
BITMAP
05FAE2
08F3B1
0BD000
0EA000
2F7000
5F4000
000000
4C1000
5E1000
ENDCHAR
STARTCHAR uni1E60
ENCODING 7776
SWIDTH 570 0
DWIDTH 6 0
BBX 6 12 0 0
BITMAP
0001C3
0002E4
000000
006DC7
03F51F
04F73A
00DE20
003FD1
1A76F7
8C11F9
8B04F5
1ACD70
ENDCHAR
STARTCHAR uni1E61
ENCODING 7777
SWIDTH 382 0
DWIDTH 4 0
BBX 6 9 -1 0
BITMAP
000D70
000B60
000210
009F40
00CF50
057F50
1B3F60
493FB3
1ADA10
ENDCHAR
STARTCHAR uni1E62
ENCODING 7778
SWIDTH 570 0
DWIDTH 6 0
BBX 6 12 0 -3
BITMAP
006DC7
03F51F
04F73A
00DE20
003FD1
1A76F7
8C11F9
8B04F5
1ACD70
000000
05B000
07D100
ENDCHAR
STARTCHAR uni1E63
ENCODING 7779
SWIDTH 382 0
DWIDTH 4 0
BBX 6 10 -1 -3
BITMAP
000100
008F40
00CF40
057F50
1A3F60
4D3F83
1ADA10
000000
0B6000
0D7000
ENDCHAR
STARTCHAR uni1E6C
ENCODING 7788
SWIDTH 481 0
DWIDTH 5 0
BBX 8 12 0 -3
BITMAP
06BED615
790DD9B5
D31F9000
D24F6000
316F3000
009F0000
00CC0000
00F90000
03F60000
00000000
05C10000
06D10000
ENDCHAR
STARTCHAR uni1E6D
ENCODING 7789
SWIDTH 267 0
DWIDTH 3 0
BBX 5 11 -1 -3
BITMAP
00A700
02F600
09FB00
08F100
0BD000
0EA010
1F9720
0CE600
000000
4C1000
5E1000
ENDCHAR
STARTCHAR Wgrave
ENCODING 7808
SWIDTH 962 0
DWIDTH 11 0
BBX 12 12 0 0
BITMAP
000000790000
0000003B0000
000000020000
03AE506F3093
4B5F60AF30B0
C43F61EF3380
D23F65CF3820
213F697F3A00
003F796F6700
002FB55FB200
002FE15FC000
002FA05F7000
ENDCHAR
STARTCHAR wgrave
ENCODING 7809
SWIDTH 661 0
DWIDTH 7 0
BBX 9 9 -1 0
BITMAP
0000E10000
0000A30000
0000110000
05F39E2C00
08F1CB0910
0BD0F80B00
0EA3F53A00
1F9AF6B300
0BD5DD5000
ENDCHAR
STARTCHAR Wacute
ENCODING 7810
SWIDTH 962 0
DWIDTH 11 0
BBX 12 12 0 0
BITMAP
00000001E200
000000068000
000000051000
03AE506F3093
4B5F60AF30B0
C43F61EF3380
D23F65CF3820
213F697F3A00
003F796F6700
002FB55FB200
002FE15FC000
002FA05F7000
ENDCHAR
STARTCHAR wacute
ENCODING 7811
SWIDTH 661 0
DWIDTH 7 0
BBX 9 9 -1 0
BITMAP
0000089000
00000D1000
0000150000
05F39E2C00
08F1CB0910
0BD0F80B00
0EA3F53A00
1F9AF6B300
0BD5DD5000
ENDCHAR
STARTCHAR Wdieresis
ENCODING 7812
SWIDTH 962 0
DWIDTH 11 0
BBX 12 11 0 0
BITMAP
000001D2D100
000000101000
03AE506F3093
4B5F60AF30B0
C43F61EF3380
D23F65CF3820
213F697F3A00
003F796F6700
002FB55FB200
002FE15FC000
002FA05F7000
ENDCHAR
STARTCHAR wdieresis
ENCODING 7813
SWIDTH 661 0
DWIDTH 7 0
BBX 9 8 -1 0
BITMAP
0006969000
0000101000
05F39E2C00
08F1CB0910
0BD0F80B00
0EA3F53A00
1F9AF6B300
0BD5DD5000
ENDCHAR
STARTCHAR uni1E8E
ENCODING 7822
SWIDTH 620 0
DWIDTH 7 0
BBX 8 12 0 0
BITMAP
00000B50
00000D70
00000000
03AE7047
4B3FA091
C40DE190
D20AF840
2106FC00
0004F800
0007F500
000AF200
000DE000
ENDCHAR
STARTCHAR uni1E8F
ENCODING 7823
SWIDTH 505 0
DWIDTH 6 0
BBX 7 12 -1 -3
BITMAP
0007D000
0006B000
00000000
05F3AE00
08F1DB00
0BD1F800
0EA3F510
1F9AF370
0BEDF910
008EC000
065F8000
04EC1000
ENDCHAR
STARTCHAR uni1E92
ENCODING 7826
SWIDTH 542 0
DWIDTH 6 0
BBX 6 15 0 -3
BITMAP
000017
000087
000060
0ACCFD
0E16F6
000DE0
005F70
00CE10
04F800
0BF200
3F9096
AFDBC2
000000
04C100
05E100
ENDCHAR
STARTCHAR uni1E93
ENCODING 7827
SWIDTH 428 0
DWIDTH 5 0
BBX 5 9 0 -3
BITMAP
2CCF70
479D00
02F600
0AD000
3F6820
BFCB10
000000
4C1000
5E1000
ENDCHAR
STARTCHAR uni1E97
ENCODING 7831
SWIDTH 267 0
DWIDTH 3 0
BBX 5 9 -1 0
BITMAP
04C5A0
007510
02F700
09FB00
08F100
0BD000
0EA010
1F9720
0CE600
ENDCHAR
STARTCHAR uni1E9E
ENCODING 7838
SWIDTH 559 0
DWIDTH 6 0
BBX 8 12 -1 -3
BITMAP
000ADDF6
007F2BD0
00CC3F70
01F8AE10
04F5BC00
07F23F40
0AE01F70
0CB04F40
0F8BD700
3F500000
6F200000
67000000
ENDCHAR
STARTCHAR uni1EA0
ENCODING 7840
SWIDTH 668 0
DWIDTH 7 0
BBX 8 12 0 -3
BITMAP
000007E7
00006EF5
0003D6F2
000B57E0
4BCE7BC0
C6C71E90
14F12F60
0AB06F30
0E709F00
1F400000
0637A000
0009C000
ENDCHAR
STARTCHAR uni1EA1
ENCODING 7841
SWIDTH 526 0
DWIDTH 6 0
BBX 8 9 -1 -3
BITMAP
009DBF30
07F39F00
0DB0CC00
1F80E910
1F96F871
0AE6BD40
00000000
00A70000
00C80000
ENDCHAR
STARTCHAR uni1EA2
ENCODING 7842
SWIDTH 668 0
DWIDTH 7 0
BBX 9 14 0 -2
BITMAP
000000AB00
0000000A10
0000007200
000018E700
0000A6F500
000957F200
3BCE7BE000
C6B71EC000
44F21F9000
08D04F6000
0C807F3000
0F609F0000
1F40000000
0420000000
ENDCHAR
STARTCHAR uni1EA3
ENCODING 7843
SWIDTH 526 0
DWIDTH 6 0
BBX 8 9 -1 0
BITMAP
0000AC00
00007400
00000000
009DBF30
07F39F00
0DB0CC00
1F80E910
1F96F871
0AE6BD40
ENDCHAR
STARTCHAR uni1EA4
ENCODING 7844
SWIDTH 668 0
DWIDTH 7 0
BBX 10 14 0 -2
BITMAP
0000000073
0000005980
0000023400
000018E700
0000A6F500
000957F200
3BCE7BE000
C6B71EC000
44F21F9000
08D04F6000
0C807F3000
0F609F0000
1F40000000
0420000000
ENDCHAR
STARTCHAR uni1EA5
ENCODING 7845
SWIDTH 526 0
DWIDTH 6 0
BBX 8 11 -1 0
BITMAP
00000034
000000A2
00007630
00067800
00010100
009DBF30
07F39F00
0DB0CC00
1F80E910
1F96F871
0AE6BD40
ENDCHAR
STARTCHAR uni1EA6
ENCODING 7846
SWIDTH 668 0
DWIDTH 7 0
BBX 9 14 0 -2
BITMAP
00000002A0
0000008A60
0000033400
000018E700
0000A6F500
000957F200
3BCE7BE000
C6B71EC000
44F21F9000
08D04F6000
0C807F3000
0F609F0000
1F40000000
0420000000
ENDCHAR
STARTCHAR uni1EA7
ENCODING 7847
SWIDTH 526 0
DWIDTH 6 0
BBX 8 10 -1 0
BITMAP
000002A0
00007590
00069800
00020100
009DBF30
07F39F00
0DB0CC00
1F80E910
1F96F871
0AE6BD40
ENDCHAR
STARTCHAR uni1EA8
ENCODING 7848
SWIDTH 668 0
DWIDTH 7 0
BBX 10 14 0 -2
BITMAP
0000000193
0000007B93
0000024410
000018E700
0000A6F500
000957F200
3BCE7BE000
C6B71EC000
44F21F9000
08D04F6000
0C807F3000
0F609F0000
1F40000000
0420000000
ENDCHAR
STARTCHAR uni1EA9
ENCODING 7849
SWIDTH 526 0
DWIDTH 6 0
BBX 8 10 -1 0
BITMAP
000002B1
000076A0
00067800
00010100
009DBF30
07F39F00
0DB0CC00
1F80E910
1F96F871
0AE6BD40
ENDCHAR
STARTCHAR uni1EAA
ENCODING 7850
SWIDTH 668 0
DWIDTH 7 0
BBX 9 14 0 -2
BITMAP
000000AD50
0000006A00
0000032400
000018E700
0000A6F500
000957F200
3BCE7BE000
C6B71EC000
44F21F9000
08D04F6000
0C807F3000
0F609F0000
1F40000000
0420000000
ENDCHAR
STARTCHAR uni1EAB
ENCODING 7851
SWIDTH 526 0
DWIDTH 6 0
BBX 8 10 -1 0
BITMAP
00017930
00007500
00067800
00010100
009DBF30
07F39F00
0DB0CC00
1F80E910
1F96F871
0AE6BD40
ENDCHAR
STARTCHAR uni1EAC
ENCODING 7852
SWIDTH 668 0
DWIDTH 7 0
BBX 9 15 0 -3
BITMAP
0000000500
0000009D10
0000042120
000007E700
00006EF500
0003D6F200
000B57E000
4BCE7BC000
C6C71E9000
14F12F6000
0AB06F3000
0E709F0000
1F40000000
0637A00000
0009C00000
ENDCHAR
STARTCHAR uni1EAD
ENCODING 7853
SWIDTH 526 0
DWIDTH 6 0
BBX 8 12 -1 -3
BITMAP
00007600
00079900
00120200
009DBF30
07F39F00
0DB0CC00
1F80E910
1F96F871
0AE6BD40
00000000
00A70000
00C80000
ENDCHAR
STARTCHAR uni1EAE
ENCODING 7854
SWIDTH 668 0
DWIDTH 7 0
BBX 9 14 0 -2
BITMAP
0000000B10
0000045A60
000002A820
000018E700
0000A6F500
000957F200
3BCE7BE000
C6B71EC000
44F21F9000
08D04F6000
0C807F3000
0F609F0000
1F40000000
0420000000
ENDCHAR
STARTCHAR uni1EAF
ENCODING 7855
SWIDTH 526 0
DWIDTH 6 0
BBX 8 10 -1 0
BITMAP
00002A00
00008300
00099820
00000000
009DBF30
07F39F00
0DB0CC00
1F80E910
1F96F871
0AE6BD40
ENDCHAR
STARTCHAR uni1EB0
ENCODING 7856
SWIDTH 668 0
DWIDTH 7 0
BBX 9 14 0 -2
BITMAP
0000008400
0000047760
000002A820
000018E700
0000A6F500
000957F200
3BCE7BE000
C6B71EC000
44F21F9000
08D04F6000
0C807F3000
0F609F0000
1F40000000
0420000000
ENDCHAR
STARTCHAR uni1EB1
ENCODING 7857
SWIDTH 526 0
DWIDTH 6 0
BBX 8 10 -1 0
BITMAP
0001B000
00008000
00099820
00000000
009DBF30
07F39F00
0DB0CC00
1F80E910
1F96F871
0AE6BD40
ENDCHAR
STARTCHAR uni1EB2
ENCODING 7858
SWIDTH 668 0
DWIDTH 7 0
BBX 9 14 0 -2
BITMAP
0000005900
0000046940
000003CB30
000018E700
0000A6F500
000957F200
3BCE7BE000
C6B71EC000
44F21F9000
08D04F6000
0C807F3000
0F609F0000
1F40000000
0420000000
ENDCHAR
STARTCHAR uni1EB3
ENCODING 7859
SWIDTH 526 0
DWIDTH 6 0
BBX 8 10 -1 0
BITMAP
00009500
00009400
00099820
00000000
009DBF30
07F39F00
0DB0CC00
1F80E910
1F96F871
0AE6BD40
ENDCHAR
STARTCHAR uni1EB4
ENCODING 7860
SWIDTH 668 0
DWIDTH 7 0
BBX 9 14 0 -2
BITMAP
000001CC30
0000043160
000002A820
000018E700
0000A6F500
000957F200
3BCE7BE000
C6B71EC000
44F21F9000
08D04F6000
0C807F3000
0F609F0000
1F40000000
0420000000
ENDCHAR
STARTCHAR uni1EB5
ENCODING 7861
SWIDTH 526 0
DWIDTH 6 0
BBX 8 10 -1 0
BITMAP
00018820
00000000
00099820
00000000
009DBF30
07F39F00
0DB0CC00
1F80E910
1F96F871
0AE6BD40
ENDCHAR
STARTCHAR uni1EB6
ENCODING 7862
SWIDTH 668 0
DWIDTH 7 0
BBX 9 14 0 -3
BITMAP
00000A21B0
000005B930
000007E700
00006EF500
0003D6F200
000B57E000
4BCE7BC000
C6C71E9000
14F12F6000
0AB06F3000
0E709F0000
1F40000000
0637A00000
0009C00000
ENDCHAR
STARTCHAR uni1EB7
ENCODING 7863
SWIDTH 526 0
DWIDTH 6 0
BBX 8 12 -1 -3
BITMAP
005A0680
002D0A30
0007A500
009DBF30
07F39F00
0DB0CC00
1F80E910
1F96F871
0AE6BD40
00000000
00A70000
00C80000
ENDCHAR
STARTCHAR uni1EB8
ENCODING 7864
SWIDTH 459 0
DWIDTH 5 0
BBX 6 12 0 -3
BITMAP
006DC2
04F276
08D092
05F200
08E500
7F7000
CF1000
DF1041
5DD820
000000
1C5000
1E6000
ENDCHAR
STARTCHAR uni1EB9
ENCODING 7865
SWIDTH 384 0
DWIDTH 4 0
BBX 6 9 -1 -3
BITMAP
008DB0
06F3D0
0DC6A0
1FD900
1F8033
09E940
000000
06B000
08C000
ENDCHAR
STARTCHAR uni1EBA
ENCODING 7866
SWIDTH 459 0
DWIDTH 5 0
BBX 6 12 0 0
BITMAP
0006B4
000371
000000
006DC2
04F276
08D092
05F200
08E500
7F7000
CF1000
DF1041
5DD820
ENDCHAR
STARTCHAR uni1EBB
ENCODING 7867
SWIDTH 384 0
DWIDTH 4 0
BBX 6 9 -1 0
BITMAP
0009C1
000650
000000
008DB0
06F3D0
0DC6A0
1FD900
1F8033
09E940
ENDCHAR
STARTCHAR uni1EBC
ENCODING 7868
SWIDTH 459 0
DWIDTH 5 0
BBX 7 11 0 0
BITMAP
0017ED40
00000000
006DC200
04F27600
08D09200
05F20000
08E50000
7F700000
CF100000
DF104100
5DD82000
ENDCHAR
STARTCHAR uni1EBD
ENCODING 7869
SWIDTH 384 0
DWIDTH 4 0
BBX 6 8 -1 0
BITMAP
01AEC6
000230
008DB0
06F3D0
0DC6A0
1FD900
1F8033
09E940
ENDCHAR
STARTCHAR uni1EBE
ENCODING 7870
SWIDTH 459 0
DWIDTH 5 0
BBX 7 12 0 0
BITMAP
00005460
00189600
00000000
006DC200
04F27600
08D09200
05F20000
08E50000
7F700000
CF100000
DF104100
5DD82000
ENDCHAR
STARTCHAR uni1EBF
ENCODING 7871
SWIDTH 384 0
DWIDTH 4 0
BBX 7 11 -1 0
BITMAP
00000070
00000480
0002A300
00199100
00100100
008DB000
06F3D000
0DC6A000
1FD90000
1F803300
09E94000
ENDCHAR
STARTCHAR uni1EC0
ENCODING 7872
SWIDTH 459 0
DWIDTH 5 0
BBX 7 12 0 0
BITMAP
00002910
0005C520
00142200
006DC200
04F27600
08D09200
05F20000
08E50000
7F700000
CF100000
DF104100
5DD82000
ENDCHAR
STARTCHAR uni1EC1
ENCODING 7873
SWIDTH 384 0
DWIDTH 4 0
BBX 7 10 -1 0
BITMAP
00000A20
0002A640
001AA100
00200100
008DB000
06F3D000
0DC6A000
1FD90000
1F803300
09E94000
ENDCHAR
STARTCHAR uni1EC2
ENCODING 7874
SWIDTH 459 0
DWIDTH 5 0
BBX 7 12 0 0
BITMAP
00001580
0004D680
00152300
006DC200
04F27600
08D09200
05F20000
08E50000
7F700000
CF100000
DF104100
5DD82000
ENDCHAR
STARTCHAR uni1EC3
ENCODING 7875
SWIDTH 384 0
DWIDTH 4 0
BBX 7 10 -1 0
BITMAP
00000A40
0002A830
00198100
00100100
008DB000
06F3D000
0DC6A000
1FD90000
1F803300
09E94000
ENDCHAR
STARTCHAR uni1EC4
ENCODING 7876
SWIDTH 459 0
DWIDTH 5 0
BBX 7 12 0 0
BITMAP
0003D710
00179200
00000000
006DC200
04F27600
08D09200
05F20000
08E50000
7F700000
CF100000
DF104100
5DD82000
ENDCHAR
STARTCHAR uni1EC5
ENCODING 7877
SWIDTH 384 0
DWIDTH 4 0
BBX 6 10 -1 0
BITMAP
000396
0002A0
001991
001001
008DB0
06F3D0
0DC6A0
1FD900
1F8033
09E940
ENDCHAR
STARTCHAR uni1EC6
ENCODING 7878
SWIDTH 459 0
DWIDTH 5 0
BBX 6 15 0 -3
BITMAP
000050
0009D2
003213
006DC2
04F276
08D092
05F200
08E500
7F7000
CF1000
DF1041
5DD820
000000
1C5000
1E6000
ENDCHAR
STARTCHAR uni1EC7
ENCODING 7879
SWIDTH 384 0
DWIDTH 4 0
BBX 6 12 -1 -3
BITMAP
0002B0
002BA2
003002
008DB0
06F3D0
0DC6A0
1FD900
1F8033
09E940
000000
06B000
08C000
ENDCHAR
STARTCHAR uni1EC8
ENCODING 7880
SWIDTH 375 0
DWIDTH 4 0
BBX 5 12 0 0
BITMAP
000BA0
0000B0
000720
03AE40
4DAF10
C5AD00
D2DA00
22F700
04F500
07F200
0AE000
0DB000
ENDCHAR
STARTCHAR uni1EC9
ENCODING 7881
SWIDTH 267 0
DWIDTH 3 0
BBX 5 9 -1 0
BITMAP
00AC10
007500
000000
05F300
08F100
0BD000
0EA010
1F9720
0BE500
ENDCHAR
STARTCHAR uni1ECA
ENCODING 7882
SWIDTH 375 0
DWIDTH 4 0
BBX 5 12 0 -3
BITMAP
03AE40
4DAF10
C5AD00
D2DA00
22F700
04F500
07F200
0AE000
0DB000
000000
2C3000
3E3000
ENDCHAR
STARTCHAR uni1ECB
ENCODING 7883
SWIDTH 267 0
DWIDTH 3 0
BBX 5 11 -1 -3
BITMAP
00C800
00A700
05F300
08F100
0BD000
0EA010
1F9720
0BE500
000000
4C1000
5E1000
ENDCHAR
STARTCHAR uni1ECC
ENCODING 7884
SWIDTH 665 0
DWIDTH 7 0
BBX 8 12 0 -3
BITMAP
018BBC40
1C5857D0
97AD04F2
C6F705F3
28F207F1
0AE00BC0
0CC02F60
0AE1AC00
03DEA100
00000000
00A70000
00C80000
ENDCHAR
STARTCHAR uni1ECD
ENCODING 7885
SWIDTH 433 0
DWIDTH 5 0
BBX 7 9 -1 -3
BITMAP
009DB000
07F2D350
0EB0E710
2F80D000
2F749000
0ADA1000
00000000
06B00000
08C00000
ENDCHAR
STARTCHAR uni1ECE
ENCODING 7886
SWIDTH 665 0
DWIDTH 7 0
BBX 8 12 0 0
BITMAP
00007C30
00000650
00004500
018BBC40
1C5857D0
97AD04F2
C6F705F3
28F207F1
0AE00BC0
0CC02F60
0AE1AC00
03DEA100
ENDCHAR
STARTCHAR uni1ECF
ENCODING 7887
SWIDTH 433 0
DWIDTH 5 0
BBX 7 9 -1 0
BITMAP
0006C400
00047100
00000000
009DB000
07F2D350
0EB0E710
2F80D000
2F749000
0ADA1000
ENDCHAR
STARTCHAR uni1ED0
ENCODING 7888
SWIDTH 665 0
DWIDTH 7 0
BBX 8 12 0 0
BITMAP
00000455
00006A40
00023210
018BBC40
1C5857D0
97AD04F2
C6F705F3
28F207F1
0AE00BC0
0CC02F60
0AE1AC00
03DEA100
ENDCHAR
STARTCHAR uni1ED1
ENCODING 7889
SWIDTH 433 0
DWIDTH 5 0
BBX 7 11 -1 0
BITMAP
00000070
00000480
0002A300
00199100
00100100
009DB000
07F2D350
0EB0E710
2F80D000
2F749000
0ADA1000
ENDCHAR
STARTCHAR uni1ED2
ENCODING 7890
SWIDTH 665 0
DWIDTH 7 0
BBX 8 12 0 0
BITMAP
000002A0
00006C61
00014210
018BBC40
1C5857D0
97AD04F2
C6F705F3
28F207F1
0AE00BC0
0CC02F60
0AE1AC00
03DEA100
ENDCHAR
STARTCHAR uni1ED3
ENCODING 7891
SWIDTH 433 0
DWIDTH 5 0
BBX 7 10 -1 0
BITMAP
00000A20
0002A640
001AA100
00200100
009DB000
07F2D350
0EB0E710
2F80D000
2F749000
0ADA1000
ENDCHAR
STARTCHAR uni1ED4
ENCODING 7892
SWIDTH 665 0
DWIDTH 7 0
BBX 8 12 0 0
BITMAP
00000167
00005D67
00015330
018BBC40
1C5857D0
97AD04F2
C6F705F3
28F207F1
0AE00BC0
0CC02F60
0AE1AC00
03DEA100
ENDCHAR
STARTCHAR uni1ED5
ENCODING 7893
SWIDTH 433 0
DWIDTH 5 0
BBX 7 10 -1 0
BITMAP
00000950
0002A940
001BB200
00201100
009DB000
07F2D350
0EB0E710
2F80D000
2F749000
0ADA1000
ENDCHAR
STARTCHAR uni1ED6
ENCODING 7894
SWIDTH 665 0
DWIDTH 7 0
BBX 8 12 0 0
BITMAP
00008E60
00005B00
00014210
018BBC40
1C5857D0
97AD04F2
C6F705F3
28F207F1
0AE00BC0
0CC02F60
0AE1AC00
03DEA100
ENDCHAR
STARTCHAR uni1ED7
ENCODING 7895
SWIDTH 433 0
DWIDTH 5 0
BBX 7 10 -1 0
BITMAP
00047600
0002B000
00199100
00100100
009DB000
07F2D350
0EB0E710
2F80D000
2F749000
0ADA1000
ENDCHAR
STARTCHAR uni1ED8
ENCODING 7896
SWIDTH 665 0
DWIDTH 7 0
BBX 8 15 0 -3
BITMAP
00000400
0001BC00
00041310
018BBC40
1C5857D0
97AD04F2
C6F705F3
28F207F1
0AE00BC0
0CC02F60
0AE1AC00
03DEA100
00000000
00A70000
00C80000
ENDCHAR
STARTCHAR uni1ED9
ENCODING 7897
SWIDTH 433 0
DWIDTH 5 0
BBX 7 12 -1 -3
BITMAP
0003A000
003BB100
00301100
009DB000
07F2D350
0EB0E710
2F80D000
2F749000
0ADA1000
00000000
06B00000
08C00000
ENDCHAR
STARTCHAR uni1EDA
ENCODING 7898
SWIDTH 665 0
DWIDTH 7 0
BBX 8 12 0 0
BITMAP
00000C40
00004B06
0000421D
018BBB87
1C5857E0
97AD04F2
C6F705F3
28F207F1
0AE00BD0
0CC02F70
0AE1AC10
03DEA100
ENDCHAR
STARTCHAR uni1EDB
ENCODING 7899
SWIDTH 439 0
DWIDTH 5 0
BBX 7 9 -1 0
BITMAP
0000C400
0004B530
00032940
008DBB00
07F3A300
0DC0B400
1F90D100
1F84A000
09DA1000
ENDCHAR
STARTCHAR uni1EDC
ENCODING 7900
SWIDTH 665 0
DWIDTH 7 0
BBX 8 12 0 0
BITMAP
00088000
0003B018
0000202D
018BBB87
1C5857E0
97AD04F2
C6F705F3
28F207F1
0AE00BD0
0CC02F70
0AE1AC10
03DEA100
ENDCHAR
STARTCHAR uni1EDD
ENCODING 7901
SWIDTH 439 0
DWIDTH 5 0
BBX 7 9 -1 0
BITMAP
000D3000
00095630
00011940
008DBA00
07F3A300
0DC0B400
1F90D100
1F84A000
09DA1000
ENDCHAR
STARTCHAR uni1EDE
ENCODING 7902
SWIDTH 665 0
DWIDTH 7 0
BBX 8 12 0 0
BITMAP
00007C30
00000650
0000451B
018BBB79
1C5857E0
97AD04F2
C6F705F3
28F207F1
0AE00BD0
0CC02F70
0AE1AC10
03DEA100
ENDCHAR
STARTCHAR uni1EDF
ENCODING 7903
SWIDTH 439 0
DWIDTH 5 0
BBX 7 9 -1 0
BITMAP
0006C400
00047840
00000A30
008DBA00
07F3A300
0DC0B400
1F90D100
1F84A000
09DA1000
ENDCHAR
STARTCHAR uni1EE0
ENCODING 7904
SWIDTH 665 0
DWIDTH 7 0
BBX 8 11 0 0
BITMAP
001BE936
0011651D
018BBB87
1C5857E0
97AD04F2
C6F705F3
28F207F1
0AE00BD0
0CC02F70
0AE1AC10
03DEA100
ENDCHAR
STARTCHAR uni1EE1
ENCODING 7905
SWIDTH 439 0
DWIDTH 5 0
BBX 7 8 -1 0
BITMAP
009E8530
00031940
008DBB00
07F3A300
0DB0B400
1F90E100
1F97A000
09EA1000
ENDCHAR
STARTCHAR uni1EE2
ENCODING 7906
SWIDTH 665 0
DWIDTH 7 0
BBX 8 13 0 -3
BITMAP
0000001D
018BBB78
1C5857E0
97AD04F2
C6F705F3
28F207F1
0AE00BD0
0CC02F70
0AE1AC10
03DEA100
00000000
00A70000
00C80000
ENDCHAR
STARTCHAR uni1EE3
ENCODING 7907
SWIDTH 439 0
DWIDTH 5 0
BBX 7 11 -1 -3
BITMAP
00000420
00000940
008DBB00
07F3A300
0DC0B400
1F90D100
1F84A000
09DA1000
00000000
06B00000
08C00000
ENDCHAR
STARTCHAR uni1EE4
ENCODING 7908
SWIDTH 716 0
DWIDTH 8 0
BBX 9 12 0 -3
BITMAP
03AE705F30
5A4F408F10
E27F10BC00
E0BC00EA00
20E802F600
02F506F300
04F30AD000
04F65F7000
00BEE80000
0000000000
003C200000
004E200000
ENDCHAR
STARTCHAR uni1EE5
ENCODING 7909
SWIDTH 505 0
DWIDTH 6 0
BBX 7 9 -1 -3
BITMAP
05F39E00
08F1CB00
0BD0F800
0EA3F510
1F9AF680
0BD6EC20
00000000
00B50000
00D70000
ENDCHAR
STARTCHAR uni1EE6
ENCODING 7910
SWIDTH 716 0
DWIDTH 8 0
BBX 9 12 0 0
BITMAP
000009B100
0000009200
0000063000
03AE705F30
5A4F408F10
E27F10BC00
E0BC00EA00
20E802F600
02F506F300
04F30AD000
04F65F7000
00BEE80000
ENDCHAR
STARTCHAR uni1EE7
ENCODING 7911
SWIDTH 505 0
DWIDTH 6 0
BBX 7 9 -1 0
BITMAP
0008C200
00056000
00000000
05F39E00
08F1CB00
0BD0F800
0EA3F510
1F9AF680
0BD6EC20
ENDCHAR
STARTCHAR uni1EE8
ENCODING 7912
SWIDTH 716 0
DWIDTH 8 0
BBX 10 12 0 0
BITMAP
000000B500
000002C067
00000330A5
03AE705F90
5A4F408F10
E27F10BD00
E0BC00EA00
20E802F700
02F506F300
04F30AE000
04F65F7000
00BEE80000
ENDCHAR
STARTCHAR uni1EE9
ENCODING 7913
SWIDTH 505 0
DWIDTH 6 0
BBX 7 9 -1 0
BITMAP
00009700
0001D0D0
000122B0
05F39E20
08F1CB00
0BD0F800
0EA3F510
1F9AF680
0BD6EC20
ENDCHAR
STARTCHAR uni1EEA
ENCODING 7914
SWIDTH 716 0
DWIDTH 8 0
BBX 10 12 0 0
BITMAP
00006A0011
00001C0078
00000200A3
03AE705F60
5A4F408F10
E27F10BC00
E0BC00E900
20E802F600
02F506F300
04F30AD000
04F65F7000
00BEE80000
ENDCHAR
STARTCHAR uni1EEB
ENCODING 7915
SWIDTH 505 0
DWIDTH 6 0
BBX 7 9 -1 0
BITMAP
000C4000
000860D0
000112A0
05F39E10
08F1CB00
0BD0F800
0EA3F510
1F9AF680
0BD6EC20
ENDCHAR
STARTCHAR uni1EEC
ENCODING 7916
SWIDTH 716 0
DWIDTH 8 0
BBX 10 12 0 0
BITMAP
000009B100
0000009256
0000063096
03AE705FA0
5A4F408F10
E27F10BD00
E0BC00EA00
20E802F700
02F506F300
04F30AE000
04F65F7000
00BEE80000
ENDCHAR
STARTCHAR uni1EED
ENCODING 7917
SWIDTH 505 0
DWIDTH 6 0
BBX 7 9 -1 0
BITMAP
0008C200
000560D0
000002B0
05F39E10
08F1CB00
0BD0F800
0EA3F510
1F9AF680
0BD6EC20
ENDCHAR
STARTCHAR uni1EEE
ENCODING 7918
SWIDTH 716 0
DWIDTH 8 0
BBX 10 11 0 0
BITMAP
0000AEB767
00011471A5
03AE705F90
5A4F408F10
E27F10BD00
E0BC00EA00
20E802F700
02F506F300
04F30AE000
04F65F7000
00BEE80000
ENDCHAR
STARTCHAR uni1EEF
ENCODING 7919
SWIDTH 505 0
DWIDTH 6 0
BBX 7 8 -1 0
BITMAP
003DC3B0
000121C0
05F39E20
08F1CB00
0BD0F800
0EA3F510
1F9AF680
0BD6EC20
ENDCHAR
STARTCHAR uni1EF0
ENCODING 7920
SWIDTH 716 0
DWIDTH 8 0
BBX 10 14 0 -3
BITMAP
0000000033
0000000097
03AE705FD1
5A4F408F20
E27F10BE00
E0BC00EB00
20E802F700
02F506F400
04F30AE000
04F65F7000
00BEE80000
0000000000
003C200000
004E200000
ENDCHAR
STARTCHAR uni1EF1
ENCODING 7921
SWIDTH 505 0
DWIDTH 6 0
BBX 7 11 -1 -3
BITMAP
00000060
000001D0
05F39F40
08F1CC00
0BD0F900
0EA3F610
1F9AF680
0BD6EC20
00000000
00B50000
00D70000
ENDCHAR
STARTCHAR Ygrave
ENCODING 7922
SWIDTH 620 0
DWIDTH 7 0
BBX 8 12 0 0
BITMAP
00003D00
00000D00
00000200
03AE7047
4B3FA091
C40DE190
D20AF840
2106FC00
0004F800
0007F500
000AF200
000DE000
ENDCHAR
STARTCHAR ygrave
ENCODING 7923
SWIDTH 505 0
DWIDTH 6 0
BBX 7 12 -1 -3
BITMAP
000D3000
00086000
00011000
05F3AE00
08F1DB00
0BD1F800
0EA3F510
1F9AF370
0BEDF910
008EC000
065F8000
04EC1000
ENDCHAR
STARTCHAR uni1EF4
ENCODING 7924
SWIDTH 620 0
DWIDTH 7 0
BBX 8 12 0 -3
BITMAP
03AE7047
4B3FA091
C40DE190
D20AF840
2106FC00
0004F800
0007F500
000AF200
000DE000
00000000
001C4000
001E5000
ENDCHAR
STARTCHAR uni1EF5
ENCODING 7925
SWIDTH 505 0
DWIDTH 6 0
BBX 7 9 -1 -3
BITMAP
05F3AE00
08F1DB00
0BD1F800
0EA3F510
1F9AF370
0BEDF910
008EC000
065F8710
04EC3D20
ENDCHAR
STARTCHAR uni1EF6
ENCODING 7926
SWIDTH 620 0
DWIDTH 7 0
BBX 8 12 0 0
BITMAP
000009B1
00000092
00000630
03AE7047
4B3FA091
C40DE190
D20AF840
2106FC00
0004F800
0007F500
000AF200
000DE000
ENDCHAR
STARTCHAR uni1EF7
ENCODING 7927
SWIDTH 505 0
DWIDTH 6 0
BBX 7 12 -1 -3
BITMAP
0008C200
00056000
00000000
05F3AE00
08F1DB00
0BD1F800
0EA3F510
1F9AF370
0BEDF910
008EC000
065F8000
04EC1000
ENDCHAR
STARTCHAR uni1EF8
ENCODING 7928
SWIDTH 620 0
DWIDTH 7 0
BBX 8 11 0 0
BITMAP
0002CEA5
00011660
03AE7047
4B3FA091
C40DE190
D20AF840
2106FC00
0004F800
0007F500
000AF200
000DE000
ENDCHAR
STARTCHAR uni1EF9
ENCODING 7929
SWIDTH 505 0
DWIDTH 6 0
BBX 7 11 -1 -3
BITMAP
006DD910
00003100
05F3AE00
08F1DB00
0BD1F800
0EA3F510
1F9AF370
0BEDF910
008EC000
065F8000
04EC1000
ENDCHAR
STARTCHAR uni2010
ENCODING 8208
SWIDTH 290 0
DWIDTH 3 0
BBX 3 1 0 3
BITMAP
8B60
ENDCHAR
STARTCHAR endash
ENCODING 8211
SWIDTH 352 0
DWIDTH 4 0
BBX 4 1 0 3
BITMAP
8BB2
ENDCHAR
STARTCHAR emdash
ENCODING 8212
SWIDTH 444 0
DWIDTH 5 0
BBX 5 1 0 3
BITMAP
8BBB20
ENDCHAR
STARTCHAR quoteleft
ENCODING 8216
SWIDTH 209 0
DWIDTH 2 0
BBX 2 3 1 6
BITMAP
23
C3
C5
ENDCHAR
STARTCHAR quoteright
ENCODING 8217
SWIDTH 238 0
DWIDTH 3 0
BBX 2 3 1 6
BITMAP
C5
A5
40
ENDCHAR
STARTCHAR quotesinglbase
ENCODING 8218
SWIDTH 220 0
DWIDTH 2 0
BBX 2 3 0 -1
BITMAP
D4
C3
40
ENDCHAR
STARTCHAR quotedblleft
ENCODING 8220
SWIDTH 429 0
DWIDTH 5 0
BBX 4 3 1 6
BITMAP
2314
C395
C5A7
ENDCHAR
STARTCHAR quotedblright
ENCODING 8221
SWIDTH 426 0
DWIDTH 5 0
BBX 4 3 1 6
BITMAP
987A
7759
4041
ENDCHAR
STARTCHAR quotedblbase
ENCODING 8222
SWIDTH 440 0
DWIDTH 5 0
BBX 4 3 0 -1
BITMAP
D4C5
C3A5
4040
ENDCHAR
STARTCHAR dagger
ENCODING 8224
SWIDTH 495 0
DWIDTH 5 0
BBX 5 12 0 -3
BITMAP
000B10
000C00
002A00
015810
2FFFE0
14C430
00C000
01B000
048000
075000
0A2000
0C0000
ENDCHAR
STARTCHAR daggerdbl
ENCODING 8225
SWIDTH 495 0
DWIDTH 5 0
BBX 5 12 0 -3
BITMAP
000B10
000C00
002A00
015810
2FFFE0
14C530
00C000
7CEB50
048000
075000
0A2000
0C0000
ENDCHAR
STARTCHAR bullet
ENCODING 8226
SWIDTH 434 0
DWIDTH 5 0
BBX 3 3 1 2
BITMAP
0100
8F40
7E30
ENDCHAR
STARTCHAR ellipsis
ENCODING 8230
SWIDTH 702 0
DWIDTH 8 0
BBX 8 2 0 0
BITMAP
5B0A62C2
7D1D73E3
ENDCHAR
STARTCHAR perthousand
ENCODING 8240
SWIDTH 1175 0
DWIDTH 13 0
BBX 13 9 0 0
BITMAP
04C900B1000000
1E1E0570000000
5B0F1B10000000
692D5700000000
6978B1AD409D60
1B96679695C3C0
000B0C479975B0
00660C3B4A5960
00B007D805DA00
ENDCHAR
STARTCHAR minute
ENCODING 8242
SWIDTH 196 0
DWIDTH 2 0
BBX 3 3 0 6
BITMAP
0970
0C10
2900
ENDCHAR
STARTCHAR second
ENCODING 8243
SWIDTH 341 0
DWIDTH 4 0
BBX 5 3 0 6
BITMAP
098E10
0C5900
298300
ENDCHAR
STARTCHAR guilsinglleft
ENCODING 8249
SWIDTH 359 0
DWIDTH 4 0
BBX 4 4 0 1
BITMAP
0045
3950
7700
03A0
ENDCHAR
STARTCHAR guilsinglright
ENCODING 8250
SWIDTH 344 0
DWIDTH 4 0
BBX 4 4 0 1
BITMAP
1800
03A3
0285
6710
ENDCHAR
STARTCHAR fraction
ENCODING 8260
SWIDTH 248 0
DWIDTH 3 0
BBX 6 9 -1 0
BITMAP
0000B1
000480
000B10
005700
00B100
057000
0B1000
570000
B10000
ENDCHAR
STARTCHAR uni2052
ENCODING 8274
SWIDTH 796 0
DWIDTH 9 0
BBX 7 9 1 0
BITMAP
3E300B10
3C205700
0000B100
00057000
000B1000
00570000
00B00000
06604B00
0B006D10
ENDCHAR
STARTCHAR uni2070
ENCODING 8304
SWIDTH 379 0
DWIDTH 4 0
BBX 4 6 0 3
BITMAP
04C9
1E1E
5B0F
692D
6978
1B90
ENDCHAR
STARTCHAR uni2074
ENCODING 8308
SWIDTH 352 0
DWIDTH 4 0
BBX 4 5 0 4
BITMAP
0978
0A96
39D6
00E0
01D0
ENDCHAR
STARTCHAR uni2075
ENCODING 8309
SWIDTH 335 0
DWIDTH 4 0
BBX 4 7 0 3
BITMAP
0111
08A5
0800
0CC2
39A7
65A5
2B90
ENDCHAR
STARTCHAR uni2076
ENCODING 8310
SWIDTH 351 0
DWIDTH 4 0
BBX 4 6 0 3
BITMAP
04C8
1E26
4CC4
6B68
6975
1B90
ENDCHAR
STARTCHAR uni2077
ENCODING 8311
SWIDTH 329 0
DWIDTH 4 0
BBX 4 5 0 4
BITMAP
4CE4
0180
0A20
4B00
2700
ENDCHAR
STARTCHAR uni2078
ENCODING 8312
SWIDTH 354 0
DWIDTH 4 0
BBX 4 6 0 3
BITMAP
06D7
0B4A
07D2
2AB6
6778
1BB1
ENDCHAR
STARTCHAR uni2079
ENCODING 8313
SWIDTH 345 0
DWIDTH 4 0
BBX 4 6 0 3
BITMAP
09D4
3A59
477A
1AA7
32B2
2730
ENDCHAR
STARTCHAR uni2080
ENCODING 8320
SWIDTH 379 0
DWIDTH 4 0
BBX 4 5 0 0
BITMAP
06CA
2E1F
6A1F
695A
2DB2
ENDCHAR
STARTCHAR uni2081
ENCODING 8321
SWIDTH 229 0
DWIDTH 3 0
BBX 3 6 0 0
BITMAP
0120
5E40
0D10
1D00
3B00
6800
ENDCHAR
STARTCHAR uni2082
ENCODING 8322
SWIDTH 328 0
DWIDTH 4 0
BBX 4 5 0 0
BITMAP
09D4
0986
01A0
0810
5DB2
ENDCHAR
STARTCHAR uni2083
ENCODING 8323
SWIDTH 336 0
DWIDTH 4 0
BBX 4 5 0 0
BITMAP
08D5
0A67
01B1
4797
39A2
ENDCHAR
STARTCHAR uni2084
ENCODING 8324
SWIDTH 352 0
DWIDTH 4 0
BBX 4 5 0 0
BITMAP
0979
0A96
39D6
00E0
01D0
ENDCHAR
STARTCHAR uni2085
ENCODING 8325
SWIDTH 335 0
DWIDTH 4 0
BBX 4 6 0 0
BITMAP
0111
08A4
0800
0CC3
3897
4CB1
ENDCHAR
STARTCHAR uni2086
ENCODING 8326
SWIDTH 351 0
DWIDTH 4 0
BBX 4 5 0 0
BITMAP
06C8
2E16
6BB5
6968
2DB1
ENDCHAR
STARTCHAR uni2087
ENCODING 8327
SWIDTH 329 0
DWIDTH 4 0
BBX 4 5 0 0
BITMAP
4CE5
0190
0930
3C00
4A00
ENDCHAR
STARTCHAR uni2088
ENCODING 8328
SWIDTH 354 0
DWIDTH 4 0
BBX 4 5 0 0
BITMAP
07D8
0B68
08E2
5778
3CC3
ENDCHAR
STARTCHAR uni2089
ENCODING 8329
SWIDTH 345 0
DWIDTH 4 0
BBX 4 5 0 0
BITMAP
0AC4
486A
2B99
1195
4780
ENDCHAR
STARTCHAR colonmonetary
ENCODING 8353
SWIDTH 384 0
DWIDTH 4 0
BBX 5 9 0 -1
BITMAP
008620
02CC40
2E2770
A90000
D70000
B90200
3ED700
369000
223000
ENDCHAR
STARTCHAR franc
ENCODING 8355
SWIDTH 529 0
DWIDTH 6 0
BBX 7 9 0 0
BITMAP
008FCB30
008F1000
00BD0000
00EB0000
03FDB100
06F40000
9DFC5000
0CD00000
0EA00000
ENDCHAR
STARTCHAR lira
ENCODING 8356
SWIDTH 455 0
DWIDTH 5 0
BBX 6 9 0 0
BITMAP
003CD6
00D977
03F400
5DFC70
08E000
8EEB40
0D9000
3F4143
ADCFD3
ENDCHAR
STARTCHAR uni20A6
ENCODING 8358
SWIDTH 723 0
DWIDTH 8 0
BBX 9 9 0 0
BITMAP
004F504D00
007F806A00
00AFA09700
00DED0C400
59FCFAF940
9CECFDEB30
0881FE9000
0B50CF5000
0E209F2000
ENDCHAR
STARTCHAR uni20A9
ENCODING 8361
SWIDTH 841 0
DWIDTH 9 0
BBX 11 9 0 0
BITMAP
08F109E00B00
08F20EE02900
07F24FE07400
07F28CE0A000
5BFADDF9C910
9DFDCDFDC900
06FA18E90000
05FA08F70000
05F607F30000
ENDCHAR
STARTCHAR Euro
ENCODING 8364
SWIDTH 507 0
DWIDTH 6 0
BBX 7 9 0 0
BITMAP
0019CD30
00CB0C70
06F40610
5EFBB300
0DD00000
8FEBB000
0DD00000
0AF10200
02CDA200
ENDCHAR
STARTCHAR uni20AE
ENCODING 8366
SWIDTH 481 0
DWIDTH 5 0
BBX 8 9 0 0
BITMAP
06BED615
790DC8B5
D31F9000
D23F6000
349FB910
48BF7800
69ED3000
00E90000
02F60000
ENDCHAR
STARTCHAR uni20B3
ENCODING 8371
SWIDTH 573 0
DWIDTH 6 0
BBX 7 9 0 0
BITMAP
02ACC800
3C691D50
C5AE0B70
D2DB0E50
32F88C00
1CFC9100
4DFC7000
0AE00000
0DB00000
ENDCHAR
STARTCHAR uni20B4
ENCODING 8372
SWIDTH 570 0
DWIDTH 6 0
BBX 6 9 0 0
BITMAP
02ABE6
0B40BC
0522E6
4BCEBA
7CECB7
1E6000
7F13C5
7F20C7
1BDB91
ENDCHAR
STARTCHAR uni20B8
ENCODING 8376
SWIDTH 522 0
DWIDTH 6 0
BBX 9 9 0 0
BITMAP
0BBBBBBB30
029CC60300
3D2AFBC800
C70CD00000
D41FA00000
323F600000
006F300000
009F000000
00CC000000
ENDCHAR
STARTCHAR uni20B9
ENCODING 8377
SWIDTH 544 0
DWIDTH 6 0
BBX 7 9 0 0
BITMAP
079CA830
188CE810
0008C000
002E5000
3AEB1000
005F5000
005F3000
00AE0000
005A0000
ENDCHAR
STARTCHAR uni20BA
ENCODING 8378
SWIDTH 455 0
DWIDTH 5 0
BBX 6 9 0 0
BITMAP
009E00
00CB00
01FD70
4BF770
28F930
4CE059
0CB05B
0F94D4
3FEA20
ENDCHAR
STARTCHAR uni20BD
ENCODING 8381
SWIDTH 573 0
DWIDTH 6 0
BBX 7 9 0 0
BITMAP
02ACC800
3C691D50
C5AE0B70
D2DB0E50
32F88C00
4CFD9100
8DFC2000
0AE00000
0DB00000
ENDCHAR
STARTCHAR uni2116
ENCODING 8470
SWIDTH 996 0
DWIDTH 11 0
BBX 11 9 0 0
BITMAP
06DF504C0000
6C8F90793B70
C49FC0A6B490
C3CDF1D4F270
12F6F4F1AA10
04C2FBC7EE50
0790EF900000
0A60BF600000
0D308F300000
ENDCHAR
STARTCHAR uni2120
ENCODING 8480
SWIDTH 585 0
DWIDTH 6 0
BBX 5 4 1 4
BITMAP
251440
383AB0
695C90
562540
ENDCHAR
STARTCHAR trademark
ENCODING 8482
SWIDTH 379 0
DWIDTH 4 0
BBX 5 3 -1 5
BITMAP
176560
270BA0
073980
ENDCHAR
STARTCHAR uni2126
ENCODING 8486
SWIDTH 745 0
DWIDTH 8 0
BBX 8 9 0 0
BITMAP
0006DE90
009911C6
05A0005A
0B30005A
0E000078
0E0000C2
0B200590
04903A10
8DE0BDD1
ENDCHAR
STARTCHAR uni212A
ENCODING 8490
SWIDTH 601 0
DWIDTH 7 0
BBX 8 9 0 0
BITMAP
02AE43D1
3C9F2C30
B5AE6700
E2DDB000
53FDC700
04F58F00
07F2AC00
0AE0E900
0DB0D800
ENDCHAR
STARTCHAR uni212B
ENCODING 8491
SWIDTH 668 0
DWIDTH 7 0
BBX 8 12 0 -2
BITMAP
00000045
00000077
000008E7
0000A6F5
000967F1
3ABE7CD0
C6C61EA0
15F12F70
0BA05F40
0F609F10
0F401100
02200000
ENDCHAR
STARTCHAR estimated
ENCODING 8494
SWIDTH 786 0
DWIDTH 9 0
BBX 9 8 0 0
BITMAP
005AAA3000
09A001D500
4F9000DE10
8FD999CC30
8F90000000
4F90000000
09A0019000
005AA92000
ENDCHAR
STARTCHAR uni2153
ENCODING 8531
SWIDTH 733 0
DWIDTH 8 0
BBX 8 9 0 0
BITMAP
03200750
4E301B00
0D108400
1D01B000
4A0844CA
561B065D
00840085
01B00B4C
08400A95
ENDCHAR
STARTCHAR uni2154
ENCODING 8532
SWIDTH 852 0
DWIDTH 9 0
BBX 10 9 0 0
BITMAP
09D4003900
098600A200
0290039000
18000A2000
5CB2391BC1
0000A228B3
0003800490
000A1093E2
0038007790
ENDCHAR
STARTCHAR oneeighth
ENCODING 8539
SWIDTH 741 0
DWIDTH 8 0
BBX 8 9 0 0
BITMAP
03200750
4E301B00
0D108400
1D01B000
4A0844DB
561B0789
008405D6
01B02B3C
08401CC6
ENDCHAR
STARTCHAR threeeighths
ENCODING 8540
SWIDTH 828 0
DWIDTH 9 0
BBX 9 9 0 0
BITMAP
08D5008400
0A6701B000
01B1084000
57961A0000
2881834DB0
0002A07890
0009306D50
002A02A4C0
009301CC50
ENDCHAR
STARTCHAR fiveeighths
ENCODING 8541
SWIDTH 827 0
DWIDTH 9 0
BBX 9 10 0 0
BITMAP
0111000000
08A5008400
080001B000
0CC2084000
39A71A0000
65A5834DA0
2B92A08890
0009306D50
002A02A4B0
009301CC50
ENDCHAR
STARTCHAR seveneighths
ENCODING 8542
SWIDTH 761 0
DWIDTH 8 0
BBX 9 9 0 0
BITMAP
4CE4048000
01800B1000
0A20480000
4B00B10000
270471CC20
000B13C810
005703C900
00B10D0E10
057009C900
ENDCHAR
STARTCHAR partialdiff
ENCODING 8706
SWIDTH 597 0
DWIDTH 7 0
BBX 7 9 0 0
BITMAP
002AD900
00331C50
00000780
00000670
02ADCB50
1C401D10
76004800
7903B100
1BD91000
ENDCHAR
STARTCHAR uni2206
ENCODING 8710
SWIDTH 619 0
DWIDTH 7 0
BBX 7 9 0 0
BITMAP
00006500
0003EB00
000B7D00
004A2F00
00C20E30
06900D50
1D100A70
87000890
CDDDDEA0
ENDCHAR
STARTCHAR product
ENCODING 8719
SWIDTH 661 0
DWIDTH 7 0
BBX 7 9 0 -1
BITMAP
6DEDDED0
05806700
09509400
0C10C100
0D01C000
3A04A000
67076000
A40A3000
51050000
ENDCHAR
STARTCHAR summation
ENCODING 8721
SWIDTH 605 0
DWIDTH 7 0
BBX 7 8 0 0
BITMAP
03EDDDA0
01D30000
006B0000
000C5000
002C2000
02C30000
1C300000
9EDDD400
ENDCHAR
STARTCHAR minus
ENCODING 8722
SWIDTH 471 0
DWIDTH 5 0
BBX 5 1 0 3
BITMAP
6DDD50
ENDCHAR
STARTCHAR uni2215
ENCODING 8725
SWIDTH 488 0
DWIDTH 5 0
BBX 6 9 0 0
BITMAP
000042
0001B0
000840
001B00
009300
02A000
0A2000
390000
A20000
ENDCHAR
STARTCHAR uni2219
ENCODING 8729
SWIDTH 434 0
DWIDTH 5 0
BBX 3 3 1 2
BITMAP
0100
8F40
7E30
ENDCHAR
STARTCHAR radical
ENCODING 8730
SWIDTH 660 0
DWIDTH 7 0
BBX 7 9 0 -1
BITMAP
00008DC0
0000D000
00049000
000A3000
001C0000
9A570000
0DB10000
0BA00000
04300000
ENDCHAR
STARTCHAR infinity
ENCODING 8734
SWIDTH 833 0
DWIDTH 9 0
BBX 8 4 0 1
BITMAP
07D907D9
5909C60E
771AD33B
2DB33CB2
ENDCHAR
STARTCHAR integral
ENCODING 8747
SWIDTH 305 0
DWIDTH 3 0
BBX 7 11 -2 -2
BITMAP
00006A10
0001D000
00059000
00086000
000B3000
000E0000
003C0000
00680000
00950000
00D20000
1A600000
ENDCHAR
STARTCHAR approxequal
ENCODING 8776
SWIDTH 441 0
DWIDTH 5 0
BBX 5 5 0 0
BITMAP
1CC420
102AB0
000000
7DDD50
100000
ENDCHAR
STARTCHAR notequal
ENCODING 8800
SWIDTH 500 0
DWIDTH 6 0
BBX 6 6 0 0
BITMAP
000600
003600
0FFFF1
14A430
8FFF80
257310
ENDCHAR
STARTCHAR lessequal
ENCODING 8804
SWIDTH 405 0
DWIDTH 4 0
BBX 5 6 0 1
BITMAP
000220
029B20
4E6000
05C700
000400
CDDC00
ENDCHAR
STARTCHAR greaterequal
ENCODING 8805
SWIDTH 405 0
DWIDTH 4 0
BBX 5 6 0 1
BITMAP
041000
06C500
006E40
2B9200
220000
BDDD00
ENDCHAR
STARTCHAR lozenge
ENCODING 9674
SWIDTH 619 0
DWIDTH 7 0
BBX 7 9 0 0
BITMAP
00036000
002CD200
00C48700
09702D00
5A000C40
4A003B00
0D11C200
087B4000
02F60000
ENDCHAR
STARTCHAR uni27E8
ENCODING 10216
SWIDTH 456 0
DWIDTH 5 0
BBX 5 12 0 -2
BITMAP
000030
000380
001900
009200
065000
280000
460000
092000
019000
005600
000910
000120
ENDCHAR
STARTCHAR uni27E9
ENCODING 10217
SWIDTH 456 0
DWIDTH 5 0
BBX 5 12 0 -2
BITMAP
220000
190000
055000
009100
002900
000640
000820
005600
029000
091000
830000
300000
ENDCHAR
STARTCHAR ff
ENCODING 64256
SWIDTH 508 0
DWIDTH 6 0
BBX 10 12 -3 -3
BITMAP
00005DBBD8
0000EA5F55
0002F67F20
0005FCEFB1
0008F2CC00
000BE0F900
000EB3F600
002F86F300
005F7AF000
09DF4CC000
389E1E8000
1BEACC1000
ENDCHAR
STARTCHAR fi
ENCODING 64257
SWIDTH 534 0
DWIDTH 6 0
BBX 10 12 -3 -3
BITMAP
00002CCB20
0000CC1E50
0002F70400
0005FC8F30
0008F29E00
000BE0CC00
000EB0F900
002F82F871
005F50CD50
07BF200000
36AD000000
1BD4000000
ENDCHAR
STARTCHAR fl
ENCODING 64258
SWIDTH 548 0
DWIDTH 6 0
BBX 10 12 -3 -3
BITMAP
00005EBA40
0000EA0DB0
0002F71F80
0005FC8F50
0008F17F20
000BE0AE00
000EB0DB01
002F80FA63
005F50AE70
07BF200000
36BD000000
1BD4000000
ENDCHAR
STARTCHAR ffi
ENCODING 64259
SWIDTH 764 0
DWIDTH 8 0
BBX 12 12 -3 -3
BITMAP
00005EA8DC70
0000EA5F58D0
0002F79F0220
0005FCEEBFB0
0008F2EA1F80
000BE3F74F50
000EB6F47F21
002F79F19F37
005F8DD05EB1
08BF2EA00000
379E3F600000
1BEADB000000
ENDCHAR
STARTCHAR ffl
ENCODING 64260
SWIDTH 780 0
DWIDTH 9 0
BBX 12 12 -3 -3
BITMAP
00005EBBDB81
0000EA5F35F4
0002F79F08F1
0005FCEEABD0
0008F2EA0EA0
000BE2F72F70
000EB5F45F41
002F79F16F48
005F8DD03EC2
08BF2EA00000
379E3F600000
1BEADB000000
ENDCHAR
STARTCHAR .notdef
ENCODING -1
SWIDTH 810 0
DWIDTH 9 0
BBX 9 14 0 -3
BITMAP
0028777770
0052000070
0070000160
0070000430
0062780600
03364D0700
0600820700
0601302500
0605305200
1500007000
4200007000
6000006000
6000034000
8777781000
ENDCHAR
STARTCHAR A.salt
ENCODING -1
SWIDTH 590 0
DWIDTH 6 0
BBX 7 11 0 -2
BITMAP
00006EA0
00077F80
00394F50
00C27F20
06D9DE00
0D50CB00
4F11F800
9B03F500
D806F200
D7000000
33000000
ENDCHAR
STARTCHAR B.salt
ENCODING -1
SWIDTH 633 0
DWIDTH 7 0
BBX 7 9 0 0
BITMAP
04ABBA10
5C6A1C60
D3AC3D20
92DEEC10
01F64F70
04F42F80
07F14F50
0AE0AD00
0DEBD300
ENDCHAR
STARTCHAR E.salt
ENCODING -1
SWIDTH 554 0
DWIDTH 6 0
BBX 7 9 0 0
BITMAP
059FAB40
66AE0000
C3CC0000
D3F90000
24FED200
06F40000
09F10000
0BE00000
0EEBB200
ENDCHAR
STARTCHAR N.salt
ENCODING -1
SWIDTH 669 0
DWIDTH 7 0
BBX 8 9 0 0
BITMAP
039EBE80
49BF27F1
C3DC08F0
D3FA0BC0
15F70E90
07F42F60
0AF15F30
0CE07F16
0FB03EA1
ENDCHAR
STARTCHAR i.loclTRK
ENCODING -1
SWIDTH 267 0
DWIDTH 3 0
BBX 5 8 -1 0
BITMAP
00C800
00A700
05F300
08F100
0BD000
0EA010
1F9720
0BE500
ENDCHAR
STARTCHAR a.end
ENCODING -1
SWIDTH 467 0
DWIDTH 5 0
BBX 7 6 -1 0
BITMAP
009DBF30
07F39F00
0DC0BC00
1F90EA00
1F83F700
0AD8CB00
ENDCHAR
STARTCHAR aacute.end
ENCODING -1
SWIDTH 461 0
DWIDTH 5 0
BBX 7 9 -1 0
BITMAP
00007900
0000C100
00013000
009DCF20
08F2AE00
0EB0CB00
2F80F900
2F74F600
0BD8DA00
ENDCHAR
STARTCHAR c.end
ENCODING -1
SWIDTH 341 0
DWIDTH 4 0
BBX 5 6 -1 0
BITMAP
009DA0
08F2C0
0EB000
2F8000
3F7010
0AE910
ENDCHAR
STARTCHAR d.end
ENCODING -1
SWIDTH 476 0
DWIDTH 5 0
BBX 7 9 -1 0
BITMAP
00000230
00000F90
00003F60
009DBF30
07F39F10
0DC0CD00
1F90EA00
1F83F700
0AD8DC10
ENDCHAR
STARTCHAR e.end
ENCODING -1
SWIDTH 366 0
DWIDTH 4 0
BBX 5 6 -1 0
BITMAP
008DB0
07F3D0
0DC6A0
1FD900
2F8010
09EA10
ENDCHAR
STARTCHAR eacute.end
ENCODING -1
SWIDTH 367 0
DWIDTH 4 0
BBX 6 9 -1 0
BITMAP
0000D3
000590
000310
008DB0
06F3D0
0DC6A0
1FD900
1F8010
09EA10
ENDCHAR
STARTCHAR uni0292.end
ENCODING -1
SWIDTH 391 0
DWIDTH 4 0
BBX 5 9 0 -3
BITMAP
7CEE10
93E700
09D000
2F6000
1BD100
06F400
39F500
A6F200
9D7000
ENDCHAR
STARTCHAR g.end
ENCODING -1
SWIDTH 480 0
DWIDTH 5 0
BBX 7 9 -1 -3
BITMAP
009DCF30
07F39F00
0DC0BC00
1F90E900
1F83F600
0ADCF300
006AF100
045CC000
02CD3000
ENDCHAR
STARTCHAR uni01E5.end
ENCODING -1
SWIDTH 507 0
DWIDTH 6 0
BBX 7 9 -1 -3
BITMAP
009DCF30
07F39F00
0DC0BC00
1F90E900
1F83F700
0ADCF400
005AF100
08BEE500
02CD4000
ENDCHAR
STARTCHAR h.end
ENCODING -1
SWIDTH 453 0
DWIDTH 5 0
BBX 6 9 -1 0
BITMAP
002300
00E900
02F600
05FBE6
08F1DA
0BC0F8
0E93F5
2F65F5
5F42EA
ENDCHAR
STARTCHAR i.end
ENCODING -1
SWIDTH 209 0
DWIDTH 2 0
BBX 4 9 -1 0
BITMAP
00A7
00C8
0000
05F3
08F1
0BD0
0EA0
1F91
0BD1
ENDCHAR
STARTCHAR iacute.end
ENCODING -1
SWIDTH 209 0
DWIDTH 2 0
BBX 5 9 -1 0
BITMAP
001E20
007700
003100
05F300
08F100
0BD000
0EA000
1F9100
0BD100
ENDCHAR
STARTCHAR ij.end
ENCODING -1
SWIDTH 480 0
DWIDTH 5 0
BBX 7 11 -1 -3
BITMAP
00C80D60
00A70B50
05F36F30
08F19F00
0BD0CC00
0EA0F900
1F93F600
0BD7F300
007BF100
046DC000
02DD3000
ENDCHAR
STARTCHAR j.end
ENCODING -1
SWIDTH 213 0
DWIDTH 2 0
BBX 6 11 -3 -3
BITMAP
0000D7
0000B6
0005F4
0008F1
000BD0
000EA0
002F70
005F40
09DF10
37AC00
1BD400
ENDCHAR
STARTCHAR k.end
ENCODING -1
SWIDTH 472 0
DWIDTH 5 0
BBX 6 9 -1 0
BITMAP
002300
00EA00
02F700
05F469
08F780
0BFEE4
0EB1F8
2F73F6
5F41DC
ENDCHAR
STARTCHAR l.end
ENCODING -1
SWIDTH 207 0
DWIDTH 2 0
BBX 4 8 -1 0
BITMAP
00B9
01F7
05F4
08F1
0BE0
0EB0
1F80
0CC1
ENDCHAR
STARTCHAR m.end
ENCODING -1
SWIDTH 701 0
DWIDTH 8 0
BBX 9 6 -1 0
BITMAP
05FBE9AE30
08F2EC2F60
0BC1F84F40
0E94F57F10
2F76F29E20
5F49F05E60
ENDCHAR
STARTCHAR n.end
ENCODING -1
SWIDTH 454 0
DWIDTH 5 0
BBX 6 6 -1 0
BITMAP
05FBE6
08F2DA
0BC0F8
0E93F5
2F75F5
5F42EA
ENDCHAR
STARTCHAR o.end
ENCODING -1
SWIDTH 487 0
DWIDTH 5 0
BBX 7 6 -1 0
BITMAP
008DB010
07F3C910
0DC0D500
1F90D100
2F83A000
09EA1000
ENDCHAR
STARTCHAR oacute.end
ENCODING -1
SWIDTH 487 0
DWIDTH 5 0
BBX 7 9 -1 0
BITMAP
0000C400
0003B000
00032000
008DB010
06F3CA10
0DC0D500
1F90D100
1F83B000
09EA1000
ENDCHAR
STARTCHAR s.end
ENCODING -1
SWIDTH 316 0
DWIDTH 3 0
BBX 5 7 -1 0
BITMAP
000210
009F40
00CF50
057F60
1B3F70
493F50
1AD900
ENDCHAR
STARTCHAR t.end
ENCODING -1
SWIDTH 276 0
DWIDTH 3 0
BBX 3 8 0 0
BITMAP
0A80
2F70
8FC0
7F20
AE00
DB00
F900
CC00
ENDCHAR
STARTCHAR u.end
ENCODING -1
SWIDTH 459 0
DWIDTH 5 0
BBX 6 6 -1 0
BITMAP
05F39E
08F1CB
0BD0F8
0EA3F5
1F9AF5
0BD5EB
ENDCHAR
STARTCHAR uacute.end
ENCODING -1
SWIDTH 459 0
DWIDTH 5 0
BBX 6 9 -1 0
BITMAP
0000C4
0004A0
000210
05F39E
08F1CB
0BD0F8
0EA3F5
1F9AF5
0BD5EB
ENDCHAR
STARTCHAR x.end
ENCODING -1
SWIDTH 500 0
DWIDTH 6 0
BBX 6 6 0 0
BITMAP
07E674
43BC94
708F60
50BF20
077F60
570CC1
ENDCHAR
STARTCHAR y.end
ENCODING -1
SWIDTH 460 0
DWIDTH 5 0
BBX 6 9 -1 -3
BITMAP
05F39E
08F1CC
0BD0F9
0EA3F6
1F9AF3
0BDDF0
028DC0
082E80
04CC10
ENDCHAR
STARTCHAR k.salt
ENCODING -1
SWIDTH 518 0
DWIDTH 6 0
BBX 7 9 -1 0
BITMAP
00130000
00E90000
02F60000
05F47800
08FEB200
0BE7F800
0E92F710
2F63F780
5F41CE40
ENDCHAR
STARTCHAR p.salt
ENCODING -1
SWIDTH 482 0
DWIDTH 5 0
BBX 7 10 -1 -3
BITMAP
02830000
05FCE500
08F4BB00
0BD08C30
0EA3DB40
2F9AE300
5F7E7000
8F100000
BD000000
A6000000
ENDCHAR
STARTCHAR E_x
ENCODING -1
SWIDTH 797 0
DWIDTH 9 0
BBX 10 9 0 0
BITMAP
006DB10000
03F2760000
08D0940000
06F2332750
06F60DA370
5F800ADA10
CF2008F200
DF104BF681
5DD961CD40
ENDCHAR
STARTCHAR F_i
ENCODING -1
SWIDTH 726 0
DWIDTH 8 0
BBX 9 9 0 0
BITMAP
05AEFFFC00
586F58C500
C39F100000
D2BE05F400
62EEB9F100
02F80AE000
05F50DB000
08F10F9530
0BD00BE700
ENDCHAR
STARTCHAR T_h
ENCODING -1
SWIDTH 971 0
DWIDTH 11 0
BBX 11 9 0 0
BITMAP
06BEEDCC1000
790DB0CB0000
D31F80E80000
B23F52FBE800
006F35F3BC00
009E08E0DB00
00CC0BC1F800
00F90E93F560
03F61F70CC40
ENDCHAR
STARTCHAR T_i
ENCODING -1
SWIDTH 744 0
DWIDTH 8 0
BBX 9 9 0 0
BITMAP
06AEFFFF00
780CC7C900
D30F800000
D23F51F700
216F34F400
009F07F100
00CC0AD010
00E90CC450
03F608E800
ENDCHAR
STARTCHAR a_x
ENCODING -1
SWIDTH 899 0
DWIDTH 10 0
BBX 12 6 -1 0
BITMAP
009DBF3DA680
07F29F0BD280
0DB0CC08FA10
1F80E906F401
1F97F94BF771
0AE7AE91BE50
ENDCHAR
STARTCHAR a_z
ENCODING -1
SWIDTH 906 0
DWIDTH 10 0
BBX 11 6 -1 0
BITMAP
009DBF3ABFB0
07F39F1B5F30
0DC0BC00DA00
1F90EA06F300
1F83F71DA330
0AD7CB7FDC30
ENDCHAR
STARTCHAR b_s
ENCODING -1
SWIDTH 799 0
DWIDTH 9 0
BBX 11 9 -1 0
BITMAP
002300000000
00EA00000000
02F700023000
05FCD24ED000
08F1CA7BE000
0BD0B80AF000
0EA0D699F510
1F84C639F500
0AEA22BD5000
ENDCHAR
STARTCHAR b_s_x
ENCODING -1
SWIDTH 1144 0
DWIDTH 13 0
BBX 14 8 -1 0
BITMAP
00560000000000
01F80000000000
04FDD21BB2F693
07F3C88CD0F873
0AD0BA1AE0CD60
0DA0E699F2CE04
1FA7D639F86F47
0AEC22BD501DC1
ENDCHAR
STARTCHAR b_s_z
ENCODING -1
SWIDTH 1158 0
DWIDTH 13 0
BBX 14 9 -1 0
BITMAP
00230000000000
00EA0000000000
02F70002300000
05FDE23FD2CCF7
08F1CA8BE369E1
0BD0B90AE02F70
0EA0D699F0AE30
1F84C639E3F6B3
0AEA22BE6BFCA0
ENDCHAR
STARTCHAR c_x
ENCODING -1
SWIDTH 755 0
DWIDTH 8 0
BBX 10 6 -1 0
BITMAP
009DA7F3B1
08F2B4F4A0
0EB002FC50
2F7000FA01
2F7018DD36
09EA815EA0
ENDCHAR
STARTCHAR c_z
ENCODING -1
SWIDTH 769 0
DWIDTH 8 0
BBX 10 6 -1 0
BITMAP
009DA1CDF3
08F2C59CA0
0EB0006F30
2F8000DA00
3F7017F370
0AE92EECA0
ENDCHAR
STARTCHAR e_x
ENCODING -1
SWIDTH 762 0
DWIDTH 8 0
BBX 10 6 -1 0
BITMAP
008DB6F3C1
06F3D3F5A1
0DC6A1FC70
1FD900EC00
1F8007DD37
08EB824EB1
ENDCHAR
STARTCHAR e_z
ENCODING -1
SWIDTH 788 0
DWIDTH 9 0
BBX 10 6 -1 0
BITMAP
009DA2CCF6
08F2D47AD0
0EB7803F60
2FD800BD00
3F7014F551
0AE91CFBB1
ENDCHAR
STARTCHAR eacute_x
ENCODING -1
SWIDTH 760 0
DWIDTH 8 0
BBX 10 9 -1 0
BITMAP
0000B60000
0001D00000
0005700000
009DB6F3C1
07F2D4F5A1
0DC691FC70
2FD900EB00
2F8007DD37
08EB825EB1
ENDCHAR
STARTCHAR f_f_t
ENCODING -1
SWIDTH 780 0
DWIDTH 9 0
BBX 12 12 -3 -3
BITMAP
00005EBBDB81
0000EA5F35F4
0002F79F08F1
0005FCEEBEE7
0008F2EA0DB0
000BE2F71F80
000EB5F44F51
002F79F16F48
005F8DD03EC2
08BF2EA00000
379E3F600000
1BEADB000000
ENDCHAR
STARTCHAR f_i_x
ENCODING -1
SWIDTH 898 0
DWIDTH 10 0
BBX 14 12 -3 -3
BITMAP
00002CCB100000
0000CC1E500000
0002F706100430
0005FC8F3DA6A0
0008F29E0BC270
000BE0CC08F900
000EB0F906F300
002F82F94AF881
005F50CE70BE50
07BF2000000000
36AD0000000000
1BD40000000000
ENDCHAR
STARTCHAR f_i_z
ENCODING -1
SWIDTH 904 0
DWIDTH 10 0
BBX 13 12 -3 -3
BITMAP
00002CCB200000
0000CC1E500000
0002F704000000
0005FC8F3ABFA0
0008F29F1A5F30
000BE0CC00DA00
000EB0F906F200
002F82F71E9540
005F50CD9FDC30
07BF2000000000
36AD0000000000
1BD40000000000
ENDCHAR
STARTCHAR f_l_x
ENCODING -1
SWIDTH 912 0
DWIDTH 10 0
BBX 14 12 -3 -3
BITMAP
00005EBA400000
0000EA0DB00000
0002F71F800000
0005FC7F5BC4A0
0008F17F29F1A0
000BE0AE06FB20
000EB0DB04F601
002F80FB49FA63
005F50AE909E70
07BF2000000000
36BD0000000000
1BD40000000000
ENDCHAR
STARTCHAR f_l_z
ENCODING -1
SWIDTH 938 0
DWIDTH 10 0
BBX 14 12 -3 -3
BITMAP
00005EBA400000
0000EA0DB00000
0002F71F800000
0005FC8F56CEE1
0008F17F283E80
000BE0AE008E10
000EB0DB01E700
002F80FA09E280
005F50AE5FEC70
07BF2000000000
36BD0000000000
1BD40000000000
ENDCHAR
STARTCHAR f_t
ENCODING -1
SWIDTH 548 0
DWIDTH 6 0
BBX 10 12 -3 -3
BITMAP
00005EBA40
0000EA0DB0
0002F71F80
0005FCCFC0
0008F16F30
000BE09E00
000EB0CB01
002F80FA63
005F50AE70
07BF200000
36BD000000
1BD4000000
ENDCHAR
STARTCHAR f_u
ENCODING -1
SWIDTH 772 0
DWIDTH 8 0
BBX 12 12 -3 -3
BITMAP
00004DB10000
0000DA320000
0002F6000000
0005FCDF3AD0
0008F18E0DA0
000BD0CC1F70
000EA0E94F51
002F72F8AF47
005F40CD6EC2
07BF10000000
36BD00000000
1BD400000000
ENDCHAR
STARTCHAR f_x
ENCODING -1
SWIDTH 663 0
DWIDTH 7 0
BBX 11 12 -3 -3
BITMAP
00004DA00000
0000DA530000
0002F6000000
0005FCDF3C00
0008F15F3A10
000BD03FC600
000EA04F9000
002F749CB050
005F4876E810
059F10000000
35CD00000000
1BD400000000
ENDCHAR
STARTCHAR g_p
ENCODING -1
SWIDTH 975 0
DWIDTH 11 0
BBX 12 10 -1 -3
BITMAP
000000057000
009DBF3CEBD2
07F39F0FA2F6
0DC0BC3F62F6
1F90E96F35F3
1F83F68F1BD0
0ADBFBEFEC30
006DF1E90000
037CB2F70000
01CD35C30000
ENDCHAR
STARTCHAR g_x
ENCODING -1
SWIDTH 892 0
DWIDTH 10 0
BBX 12 9 -1 -3
BITMAP
009DBF3E9670
07F29F0CB370
0DB0CC09EA10
1F80E907F200
1F97F63BF781
0AECFA60CD40
006DF1000000
037CB0000000
01CD30000000
ENDCHAR
STARTCHAR g_z
ENCODING -1
SWIDTH 907 0
DWIDTH 10 0
BBX 11 9 -1 -3
BITMAP
009DBF3ABFB0
07F39E1B5F30
0DC0CC00DA00
1F90E906F300
2F83F61DA330
0ADBF37FDC40
007BF0000000
045CB0000000
02CD30000000
ENDCHAR
STARTCHAR i_x
ENCODING -1
SWIDTH 631 0
DWIDTH 7 0
BBX 9 9 -1 0
BITMAP
00A7000000
00C8000000
0000000000
05F3CB5700
08F1AD1900
0BD07FA200
0EA05F5010
1F94AF8720
0CE80AE600
ENDCHAR
STARTCHAR i_z
ENCODING -1
SWIDTH 637 0
DWIDTH 7 0
BBX 8 9 -1 0
BITMAP
00A70000
00C80000
00000000
05F4ABFB
08F1B4F3
0BD00CB0
0EA05F30
1F80DA55
0BD8FDC3
ENDCHAR
STARTCHAR iacute_x
ENCODING -1
SWIDTH 631 0
DWIDTH 7 0
BBX 9 9 -1 0
BITMAP
000E300000
004B000000
0094000000
05F3CB5700
08F1AD1900
0BD07FA200
0EA05F5010
1F94AF8720
0CE80AE600
ENDCHAR
STARTCHAR iacute_z
ENCODING -1
SWIDTH 637 0
DWIDTH 7 0
BBX 8 9 -1 0
BITMAP
001E2000
00770000
00310000
05F4ABFB
08F1D4F3
0BD00CB0
0EA05F30
1F80DA45
0BD8FDC3
ENDCHAR
STARTCHAR j_x
ENCODING -1
SWIDTH 624 0
DWIDTH 7 0
BBX 11 11 -3 -3
BITMAP
0000D6000000
0000B5000000
0005F3DA6600
0008F1BC2900
000BD09EA100
000EA06F3000
002F73BF7810
005FA70BE500
05CF10000000
28BC00000000
1BD400000000
ENDCHAR
STARTCHAR j_z
ENCODING -1
SWIDTH 618 0
DWIDTH 7 0
BBX 10 11 -3 -3
BITMAP
0000C80000
0000B60000
0005F5BCF8
0008F488E1
000BD01E70
000DA09E10
001F82F673
004F5AFDC1
08BF200000
36AD000000
1BD4000000
ENDCHAR
STARTCHAR l_x
ENCODING -1
SWIDTH 631 0
DWIDTH 7 0
BBX 9 8 -1 0
BITMAP
0056000000
00F9000000
03F5CB5700
07F2AD1900
0AE07FA200
0DA05F5010
1F94AF8720
0CE80AE600
ENDCHAR
STARTCHAR l_z
ENCODING -1
SWIDTH 635 0
DWIDTH 7 0
BBX 8 9 -1 0
BITMAP
00340000
00E90000
03F60000
06F4ABFB
09F2B5F3
0BD00DB0
0EA06F30
1F80DA33
0CC8FDC4
ENDCHAR
STARTCHAR m_x
ENCODING -1
SWIDTH 1124 0
DWIDTH 12 0
BBX 14 6 -1 0
BITMAP
05F9E9AE36F3A1
08F2EC2F63F5A1
0BC1F84F41FD50
0E94F57F10EA01
2F76F29E28CD37
5F49F05EB24EA1
ENDCHAR
STARTCHAR m_z
ENCODING -1
SWIDTH 1125 0
DWIDTH 12 0
BBX 14 6 -1 0
BITMAP
05F9E9AE36CEF2
08F2EC2F652D90
0BC1F84F407F20
0E94F57F11E800
2F76F29E08E2A0
5F49F05E8EEB80
ENDCHAR
STARTCHAR n_z
ENCODING -1
SWIDTH 882 0
DWIDTH 10 0
BBX 11 6 -1 0
BITMAP
05F9E62CCF70
08F2DA249D00
0BC0F802F600
0E93F50AD000
2F75F43F5920
5F42EABFCB10
ENDCHAR
STARTCHAR o_ae
ENCODING -1
SWIDTH 1089 0
DWIDTH 12 0
BBX 14 6 -1 0
BITMAP
008DB13ACCAD80
06F3D8501FD3B0
0DC0B35CCF8960
1F90D2F86FC700
1F8493F5AF4051
09EA11CC7CD930
ENDCHAR
STARTCHAR o_s
ENCODING -1
SWIDTH 786 0
DWIDTH 9 0
BBX 10 7 -1 0
BITMAP
0000000220
008DB05FB0
07F3C86DC0
0DC0C40CD0
1F90D47BD5
2F84A81BE4
09EA13CD40
ENDCHAR
STARTCHAR o_s_x
ENCODING -1
SWIDTH 1132 0
DWIDTH 12 0
BBX 14 6 -1 0
BITMAP
008DB03DA4F4B2
06F3C76DC2F691
0DC0C40CD0ED50
1F90E57BD3DC04
1FA7A81BE78E36
09EB13CD302EB1
ENDCHAR
STARTCHAR o_s_z
ENCODING -1
SWIDTH 1139 0
DWIDTH 13 0
BBX 14 7 -1 0
BITMAP
00000002200000
008DB05FB4CDF4
07F3C86DB54CB0
0DC0C40CC05F40
1F90D47BD0CB20
2F84A81BC6F3E0
09EA13CD5DFB80
ENDCHAR
STARTCHAR o_x
ENCODING -1
SWIDTH 851 0
DWIDTH 9 0
BBX 11 6 -1 0
BITMAP
008DB07F3C10
06F3B5AF4A10
0DC0D72FC700
2F90D13FA000
2F73A49CC060
09EA1775E910
ENDCHAR
STARTCHAR oacute_s
ENCODING -1
SWIDTH 787 0
DWIDTH 9 0
BBX 10 9 -1 0
BITMAP
0000C40000
0003B00000
0003200220
008DB05FB0
06F3C86DC0
0DC0C40CD0
1F90D57BE5
1F84A81BE4
09EA13CD40
ENDCHAR
STARTCHAR oacute_s_x
ENCODING -1
SWIDTH 1141 0
DWIDTH 13 0
BBX 14 9 -1 0
BITMAP
0000C400000000
0003B000000000
00032002200000
008DB04FB3CDF4
06F3C86DC54BC0
0DC0C40CC04F40
1F90D57BD0CB20
1F84A81BD5F4E1
09EA13CD5DFB90
ENDCHAR
STARTCHAR oacute_s_z
ENCODING -1
SWIDTH 1140 0
DWIDTH 13 0
BBX 14 9 -1 0
BITMAP
0000C400000000
0003B000000000
00032002200000
008DB05FB4CDF4
06F3C86DC54BC0
0DC0C40CC04F40
1F90D57BD0CB20
1F84A81BC6F3E1
09EA13CD5DFB90
ENDCHAR
STARTCHAR oacute_x
ENCODING -1
SWIDTH 852 0
DWIDTH 9 0
BBX 11 9 -1 0
BITMAP
0000C5000000
0002D0000000
000660000000
008DB07F3C10
06F3B5AF4A10
0DC0D82FC700
1F90D13FA000
2F83A49BC060
09EA1785E910
ENDCHAR
STARTCHAR r_x
ENCODING -1
SWIDTH 784 0
DWIDTH 9 0
BBX 10 7 -1 0
BITMAP
0000000093
05FAE6F446
08E0A3F7A2
0BC000DD70
0E9002DE00
2F701A8F16
5F403D1DB3
ENDCHAR
STARTCHAR r_z
ENCODING -1
SWIDTH 654 0
DWIDTH 7 0
BBX 8 6 -1 0
BITMAP
05FAECED
08F3A3F6
0BD00AD0
0EA03F50
2F70BC38
5F44FEC6
ENDCHAR
STARTCHAR s_x
ENCODING -1
SWIDTH 727 0
DWIDTH 8 0
BBX 10 6 -1 0
BITMAP
006C3BC480
00CF59E190
048F66FA20
0A3F65F501
483FB8F963
1AD9109E60
ENDCHAR
STARTCHAR s_z
ENCODING -1
SWIDTH 744 0
DWIDTH 8 0
BBX 9 7 -1 0
BITMAP
0014100000
00AF48CED0
00CF5A3F60
067F60AD00
1B3F73F500
493F5BD370
1AD94FEC60
ENDCHAR
STARTCHAR t_x
ENCODING -1
SWIDTH 631 0
DWIDTH 7 0
BBX 9 8 -1 0
BITMAP
0012000000
01F7000000
09FCEB5900
07F2BD1900
0AE08F9200
0DB06F5000
1F809F6320
0CD81BD600
ENDCHAR
STARTCHAR t_z
ENCODING -1
SWIDTH 704 0
DWIDTH 8 0
BBX 8 8 0 0
BITMAP
0A800000
2F700000
8FC1CCF7
7F2388E1
AE002F70
DB009D00
F903F672
CC1BFCB1
ENDCHAR
STARTCHAR u_v
ENCODING -1
SWIDTH 923 0
DWIDTH 10 0
BBX 11 6 -1 0
BITMAP
05F39E0EC3A0
08F1CB1F90A0
0BD0F83F60A0
0EA3F56F3570
1F9AF28F4C10
0BDDE04ED300
ENDCHAR
STARTCHAR u_x
ENCODING -1
SWIDTH 878 0
DWIDTH 10 0
BBX 11 6 -1 0
BITMAP
05F39E2F7840
08F1CB0E9560
0BD0F80CCA00
0EA3F509F100
1F9AF66CF580
0BD5DE71DD30
ENDCHAR
STARTCHAR y_p
ENCODING -1
SWIDTH 954 0
DWIDTH 11 0
BBX 12 10 -1 -3
BITMAP
000000065000
05F3AE0FDDC0
08F1DB3F65F3
0BD1F86F36F2
0EA3F59F09F0
1F9AF2CC1EA0
0BEDFAFEEB10
007EC3F60000
065F86F30000
04EC18B00000
ENDCHAR
STARTCHAR y_x
ENCODING -1
SWIDTH 871 0
DWIDTH 10 0
BBX 11 9 -1 -3
BITMAP
05F39E3F6930
08F1CB0F8640
0BD0F80DC900
0EA3F50BE010
1F9AF26CF480
0CEDF952EC20
007EC0000000
064F80000000
04EC10000000
ENDCHAR
STARTCHAR y_z
ENCODING -1
SWIDTH 888 0
DWIDTH 10 0
BBX 11 9 -1 -3
BITMAP
05F39E1CCF80
08F1CC378E10
0BD0F902F700
0EA3F609E100
1F9AF32F6830
0BEDF0AFCB10
017DC0000000
072E80000000
04CC10000000
ENDCHAR
STARTCHAR a_x.end
ENCODING -1
SWIDTH 884 0
DWIDTH 10 0
BBX 11 6 -1 0
BITMAP
009DBF3DA680
07F29F0BD280
0DB0CC08FA10
1F80E906F400
1F97F94BF710
0AE7AE91BD10
ENDCHAR
STARTCHAR b_s.end
ENCODING -1
SWIDTH 731 0
DWIDTH 8 0
BBX 9 9 -1 0
BITMAP
0023000000
00EA000000
02F7000230
05FCD24ED0
08F1CA7BE0
0BD0B80AE0
0EA0D699F0
1F84C639E0
0AEA22BE60
ENDCHAR
STARTCHAR e_x.end
ENCODING -1
SWIDTH 747 0
DWIDTH 8 0
BBX 10 6 -1 0
BITMAP
008DB6F3C1
06F3D3F5A1
0DC6A1FC70
1FD900EB00
1F8007DD00
08EB935E70
ENDCHAR
STARTCHAR f_u.end
ENCODING -1
SWIDTH 724 0
DWIDTH 8 0
BBX 11 12 -3 -3
BITMAP
00004DB10000
0000DA320000
0002F6000000
0005FCDF3AD0
0008F18E0DA0
000BD0CC1F70
000EA0E94F50
002F72F8AF40
005F40CD5EA0
07BF10000000
36BD00000000
1BD400000000
ENDCHAR
STARTCHAR fi.end
ENCODING -1
SWIDTH 479 0
DWIDTH 5 0
BBX 9 12 -3 -3
BITMAP
00002CCB20
0000CC1E50
0002F70400
0005FC8F30
0008F29E00
000BE0CC00
000EB0F900
002F82F800
005F50CD10
07BF200000
36AD000000
1BD4000000
ENDCHAR
STARTCHAR fl.end
ENCODING -1
SWIDTH 490 0
DWIDTH 5 0
BBX 9 12 -3 -3
BITMAP
00005EBA40
0000EA0DB0
0002F71F80
0005FC8F50
0008F17F20
000BE0AE00
000EB0DB00
002F80FA10
005F50AE20
07BF200000
36BD000000
1BD4000000
ENDCHAR
STARTCHAR i_x.end
ENCODING -1
SWIDTH 616 0
DWIDTH 7 0
BBX 8 9 -1 0
BITMAP
00A70000
00C80000
00000000
05F3CB57
08F1AD19
0BD07FA2
0EA05F50
1F94AF81
0CE80AD2
ENDCHAR
STARTCHAR o_s.end
ENCODING -1
SWIDTH 718 0
DWIDTH 8 0
BBX 9 7 -1 0
BITMAP
0000000220
008DB05FB0
07F3C86DB0
0DC0C40CC0
1F90D47BD0
2F84A81BC0
09EA13CD40
ENDCHAR
STARTCHAR oacute_s.end
ENCODING -1
SWIDTH 719 0
DWIDTH 8 0
BBX 9 9 -1 0
BITMAP
0000C40000
0003B00000
0003200220
008DB05FB0
06F3C86DC0
0DC0C40CC0
1F90D57BD0
1F84A81BC0
09EA13CD40
ENDCHAR
STARTCHAR u_x.end
ENCODING -1
SWIDTH 863 0
DWIDTH 10 0
BBX 11 6 -1 0
BITMAP
05F39E2F7840
08F1CB0E9560
0BD0F80CCA00
0EA3F609F100
1F99F55CF400
0BD5DE82DC00
ENDCHAR
STARTCHAR uni0424.loclBGR
ENCODING -1
SWIDTH 840 0
DWIDTH 9 0
BBX 10 12 0 -2
BITMAP
005BCC5000
02E24F5000
00519F5000
03B8CE7D30
3E60DB08D0
9D01F805F2
CB04F507F1
BC07F20CB0
6F3AE08E30
07BEEC9200
000F900000
0015300000
ENDCHAR
STARTCHAR uni0492.loclBSH
ENCODING -1
SWIDTH 459 0
DWIDTH 5 0
BBX 7 9 0 0
BITMAP
049EAB40
56AE0000
C3CC0000
D2FA0000
65FED200
06F50000
09F10000
0BD00000
0EA00000
ENDCHAR
STARTCHAR uni04AA.loclCHU
ENCODING -1
SWIDTH 497 0
DWIDTH 5 0
BBX 6 12 0 -3
BITMAP
008EC6
07F51D
1EC048
6F6000
9F3000
BF1000
BF1001
9F6156
2CFE70
009500
003E00
038500
ENDCHAR
STARTCHAR uni0418.loclSRB
ENCODING -1
SWIDTH 705 0
DWIDTH 8 0
BBX 8 9 0 0
BITMAP
02AE509F
3B8F20DC
B5AE09F9
C3DB5EF6
12FBD8F3
03FF49F0
06F80CC0
09E00E90
0CC03F60
ENDCHAR
STARTCHAR uni0419.loclSRB
ENCODING -1
SWIDTH 705 0
DWIDTH 8 0
BBX 8 12 0 0
BITMAP
00001001
0001F364
0000AB60
02AE509F
3B8F20DC
B5AE09F9
C3DB5EF6
12FBD8F3
03FF49F0
06F80CC0
09E00E90
0CC03F60
ENDCHAR
STARTCHAR uni0430.end
ENCODING -1
SWIDTH 467 0
DWIDTH 5 0
BBX 7 6 -1 0
BITMAP
009DBF30
07F39F00
0DC0BC00
1F90EA00
1F83F700
0AD8CB00
ENDCHAR
STARTCHAR uni0432.end
ENCODING -1
SWIDTH 406 0
DWIDTH 4 0
BBX 6 9 -1 0
BITMAP
001BC2
008B46
01E556
06F183
0BD0A0
0EA7C1
2F80B4
1F81D1
08EB40
ENDCHAR
STARTCHAR uni0434.end
ENCODING -1
SWIDTH 480 0
DWIDTH 5 0
BBX 7 9 -1 -3
BITMAP
009DCF30
07F39F00
0DC0BC00
1F90E900
1F83F600
0ADCF300
006AF100
045CC000
02CD3000
ENDCHAR
STARTCHAR uni0435.end
ENCODING -1
SWIDTH 366 0
DWIDTH 4 0
BBX 5 6 -1 0
BITMAP
008DB0
07F3D0
0DC6A0
1FD900
2F8010
09EA10
ENDCHAR
STARTCHAR uni0451.end
ENCODING -1
SWIDTH 366 0
DWIDTH 4 0
BBX 6 8 -1 0
BITMAP
008787
001111
008DB0
07F3D0
0DC6A0
1FD900
2F8010
09EA10
ENDCHAR
STARTCHAR uni0436.end
ENCODING -1
SWIDTH 848 0
DWIDTH 9 0
BBX 11 6 -1 0
BITMAP
06CC19D1BD50
050E6CA8C340
000ECFDF7000
132F5F5F5000
586B6F2F5010
2CB28E08D900
ENDCHAR
STARTCHAR uni0437.end
ENCODING -1
SWIDTH 426 0
DWIDTH 5 0
BBX 5 9 0 -3
BITMAP
06CD30
350F90
701F90
607E20
09F600
00CB00
07CD00
64DA00
3CD200
ENDCHAR
STARTCHAR uni0438.end
ENCODING -1
SWIDTH 459 0
DWIDTH 5 0
BBX 6 6 -1 0
BITMAP
05F39E
08F1CB
0BD0F8
0EA3F5
1F9AF5
0BD5EB
ENDCHAR
STARTCHAR uni0439.end
ENCODING -1
SWIDTH 459 0
DWIDTH 5 0
BBX 7 9 -1 0
BITMAP
00240310
008C0800
003A9200
05F39E00
08F1CB00
0BD0F800
0EA3F500
1F9AF500
0BD5EB00
ENDCHAR
STARTCHAR uni043A.end
ENCODING -1
SWIDTH 501 0
DWIDTH 6 0
BBX 7 6 -1 0
BITMAP
05F46D40
08F74100
0BFFE200
0EB4F400
2F75F400
5F42EB00
ENDCHAR
STARTCHAR uni043B.end
ENCODING -1
SWIDTH 511 0
DWIDTH 6 0
BBX 7 6 -1 0
BITMAP
0003CF80
000A4F50
000A6F20
02378E00
5B74AD10
3CA06E50
ENDCHAR
STARTCHAR uni043C.end
ENCODING -1
SWIDTH 780 0
DWIDTH 9 0
BBX 10 6 -1 0
BITMAP
0003D806F7
0009C90DF4
0008B95CF1
0126AAAAD0
5B639E7BC1
2BA08E17E4
ENDCHAR
STARTCHAR uni043D.end
ENCODING -1
SWIDTH 460 0
DWIDTH 5 0
BBX 6 6 -1 0
BITMAP
05F38E
08F0BC
0BEBF9
0E92F6
2F74F4
5F41D9
ENDCHAR
STARTCHAR uni043E.end
ENCODING -1
SWIDTH 439 0
DWIDTH 5 0
BBX 6 6 -1 0
BITMAP
008DB0
06F3A3
0DC0B3
1F90D1
2F83A0
09EA10
ENDCHAR
STARTCHAR uni043F.end
ENCODING -1
SWIDTH 454 0
DWIDTH 5 0
BBX 6 6 -1 0
BITMAP
05FBE6
08F2DA
0BC0F8
0E93F5
2F75F5
5F42EA
ENDCHAR
STARTCHAR uni0441.end
ENCODING -1
SWIDTH 341 0
DWIDTH 4 0
BBX 5 6 -1 0
BITMAP
009DA0
08F2C0
0EB000
2F8000
3F7010
0AE910
ENDCHAR
STARTCHAR uni0442.end
ENCODING -1
SWIDTH 701 0
DWIDTH 8 0
BBX 9 6 -1 0
BITMAP
05FBE9AE30
08F2EC2F60
0BC1F84F40
0E94F57F10
2F76F29E20
5F49F05E60
ENDCHAR
STARTCHAR uni0443.end
ENCODING -1
SWIDTH 460 0
DWIDTH 5 0
BBX 6 9 -1 -3
BITMAP
05F39E
08F1CC
0BD0F9
0EA3F6
1F9AF3
0BDDF0
028DC0
082E80
04CC10
ENDCHAR
STARTCHAR uni0445.end
ENCODING -1
SWIDTH 500 0
DWIDTH 6 0
BBX 6 6 0 0
BITMAP
07E674
43BC94
708F60
50BF20
077F60
570CC1
ENDCHAR
STARTCHAR uni0447.end
ENCODING -1
SWIDTH 459 0
DWIDTH 5 0
BBX 5 6 0 0
BITMAP
5F3AE0
8F1DB0
AE5F80
6EBF50
005F70
002EA0
ENDCHAR
STARTCHAR uni0448.end
ENCODING -1
SWIDTH 706 0
DWIDTH 8 0
BBX 9 6 -1 0
BITMAP
05F39E0EA0
08F1CB2F70
0BD0F85F40
0EA3F57F10
1F9AF6DF20
0BD6EC6E60
ENDCHAR
STARTCHAR uni044B.end
ENCODING -1
SWIDTH 608 0
DWIDTH 7 0
BBX 7 6 0 0
BITMAP
5F200990
8E01BF60
BB8C5F30
E90E7F00
F76B9E10
9FC26E50
ENDCHAR
STARTCHAR uni0455.end
ENCODING -1
SWIDTH 316 0
DWIDTH 3 0
BBX 5 7 -1 0
BITMAP
000210
009F40
00CF50
057F60
1B3F70
493F50
1AD900
ENDCHAR
STARTCHAR uni0456.end
ENCODING -1
SWIDTH 209 0
DWIDTH 2 0
BBX 4 9 -1 0
BITMAP
00A7
00C8
0000
05F3
08F1
0BD0
0EA0
1F91
0BD1
ENDCHAR
STARTCHAR uni0458.end
ENCODING -1
SWIDTH 213 0
DWIDTH 2 0
BBX 6 11 -3 -3
BITMAP
0000D7
0000B6
0005F4
0008F1
000BD0
000EA0
002F70
005F40
09DF10
37AC00
1BD400
ENDCHAR
STARTCHAR uni044E.end
ENCODING -1
SWIDTH 675 0
DWIDTH 7 0
BBX 8 6 -1 0
BITMAP
05F33CD6
08F1DC1C
0BECF62C
0E98F34A
2F67F294
5F42CC70
ENDCHAR
STARTCHAR uni044F.end
ENCODING -1
SWIDTH 480 0
DWIDTH 5 0
BBX 7 6 -1 0
BITMAP
006CCF30
02F47F00
03F3AC00
00ADE900
4A75F800
3CA0CD10
ENDCHAR
STARTCHAR uni0437.init
ENCODING -1
SWIDTH 455 0
DWIDTH 5 0
BBX 6 9 0 -3
BITMAP
19E900
718F20
108F20
01DA01
2ED144
04F770
29F700
96F300
8D8000
ENDCHAR
STARTCHAR uni0445.init
ENCODING -1
SWIDTH 390 0
DWIDTH 4 0
BBX 6 7 -1 0
BITMAP
0001A0
09E0A1
06F6A0
02FD10
08F900
66BB06
885E80
ENDCHAR
STARTCHAR uni0436.loclBGR
ENCODING -1
SWIDTH 882 0
DWIDTH 10 0
BBX 11 9 -1 0
BITMAP
000000830000
000003F40000
000006F10000
06CC19D1BD50
050E6CA8C340
000ECFDF7000
132F5F5F5020
586B6F2F5060
2CB28E08D810
ENDCHAR
STARTCHAR uni043A.loclBGR
ENCODING -1
SWIDTH 518 0
DWIDTH 6 0
BBX 7 9 -1 0
BITMAP
00230000
00EA0000
02F70000
05F47800
08FA9000
0BFBF600
0EA1F810
2F73F780
5F41DE40
ENDCHAR
STARTCHAR uni044E.loclBGR
ENCODING -1
SWIDTH 675 0
DWIDTH 7 0
BBX 10 9 -1 0
BITMAP
0066000000
00F9000000
03F6000000
06F33CC700
08F1DC4D65
0BECF63D30
0E98F35A00
2F67F2A400
5F42CC7000
ENDCHAR
STARTCHAR uni0493.loclBSH
ENCODING -1
SWIDTH 398 0
DWIDTH 4 0
BBX 6 6 -1 0
BITMAP
09DAB4
0C9000
1FB920
4F4000
6F2600
3EA200
ENDCHAR
STARTCHAR uni04AB.loclCHU
ENCODING -1
SWIDTH 384 0
DWIDTH 4 0
BBX 6 9 -1 -3
BITMAP
008DB0
06F3B0
0DB000
1F8001
1F9163
09FD30
004810
002A40
008700
ENDCHAR
STARTCHAR uni0453.loclMKD
ENCODING -1
SWIDTH 267 0
DWIDTH 3 0
BBX 5 11 -1 0
BITMAP
000A60
002900
000000
08BB20
000000
05F300
08F100
0BD000
0EA010
1F9720
0BE500
ENDCHAR
STARTCHAR uni0433.loclSRB
ENCODING -1
SWIDTH 267 0
DWIDTH 3 0
BBX 5 8 -1 0
BITMAP
08BB20
000000
05F300
08F100
0BD000
0EA010
1F9720
0BE500
ENDCHAR
STARTCHAR uni043F.loclSRB
ENCODING -1
SWIDTH 505 0
DWIDTH 6 0
BBX 7 8 -1 0
BITMAP
007BBA00
00000000
05F39E00
08F1CB00
0BD0F800
0EA3F510
1F9AF680
0BD6EC20
ENDCHAR
STARTCHAR uni0442.loclSRB
ENCODING -1
SWIDTH 752 0
DWIDTH 8 0
BBX 10 8 -1 0
BITMAP
006BBBBB50
0000000000
05F39E0EA0
08F1CB2F70
0BD0F85F40
0EA3F57F11
1F9AF6DF36
0BD6EC6EA0
ENDCHAR
STARTCHAR uni04150437
ENCODING -1
SWIDTH 940 0
DWIDTH 10 0
BBX 11 12 0 -3
BITMAP
007DC2000000
05F276000000
08D082000000
03F6006CC200
1DD10332F700
9F500503F700
DF102309D110
CF2040BF4060
4DC7100DB610
0000019EB000
0000074F7000
000004DB1000
ENDCHAR
STARTCHAR uni04150445
ENCODING -1
SWIDTH 797 0
DWIDTH 9 0
BBX 10 9 0 0
BITMAP
006DB10000
03F2760000
08D0940000
06F2332750
06F60DA370
5F800ADA10
CF2008F200
DF104BF681
5DD961CD40
ENDCHAR
STARTCHAR uni04010437
ENCODING -1
SWIDTH 940 0
DWIDTH 10 0
BBX 11 14 0 -3
BITMAP
004C4B000000
000101000000
007DC2000000
05F276000000
08D082000000
03F6006CC200
1DD10332F700
9F500503F700
DF102309D110
CF2040BF4060
4DC7100DB610
0000019EB000
0000074F7000
000004DB1000
ENDCHAR
STARTCHAR uni04010445
ENCODING -1
SWIDTH 797 0
DWIDTH 9 0
BBX 10 11 0 0
BITMAP
004C4B0000
0001010000
006DB10000
03F2760000
08D0940000
06F2332750
06F60DA370
5F800ADA10
CF2008F200
DF104BF681
5DD961CD40
ENDCHAR
STARTCHAR uni04210437
ENCODING -1
SWIDTH 973 0
DWIDTH 11 0
BBX 11 12 0 -3
BITMAP
008EC6000000
07F51D000000
1FC048000000
6F70003AE500
9F300050CD00
BF100410DC00
BF100504F500
9F40416F9070
2BE92008E630
0000006CF100
0000018AD000
000000BD4000
ENDCHAR
STARTCHAR uni04210445
ENCODING -1
SWIDTH 814 0
DWIDTH 9 0
BBX 10 9 0 0
BITMAP
008EC50000
07F51C0000
1FC02C0000
6F60252570
9F300AD190
BF1008FA20
BF1005F501
9F604BF762
2CEC70AE60
ENDCHAR
STARTCHAR uni04040437
ENCODING -1
SWIDTH 973 0
DWIDTH 11 0
BBX 11 12 0 -3
BITMAP
008EC6000000
07F61D000000
1FD048000000
6F80003AE500
9FCB4050CD00
BF200410DC00
BF100504F500
9F30416F9070
2BE92008E630
0000006CF100
0000018AD000
000000BD4000
ENDCHAR
STARTCHAR uni04040445
ENCODING -1
SWIDTH 814 0
DWIDTH 9 0
BBX 10 9 0 0
BITMAP
008EC50000
07F61C0000
1FD02C0000
6F80252570
9FCB4AD190
BF2008F920
BF1005F500
9F504BF753
2CEC70AE60
ENDCHAR
STARTCHAR uni04300445
ENCODING -1
SWIDTH 899 0
DWIDTH 10 0
BBX 12 6 -1 0
BITMAP
009DBF3DA680
07F29F0BD280
0DB0CC08FA10
1F80E906F401
1F97F94BF771
0AE7AE91BE50
ENDCHAR
STARTCHAR uni04300447
ENCODING -1
SWIDTH 993 0
DWIDTH 11 0
BBX 13 6 -1 0
BITMAP
009DBF3F94F500
07F39F3F67F200
0DC0CC5F6CE000
1F90EA2ECEC120
1F83F7000F9410
0AD8CB000AD400
ENDCHAR
STARTCHAR uni04310433
ENCODING -1
SWIDTH 816 0
DWIDTH 9 0
BBX 11 9 -1 0
BITMAP
002CDDD10000
002FFF800000
000650000000
008DD06CD300
08F2A844F600
0EB0B91CF200
2F80E3DE4010
1F7494F70510
08EA11CD9200
ENDCHAR
STARTCHAR uni04310453
ENCODING -1
SWIDTH 816 0
DWIDTH 9 0
BBX 11 9 -1 0
BITMAP
002CDDD1A600
002FFF82C000
000650022000
008DD06CD300
08F2A844F600
0EB0B91CF200
2F80E3DE4010
1F7494F70510
08EA11CD9200
ENDCHAR
STARTCHAR uni04310451
ENCODING -1
SWIDTH 814 0
DWIDTH 9 0
BBX 11 9 -1 0
BITMAP
002EFFA00000
002FDC382920
000760000000
007CE01BD800
07F3A3BD3B00
0EB0B5F89600
1F80E6FC6000
1F8595F41710
08EB11CEB200
ENDCHAR
STARTCHAR uni04310436
ENCODING -1
SWIDTH 1261 0
DWIDTH 14 0
BBX 16 9 -1 0
BITMAP
002CDDD100000000
002FFF8000000000
0007500000000000
007CD2AE71F65DC0
07F3AB17D5F4F570
0EC0B707EDFDE000
1F80D1099AB8C001
1F73A73E4D98D061
08DA17B81F62DB40
ENDCHAR
STARTCHAR uni04310439
ENCODING -1
SWIDTH 935 0
DWIDTH 10 0
BBX 12 9 -1 0
BITMAP
002CDDB85060
002FFE5C8360
00075005A700
007CD09E0EA0
07F3A3CC1F80
0EC0B4F94F50
1F80D4F67F20
1F73A5F4BF06
08DA12EB9E81
ENDCHAR
STARTCHAR uni0431045E
ENCODING -1
SWIDTH 916 0
DWIDTH 10 0
BBX 12 12 -1 -3
BITMAP
002CDDB85060
002FFE5C8360
00075005A700
007CD09E0EA0
07F3A3CC1F70
0EC0B4F94F40
1F80D4F67F20
1F73A5F4BE25
08DA12EBFD80
00000017F900
00000096F400
0000008E9000
ENDCHAR
STARTCHAR uni0431044D
ENCODING -1
SWIDTH 860 0
DWIDTH 9 0
BBX 10 9 -1 0
BITMAP
002CDDD100
002FFF8000
0007500000
007CD16BE7
07F3AA60AE
0EC0BB0BEE
1F80D410DA
1F73A954F3
08DA15BC50
ENDCHAR
STARTCHAR uni04310456
ENCODING -1
SWIDTH 697 0
DWIDTH 8 0
BBX 9 9 -1 0
BITMAP
002DEE9D30
002FEC3E40
0007500000
007CD09E00
07F3A3CC00
0EC0B4F900
1F80D4F600
1F73A5F460
08DA12EB30
ENDCHAR
STARTCHAR uni04310457
ENCODING -1
SWIDTH 697 0
DWIDTH 8 0
BBX 10 9 -1 0
BITMAP
002EFF4000
002FD95592
0007600000
007CE09E00
07F3A3CC00
0EC0B4F900
1F80D4F600
1F7395F460
08DA12EB30
ENDCHAR
STARTCHAR uni04310458
ENCODING -1
SWIDTH 669 0
DWIDTH 7 0
BBX 9 12 -1 -3
BITMAP
0000017000
003EFF8E30
000ADA3C20
007C709E00
07F3A1CC00
0EC0B4F900
1F80E5F600
1F73B6F370
08DA29F820
00008EC000
00065F8000
0004DC1000
ENDCHAR
STARTCHAR uni04320433
ENCODING -1
SWIDTH 837 0
DWIDTH 9 0
BBX 11 9 -1 0
BITMAP
001BC2000000
008B46000000
01E556000000
06F1833AE400
0BD0A342F800
0EA7D51BF400
2F80B4BF5000
1F81D2F90430
08EB40BE9400
ENDCHAR
STARTCHAR uni04320453
ENCODING -1
SWIDTH 837 0
DWIDTH 9 0
BBX 11 9 -1 0
BITMAP
001BC2008800
008B4601D100
01E556012000
06F1833AE400
0BD0A342F800
0EA7D51BF400
2F80B4BF5000
1F81D2F90430
08EB40BE9400
ENDCHAR
STARTCHAR uni04320436
ENCODING -1
SWIDTH 1279 0
DWIDTH 14 0
BBX 16 9 -1 0
BITMAP
001BC20000000000
008B460000000000
01E5560000000000
06F1838DA0D93CC1
0BD09614F3F6D8A2
0EA7E304FCFCF310
2F80B306C8E5F001
1F81C55B7AC5F143
08EA34BA0D91BC60
ENDCHAR
STARTCHAR uni04320437
ENCODING -1
SWIDTH 824 0
DWIDTH 9 0
BBX 11 12 -1 -3
BITMAP
001BC2000000
008B46000000
01E556000000
06F1837DB000
0BD0A627F300
0EA7D407F300
2F80B40DB010
1F81D2DD1340
08EB403F8600
000002AF7000
0000096F4000
000007D90000
ENDCHAR
STARTCHAR uni04320445
ENCODING -1
SWIDTH 851 0
DWIDTH 9 0
BBX 11 9 -1 0
BITMAP
001BC2000000
008B46000000
01E556000000
06F183AE2B20
0BD0A89F6A20
0EA7D40FC700
2F80B41EA000
1F81D19CB060
08EB4934E910
ENDCHAR
STARTCHAR uni04330437
ENCODING -1
SWIDTH 840 0
DWIDTH 9 0
BBX 11 9 -1 -3
BITMAP
03AE605CC100
080EB334F600
01AF6505F500
0CE5330AD110
3F8060CE2160
1CE8101EA700
000001AFA000
0000084F6000
000005DA1000
ENDCHAR
STARTCHAR uni04330445
ENCODING -1
SWIDTH 740 0
DWIDTH 8 0
BBX 10 6 -1 0
BITMAP
02AE6BC290
080EB8F2B0
02AF65FC30
0CE504F600
3F8049E925
1CEA607E70
ENDCHAR
STARTCHAR uni04330447
ENCODING -1
SWIDTH 880 0
DWIDTH 10 0
BBX 11 6 -1 0
BITMAP
03AE63F58F10
080EB6F2BD00
01AF6AF5FA00
0CE519EBF820
3F806003F670
1CE81001DD30
ENDCHAR
STARTCHAR uni04530437
ENCODING -1
SWIDTH 840 0
DWIDTH 9 0
BBX 11 12 -1 -3
BITMAP
0001E2000000
000680000000
000410000000
03AE605CC100
080EB334F600
01AF6505F500
0CE5330AD110
3F8060CE2160
1CE8101EA700
000001AFA000
0000084F6000
000005DA1000
ENDCHAR
STARTCHAR uni04530445
ENCODING -1
SWIDTH 740 0
DWIDTH 8 0
BBX 10 9 -1 0
BITMAP
0000E30000
0004B00000
0009500000
02AF6BC290
080EB8F2B0
02AF65FC30
0CE504F600
3F8049E925
1CEA607E70
ENDCHAR
STARTCHAR uni04530447
ENCODING -1
SWIDTH 880 0
DWIDTH 10 0
BBX 11 9 -1 0
BITMAP
0001E2000000
000680000000
000410000000
03AE63F58F10
080EB6F2BD00
01AF6AF5FA00
0CE519EBF820
3F806003F670
1CE81001DD30
ENDCHAR
STARTCHAR uni04340447
ENCODING -1
SWIDTH 1010 0
DWIDTH 11 0
BBX 13 9 -1 -3
BITMAP
009DBF3CC1F800
07F39F0F94F500
0DC0CC2F8AF200
1F90E95CDDE020
1F83F6500CC230
0AECF82007E600
004BF000000000
037CB000000000
02CD3000000000
ENDCHAR
STARTCHAR uni04340458
ENCODING -1
SWIDTH 746 0
DWIDTH 8 0
BBX 10 11 -1 -3
BITMAP
00000005E1
00000004C1
009DBF3CC0
07F39F0E90
0DC0BC2F60
1F90E95F40
1F83F68F16
0ADCF4CE91
003AE1FB00
037DC5F600
02DD9EB100
ENDCHAR
STARTCHAR uni04350437
ENCODING -1
SWIDTH 876 0
DWIDTH 10 0
BBX 11 9 -1 -3
BITMAP
008DB03BE500
06F3D150DC00
0DC6A500EB00
1FD90505F400
1F80416F8070
09E93009E630
0000007DF100
0000028BC000
000001BD4000
ENDCHAR
STARTCHAR uni04350445
ENCODING -1
SWIDTH 762 0
DWIDTH 8 0
BBX 10 6 -1 0
BITMAP
008DB6F3C1
06F3D3F5A1
0DC6A1FC70
1FD900EC00
1F8007DD37
08EB824EB1
ENDCHAR
STARTCHAR uni04350447
ENCODING -1
SWIDTH 889 0
DWIDTH 10 0
BBX 12 6 -1 0
BITMAP
008DB2F76F30
06F3D5F49F00
0DC6A8F2DC00
1FD91DFEF900
1F808201F771
09E93000DD40
ENDCHAR
STARTCHAR uni04510437
ENCODING -1
SWIDTH 876 0
DWIDTH 10 0
BBX 11 11 -1 -3
BITMAP
008787000000
001111000000
008DB03BE500
06F3D150DC00
0DC6A500EB00
1FD90505F400
1F80416F8070
09E93009E630
0000007DF100
0000028BC000
000001BD4000
ENDCHAR
STARTCHAR uni04510445
ENCODING -1
SWIDTH 762 0
DWIDTH 8 0
BBX 10 8 -1 0
BITMAP
0087870000
0011110000
008DB6F3C1
06F3D3F5A1
0DC6A1FC70
1FD900EC00
1F8007DD37
08EB824EB1
ENDCHAR
STARTCHAR uni04510447
ENCODING -1
SWIDTH 889 0
DWIDTH 10 0
BBX 12 8 -1 0
BITMAP
008787000000
001111000000
008DB2F76F30
06F3D5F49F00
0DC6A8F2DC00
1FD91DFEF900
1F808201F771
09E93000DD40
ENDCHAR
STARTCHAR uni04360447
ENCODING -1
SWIDTH 1392 0
DWIDTH 15 0
BBX 17 6 -1 0
BITMAP
06CC19D1BD5AE0EA00
050E6CA8C34DB2F700
000ECFDF702FBAF400
142F5F5F506BECF130
586B6F2F51600AE450
2CB28E08D80005E900
ENDCHAR
STARTCHAR uni04370437
ENCODING -1
SWIDTH 921 0
DWIDTH 10 0
BBX 11 9 0 -3
BITMAP
06CD308DB000
450F9416F400
701F9506F400
607E440CB010
09F551DE1250
00CC602F8800
06DE018F9000
46DA095F5000
3CC207DA0000
ENDCHAR
STARTCHAR uni04380447
ENCODING -1
SWIDTH 1010 0
DWIDTH 11 0
BBX 13 6 -1 0
BITMAP
05F39E0CC1F800
08F1CB0F94F500
0BD0F83F8AF200
0EA3F56CDDE030
1F9AF6700CD530
0BD6EC2007E700
ENDCHAR
STARTCHAR uni04390447
ENCODING -1
SWIDTH 1010 0
DWIDTH 11 0
BBX 13 9 -1 0
BITMAP
00240310000000
008C0800000000
003A9200000000
05F39E0CC1F800
08F1CB0F94F500
0BD0F83F8AF200
0EA3F56CDDE030
1F9AF6700CD530
0BD6EC2007E700
ENDCHAR
STARTCHAR uni043A0447
ENCODING -1
SWIDTH 1016 0
DWIDTH 11 0
BBX 13 6 -1 0
BITMAP
05F46D4AE0EA00
08F7410DB2F700
0BFFE21F97F400
0EB5F44CECF120
2F75F4800AE350
5F42DD3006E900
ENDCHAR
STARTCHAR uni045C0447
ENCODING -1
SWIDTH 1016 0
DWIDTH 11 0
BBX 13 9 -1 0
BITMAP
0000A600000000
0002C000000000
00022000000000
05F46D4AE0EA00
08F7410DB2F700
0BFFE21F97F400
0EB5F44CECF120
2F75F4800AE350
5F42DD3006E900
ENDCHAR
STARTCHAR uni043B0447
ENCODING -1
SWIDTH 1061 0
DWIDTH 12 0
BBX 13 6 -1 0
BITMAP
0003CF83F58F10
000A4F56F2BD00
000A6F29F4FB00
14379E09EBF830
6C74BC2303F650
2CA07E6001DB20
ENDCHAR
STARTCHAR uni043C0447
ENCODING -1
SWIDTH 1276 0
DWIDTH 14 0
BBX 16 6 -1 0
BITMAP
0008F20DD0DB2F60
000BF25FA1F85F40
000DF3BF74F7BF10
142AF7BF47DDDD03
6B66FE6F5700DC62
2B93F92DC1008E60
ENDCHAR
STARTCHAR uni043D0447
ENCODING -1
SWIDTH 1011 0
DWIDTH 11 0
BBX 13 6 -1 0
BITMAP
05F38E0CC1F800
08F0BC0E94F500
0BEBF92F9BF200
0E92F65CDDF020
2F74F4500CC230
5F41DA2007E600
ENDCHAR
STARTCHAR uni043E0433
ENCODING -1
SWIDTH 804 0
DWIDTH 9 0
BBX 11 6 -1 0
BITMAP
008DB15BE400
06F3DA42F800
0DC0C41CF300
1F90D2DE4000
2F8495F60610
09EA12DD8100
ENDCHAR
STARTCHAR uni043E0453
ENCODING -1
SWIDTH 804 0
DWIDTH 9 0
BBX 11 9 -1 0
BITMAP
000000004C00
00000000A400
000000005000
008DB15BE400
06F3DA42F800
0DC0C41CF300
1F90D2DE4000
2F8495F60610
09EA12DD8100
ENDCHAR
STARTCHAR uni043E0436
ENCODING -1
SWIDTH 1271 0
DWIDTH 14 0
BBX 16 6 -1 0
BITMAP
008DB19D90E74DC1
06F3DB25F3F5E770
0DC0B405FCFCF100
1F90E307B9D7E002
2F84AB2C5CA6E052
09EA18B90E81CB50
ENDCHAR
STARTCHAR uni043E0437
ENCODING -1
SWIDTH 837 0
DWIDTH 9 0
BBX 11 9 -1 -3
BITMAP
008DB17CC100
06F3DA25F500
0DC0C305F500
1F90D10BC010
2F8490DE2160
09EA101F9700
0000019F9000
0000084F6000
000006DA0000
ENDCHAR
STARTCHAR uni043E043B
ENCODING -1
SWIDTH 992 0
DWIDTH 11 0
BBX 13 6 -1 0
BITMAP
008DB0006DF400
06F3A300B6F200
0DC0B30379E000
1F90D1074CB000
2F83A77A1E9420
09EC88C80AD600
ENDCHAR
STARTCHAR uni043E043C
ENCODING -1
SWIDTH 1207 0
DWIDTH 13 0
BBX 15 6 -1 0
BITMAP
008DB000CD02FA00
06F3A300EE08F700
0DB0B303EF1DF400
1F80D115BF7BF110
2F97AA887FB9E360
09ED86A76F65EA00
ENDCHAR
STARTCHAR uni043E0445
ENCODING -1
SWIDTH 850 0
DWIDTH 9 0
BBX 11 6 -1 0
BITMAP
008DB07F3C10
06F3B5AF4A10
0DC0D72FC700
2F90D13FA000
2F73A49CC060
09EA1775E910
ENDCHAR
STARTCHAR uni043E0459
ENCODING -1
SWIDTH 1179 0
DWIDTH 13 0
BBX 14 6 -1 0
BITMAP
008DB0006DF400
06F3A300B6F420
0DC0B30379FCF5
1F90D1074CB0E7
2F83A88A1E93F3
09EC88C807DC50
ENDCHAR
STARTCHAR uni043E044D
ENCODING -1
SWIDTH 867 0
DWIDTH 10 0
BBX 11 6 -1 0
BITMAP
008DB15AE800
06F3DA509F10
0DC0B40BEF00
1F90D210CC00
2F84A863F400
09EA14BB6000
ENDCHAR
STARTCHAR uni043F0447
ENCODING -1
SWIDTH 1010 0
DWIDTH 11 0
BBX 13 6 -1 0
BITMAP
05FBE60CC1F800
08F2DA0E94F500
0BC0F92F8BF200
0E93F65CDDE020
2F75F3500CC230
5F41DA2007E600
ENDCHAR
STARTCHAR uni04400437
ENCODING -1
SWIDTH 890 0
DWIDTH 10 0
BBX 12 10 -1 -3
BITMAP
028300000000
05FBE729E600
08F1AE70BE00
0BD0BC00BE00
0EA0E903F700
2F76F45EA071
5FDE7007F850
8F10005CF300
BD0000A9E100
C70000AD5000
ENDCHAR
STARTCHAR uni04410437
ENCODING -1
SWIDTH 876 0
DWIDTH 10 0
BBX 11 9 -1 -3
BITMAP
008DC03BE500
06F38050DC00
0DC00500EB00
1F900505F410
1F80416F8070
09E93009E630
0000007DF100
0000028BC000
000001BD4000
ENDCHAR
STARTCHAR uni04410445
ENCODING -1
SWIDTH 755 0
DWIDTH 8 0
BBX 10 6 -1 0
BITMAP
009DA7F3B1
08F2B4F4A0
0EB002FC50
2F7000FA01
2F7018DD36
09EA815EA0
ENDCHAR
STARTCHAR uni04410447
ENCODING -1
SWIDTH 889 0
DWIDTH 10 0
BBX 12 6 -1 0
BITMAP
008DB2F76F30
06F3A5F49F00
0DC008F4EC00
1F9009EBF911
1F806102F770
09E92000CD40
ENDCHAR
STARTCHAR uni0441044A
ENCODING -1
SWIDTH 841 0
DWIDTH 9 0
BBX 11 6 -1 0
BITMAP
008DB3CD6000
06F3C88D1000
0DC021CDC900
1F9007F56F10
1F805BF2AC00
09E942DCB200
ENDCHAR
STARTCHAR uni04420447
ENCODING -1
SWIDTH 1257 0
DWIDTH 14 0
BBX 16 6 -1 0
BITMAP
05FBE9AE31F86F40
08F2EC2F64F49F10
0BC1F84F57F5ED00
0E94F57F27EBFA11
2F76F29E0501F850
5F49F04E8000BC30
ENDCHAR
STARTCHAR uni04430447
ENCODING -1
SWIDTH 989 0
DWIDTH 11 0
BBX 13 9 -1 -3
BITMAP
05F3AE1F85F400
08F1DB3F58F100
0BD1F86F5DD000
0EA4F58EBFA110
1FABF3600FA810
0BDDF7000BE500
018EC000000000
075F8000000000
04EC1000000000
ENDCHAR
STARTCHAR uni04430458
ENCODING -1
SWIDTH 725 0
DWIDTH 8 0
BBX 10 11 -1 -3
BITMAP
00000009C0
00000007A0
05F39E0F90
08F1CB3F60
0BD0F86F30
0EA3F59F01
1F9AF2CC43
0BDDF3FD60
008ED8F600
065F96F200
04DDAE8000
ENDCHAR
STARTCHAR uni045E0447
ENCODING -1
SWIDTH 989 0
DWIDTH 11 0
BBX 13 12 -1 -3
BITMAP
00240310000000
008C0800000000
003A9200000000
05F3AE1F85F400
08F1DB3F58F100
0BD1F86F5DD000
0EA4F58EBFA110
1FABF3600FA810
0BDDF7000BE500
018EC000000000
075F8000000000
04EC1000000000
ENDCHAR
STARTCHAR uni045E0458
ENCODING -1
SWIDTH 725 0
DWIDTH 8 0
BBX 10 11 -1 -3
BITMAP
006B0809C0
003B930690
05F39E0F90
08F1CB3F60
0BD0F86F30
0EA3F59F01
1F9AF2CC43
0BDDF2FD60
006DB4F600
065F98F200
04ECAE8000
ENDCHAR
STARTCHAR uni04440437
ENCODING -1
SWIDTH 1148 0
DWIDTH 13 0
BBX 14 12 -1 -3
BITMAP
00000220000000
00000F70000000
00003F40000000
008DBFAE54AE40
06F39D0CC50EC0
0DC0CA0CA00EB0
1F80E70E605F41
2F84F45F17F707
0ADBFCD5009D63
0009D00007DF10
000CA00028BC00
000C50001BD300
ENDCHAR
STARTCHAR uni04450447
ENCODING -1
SWIDTH 1027 0
DWIDTH 11 0
BBX 12 6 0 0
BITMAP
07E6749E0EB0
43AC94CB1F80
708F50EB8F50
40BF02CECF22
086F35009F15
560BB3005E80
ENDCHAR
STARTCHAR uni0445044A
ENCODING -1
SWIDTH 1006 0
DWIDTH 11 0
BBX 11 6 0 0
BITMAP
06E695ABE100
34BB76E78000
609EA03FBC40
709F10AD0D90
15BF25FA2F50
481CC69EC700
ENDCHAR
STARTCHAR uni04470447
ENCODING -1
SWIDTH 1010 0
DWIDTH 11 0
BBX 12 6 0 0
BITMAP
5F3AE0CC1F80
8F1DB0F94F50
AE5F83F8AF20
6EBF56CDDE03
005F6700CD53
002EC2007E70
ENDCHAR
STARTCHAR uni04480447
ENCODING -1
SWIDTH 1257 0
DWIDTH 14 0
BBX 16 6 -1 0
BITMAP
05F39E0EA1F85F30
08F1CB2F74F48F10
0BD0F85F47F5DD00
0EA3F57F18EBFA11
1F9AF6DF4501F970
0BD6EC6E9000BD40
ENDCHAR
STARTCHAR uni045F0447
ENCODING -1
SWIDTH 1010 0
DWIDTH 11 0
BBX 13 9 -1 -3
BITMAP
05F39E0CC1F800
08F1CB0F94F500
0BD0F83F8AF200
0EA3F56CDDE030
1F9AF6700CD530
0BD5EC2007E700
001A0000000000
004F2000000000
000C0000000000
ENDCHAR
STARTCHAR uni044B0447
ENCODING -1
SWIDTH 1157 0
DWIDTH 13 0
BBX 14 6 0 0
BITMAP
5F200993F67F20
8E01BF66F3AE00
BB8C5F38F2EB00
E90E7F0AEBF811
F76B9E4503F880
9FC26EA001DD30
ENDCHAR
STARTCHAR uni04550437
ENCODING -1
SWIDTH 840 0
DWIDTH 9 0
BBX 11 10 -1 -3
BITMAP
000310000000
009F407DC100
00BF5434F600
056F6605F500
1B2F840AD110
484FB0CE2160
1ADB201EA700
000001AFA000
0000084F6000
000005DA1000
ENDCHAR
STARTCHAR uni04550445
ENCODING -1
SWIDTH 727 0
DWIDTH 8 0
BBX 10 6 -1 0
BITMAP
006C3BC480
00CF59E190
048F66FA20
0A3F65F501
483FB8F963
1AD9109E60
ENDCHAR
STARTCHAR uni04550447
ENCODING -1
SWIDTH 909 0
DWIDTH 10 0
BBX 12 7 -1 0
BITMAP
001410000000
00AF40EA3F60
00CF52F76F30
056F66F7CF00
1B3F77DCEC02
463FB100DB62
1AD910009E60
ENDCHAR
STARTCHAR uni04540437
ENCODING -1
SWIDTH 876 0
DWIDTH 10 0
BBX 11 9 -1 -3
BITMAP
008DC03BE500
06E26050DC00
0DEB0500EB00
1F800505F410
1F80416F8070
09E93009E630
0000007DF100
0000028BC000
000001BD4000
ENDCHAR
STARTCHAR uni04540445
ENCODING -1
SWIDTH 755 0
DWIDTH 8 0
BBX 10 6 -1 0
BITMAP
009CB7F3C1
08E184F5A0
0EDB01FD30
2F7001FA02
2F8019CD46
09EA815EA0
ENDCHAR
STARTCHAR uni04540447
ENCODING -1
SWIDTH 889 0
DWIDTH 10 0
BBX 12 6 -1 0
BITMAP
008DC2F76F30
06E285F49F00
0DEB09F5EC00
1F8009EBF921
1F806002F770
09E82000CD40
ENDCHAR
STARTCHAR uni044D0437
ENCODING -1
SWIDTH 837 0
DWIDTH 9 0
BBX 11 9 -1 -3
BITMAP
03AEB18DC100
0405FB25F500
009DF305F500
0208D00BC020
581E60DE2260
2CB8001FA800
000001AF9000
0000094F6000
000006DA0000
ENDCHAR
STARTCHAR uni04560447
ENCODING -1
SWIDTH 763 0
DWIDTH 8 0
BBX 10 9 -1 0
BITMAP
00A7000000
00C8000000
0000000000
05F38F1CC0
08F1AD0F90
0BD0DC7F60
0EA2CECF33
1F97008F46
0BE4004EB1
ENDCHAR
STARTCHAR uni04570447
ENCODING -1
SWIDTH 763 0
DWIDTH 8 0
BBX 10 8 -1 0
BITMAP
0A5A500000
0101000000
05F38F1CC0
08F1AD0F90
0BD0DC7F60
0EA2CECF33
1F97008F46
0BE4004EB1
ENDCHAR
STARTCHAR uni04570457
ENCODING -1
SWIDTH 543 0
DWIDTH 6 0
BBX 8 8 -1 0
BITMAP
0A6D79B4
01010110
05F36F30
08F19E00
0BD0CC00
0EA0F901
1F97F881
0BD6CD50
ENDCHAR
STARTCHAR uni04580447
ENCODING -1
SWIDTH 743 0
DWIDTH 8 0
BBX 12 11 -3 -3
BITMAP
0000D7000000
0000B5000000
0005F4BD1F90
0008F1EA3F60
000BD2F99F30
000EA5CDDE03
002F7600BE64
005FA2007E80
06CF10000000
28BC00000000
1BD400000000
ENDCHAR
STARTCHAR uni04580458
ENCODING -1
SWIDTH 480 0
DWIDTH 5 0
BBX 9 11 -3 -3
BITMAP
0000D74E20
0000B53C10
0005F4BD00
0008F1EA00
000BD2F700
000E95F420
001F68F460
004F8CE800
04AF2EA000
28CD4F7000
1DD8EB1000
ENDCHAR
STARTCHAR uni045B0447
ENCODING -1
SWIDTH 990 0
DWIDTH 11 0
BBX 13 12 -1 -3
BITMAP
00560000000000
00F90000000000
0AFD9000000000
06F3001F76F300
08FAC44F49F000
0BE1F87F4DC000
0EA2F58EBF9110
2F75F3501FA800
5F48F7000CD400
007EB000000000
065E7000000000
04DC1000000000
ENDCHAR
STARTCHAR uni045B0458
ENCODING -1
SWIDTH 722 0
DWIDTH 8 0
BBX 10 11 -1 -3
BITMAP
00B80009B0
09FD900010
06F3001F80
08FAC43F50
0BE1F86F20
0EA2F69E01
2F75F2CC53
5F48E2FC60
005DB4F600
065F99F200
04ECAE7000
ENDCHAR
STARTCHAR uni044E0433
ENCODING -1
SWIDTH 1050 0
DWIDTH 12 0
BBX 13 6 -1 0
BITMAP
05F33CC718DB00
08F1DC4E918F20
0BECF62C05EC00
0E98F3596FB110
2F67F2A3BE0250
5F42CC606EB600
ENDCHAR
STARTCHAR uni044E0453
ENCODING -1
SWIDTH 1050 0
DWIDTH 12 0
BBX 13 9 -1 0
BITMAP
00000000000A60
00000000002C00
00000000002200
05F33CC718DB00
08F1DC4E918F20
0BECF62C05EC00
0E98F3596FB110
2F67F2A3BE0250
5F42CC606EB600
ENDCHAR
STARTCHAR uni044E0436
ENCODING -1
SWIDTH 1507 0
DWIDTH 17 0
BBX 18 6 -1 0
BITMAP
05F33CC73BE46F19D8
08F1DC4E90B99D5E26
0BECF63D00BDEDEA00
0E98F35920D5F7D802
2F67F2A6B3E3F4C806
5F42CC71CB45F25E91
ENDCHAR
STARTCHAR uni044E0437
ENCODING -1
SWIDTH 1073 0
DWIDTH 12 0
BBX 14 9 -1 -3
BITMAP
05F33CC73AE700
08F1DC4E70BE00
0BECF62C00BE00
0E98F35902F711
2F67F2A35EA061
5F42CC6007F640
000000004CF300
00000000A9E100
00000000AD5000
ENDCHAR
STARTCHAR uni044E043B
ENCODING -1
SWIDTH 1228 0
DWIDTH 14 0
BBX 15 6 -1 0
BITMAP
05F33CD6000AED00
08F1DC1C0056CB00
0BECF62C0092F800
0E98F34A20B3F520
2F67F295E495F360
5F42CCC6BC32DA20
ENDCHAR
STARTCHAR uni044E043C
ENCODING -1
SWIDTH 1443 0
DWIDTH 16 0
BBX 18 6 -1 0
BITMAP
05F33CD6003F707F40
08F1DC1C006F80DF10
0BECF62C008E95ED00
0E98F34A208D98DB11
2F67F295E38DD6F851
5F42CCC6BA2CE1AD40
ENDCHAR
STARTCHAR uni044E0445
ENCODING -1
SWIDTH 1088 0
DWIDTH 12 0
BBX 14 6 -1 0
BITMAP
05F33CC70DB590
08F1DC3D9BE480
0BECF63D17F900
0E98F35A2DF401
2F67F2A4B3F752
5F42CC70C29D50
ENDCHAR
STARTCHAR uni044E0459
ENCODING -1
SWIDTH 1415 0
DWIDTH 16 0
BBX 17 6 -1 0
BITMAP
05F33CD6000AED0000
08F1DC1C0056CC7300
0BECF62C0092FAAE00
0E98F34A30B3F46F10
2F67F295E495F3AB00
5F42CCC6BC31CCB100
ENDCHAR
STARTCHAR uni044E044D
ENCODING -1
SWIDTH 1103 0
DWIDTH 12 0
BBX 13 6 -1 0
BITMAP
05F33CC718CD30
08F1DC4E920F90
0BECF63D04BF90
0E98F359203F50
2F67F2A4D09D00
5F42CC70AAB200
ENDCHAR
STARTCHAR uni044F0447
ENCODING -1
SWIDTH 1030 0
DWIDTH 11 0
BBX 13 6 -1 0
BITMAP
006CCF39F0DB00
02F47F0BC1F800
03F3AC0EA5F600
01ADEA2EEEF310
5B75F76108F160
3CA0CC5005E810
ENDCHAR
STARTCHAR uni04300445.liga
ENCODING -1
SWIDTH 884 0
DWIDTH 10 0
BBX 11 6 -1 0
BITMAP
009DBF3DA680
07F29F0BD280
0DB0CC08FA10
1F80E906F400
1F97F94BF810
0AE7AE91BD10
ENDCHAR
STARTCHAR uni04300447.liga
ENCODING -1
SWIDTH 947 0
DWIDTH 10 0
BBX 12 6 -1 0
BITMAP
009DBF3F94F5
07F39F3F67F2
0DC0CC5F6CE0
1F90EA2ECEC0
1F83F7000F90
0AD8CB000AD2
ENDCHAR
STARTCHAR uni04310451.liga
ENCODING -1
SWIDTH 746 0
DWIDTH 8 0
BBX 11 9 -1 0
BITMAP
002EFFA00000
002FDC382920
000760000000
007CE01BD800
07F3A3AD3B00
0EB0B5F89600
1F80E6FC6000
1F9695F64100
08EB11CE9000
ENDCHAR
STARTCHAR uni04310436.liga
ENCODING -1
SWIDTH 1258 0
DWIDTH 14 0
BBX 15 9 -1 0
BITMAP
002CDDD100000000
002FFF8000000000
0007500000000000
007CD2AE71F65DC0
07F3AB17D5F4E570
0EC0B707EDFDE000
1F80D1099AC8C000
1F73A73E4D98D010
08DA17B81F62DB50
ENDCHAR
STARTCHAR uni04310439.liga
ENCODING -1
SWIDTH 901 0
DWIDTH 10 0
BBX 11 9 -1 0
BITMAP
002CDDB85060
002FFE5C8360
00075005A700
007CD09E0EA0
07F3A3CC1F80
0EC0B4F94F50
1F80D4F67F20
1F73A5F4BF00
08DA12EB9E60
ENDCHAR
STARTCHAR uni0431045E.liga
ENCODING -1
SWIDTH 890 0
DWIDTH 10 0
BBX 11 12 -1 -3
BITMAP
002CDDB85060
002FFE5C8360
00075005A700
007CD09E0EB0
07F3A3CC1F80
0EB0B4F94F50
1F80E4F67F20
1F97A5F6DE00
08EB12ECEB00
00000048F800
00000094F400
0000007D9000
ENDCHAR
STARTCHAR uni04310456.liga
ENCODING -1
SWIDTH 639 0
DWIDTH 7 0
BBX 9 9 -1 0
BITMAP
002DEE9D30
002FEC3E40
0007500000
007CD09E00
07F3A3CC00
0EC0B4F900
1F80D4F600
1F73A5F400
08DA12EA00
ENDCHAR
STARTCHAR uni04310457.liga
ENCODING -1
SWIDTH 638 0
DWIDTH 7 0
BBX 10 9 -1 0
BITMAP
002EFF4000
002FD95592
0007600000
007CE09E00
07F3A3CC00
0EC0B4F900
1F80D4F600
1F7395F400
08DA12E900
ENDCHAR
STARTCHAR uni04310458.liga
ENCODING -1
SWIDTH 638 0
DWIDTH 7 0
BBX 9 12 -1 -3
BITMAP
0000017000
003EFF8E30
000ADA3C20
007C709F00
07F3A1CC00
0EC0B4F900
1F80E5F600
1F73B6F300
08DA29F000
00018DC000
00072E8000
0004CC1000
ENDCHAR
STARTCHAR uni04320436.liga
ENCODING -1
SWIDTH 1275 0
DWIDTH 14 0
BBX 16 9 -1 0
BITMAP
001BC20000000000
008B460000000000
01E5560000000000
06F1838DA0D93CC1
0BD09614F3F6D8A2
0EA7E304FCFCF310
2F80B306C8E5F000
1F81C55B7AC5F110
08EA34BA0D91BC70
ENDCHAR
STARTCHAR uni04320437.liga
ENCODING -1
SWIDTH 752 0
DWIDTH 8 0
BBX 10 12 -1 -3
BITMAP
001BC20000
008B460000
01E5560000
06F1837DB0
0BD0A627F3
0EA7D407F3
2F80B40DB0
1F81D2DD10
08EB403F50
0000048F70
0000094F40
000007D900
ENDCHAR
STARTCHAR uni04320445.liga
ENCODING -1
SWIDTH 842 0
DWIDTH 9 0
BBX 11 9 -1 0
BITMAP
001BC2000000
008B46000000
01E556000000
06F183AE2B20
0BD0A89F6A20
0EA7D40FC700
2F80B41EB000
1F81D19CD000
08EB4934E700
ENDCHAR
STARTCHAR uni04330437.liga
ENCODING -1
SWIDTH 768 0
DWIDTH 8 0
BBX 10 9 -1 -3
BITMAP
03AE605CC1
080EB334F6
01AF6505F5
0CE5330AD1
3F8060CF30
1CE8101F80
0000038FA0
0000092F70
000005DB00
ENDCHAR
STARTCHAR uni04330445.liga
ENCODING -1
SWIDTH 725 0
DWIDTH 8 0
BBX 9 6 -1 0
BITMAP
03AE6BC290
080EB8F2B0
01AF65FC20
0CF604F600
3F8048E900
1CEA508E40
ENDCHAR
STARTCHAR uni04330447.liga
ENCODING -1
SWIDTH 834 0
DWIDTH 9 0
BBX 11 6 -1 0
BITMAP
03AE63F58F10
080EB6F2BD00
01AF6AF5FA00
0CE519EBF800
3F806003F600
1CE81001DC00
ENDCHAR
STARTCHAR uni04530437.liga
ENCODING -1
SWIDTH 768 0
DWIDTH 8 0
BBX 10 12 -1 -3
BITMAP
0001E20000
0006800000
0004100000
03AE605CC1
080EB334F6
01AF6505F5
0CE5330AD1
3F8060CF30
1CE8101F80
0000038FA0
0000092F70
000005DB00
ENDCHAR
STARTCHAR uni04530445.liga
ENCODING -1
SWIDTH 725 0
DWIDTH 8 0
BBX 9 9 -1 0
BITMAP
0000E30000
0004B00000
0009500000
03AF6BC290
080EB8F2B0
01AF65FC20
0CF604F600
3F8048E900
1CEA508E40
ENDCHAR
STARTCHAR uni04530447.liga
ENCODING -1
SWIDTH 834 0
DWIDTH 9 0
BBX 11 9 -1 0
BITMAP
0001E2000000
000680000000
000410000000
03AE63F58F10
080EB6F2BD00
01AF6AF5FA00
0CE519EBF800
3F806003F600
1CE81001DC00
ENDCHAR
STARTCHAR uni04340447.liga
ENCODING -1
SWIDTH 965 0
DWIDTH 11 0
BBX 12 9 -1 -3
BITMAP
009DBF3CC1F8
07F39F0F94F5
0DC0CC2F8AF2
1F90E95DDDF0
1F83F6500CC0
0AECF82007E4
004BF0000000
037CB0000000
02CD30000000
ENDCHAR
STARTCHAR uni04340458.liga
ENCODING -1
SWIDTH 715 0
DWIDTH 8 0
BBX 10 11 -1 -3
BITMAP
00000005E1
00000004C1
009DBF3CC0
07F39F0E90
0DC0BC2F60
1F90E95F30
1F83F68F10
0ADCF4CD00
003AE1FA00
037DC5F600
02DD9EB000
ENDCHAR
STARTCHAR uni04350437.liga
ENCODING -1
SWIDTH 804 0
DWIDTH 9 0
BBX 10 9 -1 -3
BITMAP
008DB03BE5
06F3D150DC
0DC6A500EB
1FD90505F4
1F80416F80
09E9300AE0
0000008BF1
0000046BD0
000001BD30
ENDCHAR
STARTCHAR uni04350445.liga
ENCODING -1
SWIDTH 747 0
DWIDTH 8 0
BBX 10 6 -1 0
BITMAP
008DB6F3C1
06F3D3F5A1
0DC6A1FC70
1FD900EB00
1F8007DD00
08EB935E70
ENDCHAR
STARTCHAR uni04350447.liga
ENCODING -1
SWIDTH 844 0
DWIDTH 9 0
BBX 11 6 -1 0
BITMAP
008DB2F76F30
06F3D5F49F00
0DC6A8F2DC00
1FD91DFEF900
1F808201F800
09E93000CD10
ENDCHAR
STARTCHAR uni04510437.liga
ENCODING -1
SWIDTH 804 0
DWIDTH 9 0
BBX 10 11 -1 -3
BITMAP
0087870000
0011110000
008DB03BE5
06F3D150DC
0DC6A500EB
1FD90505F4
1F80416F80
09E9300AE0
0000008BF1
0000046BD0
000001BD30
ENDCHAR
STARTCHAR uni04510445.liga
ENCODING -1
SWIDTH 747 0
DWIDTH 8 0
BBX 10 8 -1 0
BITMAP
0087870000
0011110000
008DB6F3C1
06F3D3F5A1
0DC6A1FC70
1FD900EB00
1F8007DD00
08EB935E70
ENDCHAR
STARTCHAR uni04510447.liga
ENCODING -1
SWIDTH 844 0
DWIDTH 9 0
BBX 11 8 -1 0
BITMAP
008787000000
001111000000
008DB2F76F30
06F3D5F49F00
0DC6A8F2DC00
1FD91DFEF900
1F808201F800
09E93000CD10
ENDCHAR
STARTCHAR uni04360447.liga
ENCODING -1
SWIDTH 1341 0
DWIDTH 15 0
BBX 16 6 -1 0
BITMAP
06CC19D1BD5AE0EA
050E6CA8C34DB2F7
000ECFDF702FBAF4
142F5F5F506BECF1
586B6F2F51600AE1
2CB28E08D80005E6
ENDCHAR
STARTCHAR uni04370437.liga
ENCODING -1
SWIDTH 849 0
DWIDTH 9 0
BBX 10 9 0 -3
BITMAP
06CD308DB0
450F9416F4
701F9506F4
607E440CB0
09F551DE10
00CB602F60
05DE128F80
47DB093F40
3CC207D900
ENDCHAR
STARTCHAR uni04380447.liga
ENCODING -1
SWIDTH 964 0
DWIDTH 11 0
BBX 12 6 -1 0
BITMAP
05F39E0CC1F8
08F1CB0F94F5
0BD0F83F8AF2
0EA3F56CDDE0
1F9AF6700CD1
0BD6EC2007E4
ENDCHAR
STARTCHAR uni04390447.liga
ENCODING -1
SWIDTH 964 0
DWIDTH 11 0
BBX 12 9 -1 0
BITMAP
002403100000
008C08000000
003A92000000
05F39E0CC1F8
08F1CB0F94F5
0BD0F83F8AF2
0EA3F56CDDE0
1F9AF6700CD1
0BD6EC2007E4
ENDCHAR
STARTCHAR uni043A0447.liga
ENCODING -1
SWIDTH 978 0
DWIDTH 11 0
BBX 12 6 -1 0
BITMAP
05F46D4AE0EA
08F7410DB2F7
0BFFE21F97F4
0EB5F44CECF1
2F75F48009F1
5F42DD3005E6
ENDCHAR
STARTCHAR uni045C0447.liga
ENCODING -1
SWIDTH 978 0
DWIDTH 11 0
BBX 12 9 -1 0
BITMAP
0000A6000000
0002C0000000
000220000000
05F46D4AE0EA
08F7410DB2F7
0BFFE21F97F4
0EB5F44CECF1
2F75F48009F1
5F42DD3005E6
ENDCHAR
STARTCHAR uni043B0447.liga
ENCODING -1
SWIDTH 1015 0
DWIDTH 11 0
BBX 13 6 -1 0
BITMAP
0003CF83F58F10
000A4F56F2BD00
000A6F29F4FA00
14379E09EBF800
6C74BC2304F500
2CA07E6001DA00
ENDCHAR
STARTCHAR uni043C0447.liga
ENCODING -1
SWIDTH 1231 0
DWIDTH 14 0
BBX 15 6 -1 0
BITMAP
0008F20DD0DB2F70
000BF25FA1F85F40
000DF3BF74F7BF10
142AF7BF47DDDD00
6B66FE6F5700DC10
2B93F92DC1008E40
ENDCHAR
STARTCHAR uni043D0447.liga
ENCODING -1
SWIDTH 965 0
DWIDTH 11 0
BBX 12 6 -1 0
BITMAP
05F38E0CC1F8
08F0BC0E94F5
0BEBF92F9BF2
0E92F65CDDF0
2F74F4500CC0
5F41DA2007E4
ENDCHAR
STARTCHAR uni043E0436.liga
ENCODING -1
SWIDTH 1268 0
DWIDTH 14 0
BBX 16 6 -1 0
BITMAP
008DB19D90E74DC1
06F3DB25F3F5E770
0DC0B405FCFCF100
1F90E307B9D6E000
2F84AB2C5CA6E010
09EA18B90E81CB60
ENDCHAR
STARTCHAR uni043E0437.liga
ENCODING -1
SWIDTH 765 0
DWIDTH 8 0
BBX 10 9 -1 -3
BITMAP
008DB18DC1
06F3DA25F5
0DC0C305F5
1F90D10BC0
2F8490DE20
09EA101F70
0000038F90
0000092F60
000006DA00
ENDCHAR
STARTCHAR uni043E043B.liga
ENCODING -1
SWIDTH 945 0
DWIDTH 10 0
BBX 12 6 -1 0
BITMAP
008DB0006DF5
06F3A300B6F2
0DC0B30379E0
1F90D1074CB0
2F83A77A1E90
09EC88C80AD2
ENDCHAR
STARTCHAR uni043E043C.liga
ENCODING -1
SWIDTH 1161 0
DWIDTH 13 0
BBX 14 6 -1 0
BITMAP
008DB000CD02FA
06F3A300EE08F7
0DC0B303FF0DF5
1F90D105BF5BF2
2F83B7797FA8E0
09EC88B76F65E5
ENDCHAR
STARTCHAR uni043E0445.liga
ENCODING -1
SWIDTH 835 0
DWIDTH 9 0
BBX 11 6 -1 0
BITMAP
008DB07F3C10
06F3B5AF4A10
0DC0D72FC500
2F90D14FA000
2F74A49BD000
09EA1774E700
ENDCHAR
STARTCHAR uni043F0447.liga
ENCODING -1
SWIDTH 965 0
DWIDTH 11 0
BBX 12 6 -1 0
BITMAP
05FBE60CC1F8
08F2DA0E94F5
0BC0F92F9BF2
0E93F65CDDF0
2F75F3500CC0
5F41DA2007E4
ENDCHAR
STARTCHAR uni04400437.liga
ENCODING -1
SWIDTH 818 0
DWIDTH 9 0
BBX 10 10 -1 -3
BITMAP
0283000000
05FBE729E6
08F1AE70BE
0BD0BC00BE
0EA0E903F7
2F76F45EA0
5FDE7007F1
8F10007AF3
BD000188E1
C70000AE50
ENDCHAR
STARTCHAR uni04410437.liga
ENCODING -1
SWIDTH 804 0
DWIDTH 9 0
BBX 10 9 -1 -3
BITMAP
008DC03BE5
06F38050DC
0DC00500EB
1F900505F4
1F80416F80
09E9300AE0
0000008BF1
0000046BD0
000001BD30
ENDCHAR
STARTCHAR uni04410445.liga
ENCODING -1
SWIDTH 740 0
DWIDTH 8 0
BBX 10 6 -1 0
BITMAP
009DA7F3C1
08F2C4F4A1
0EB002FB60
2F7000FA00
2F7007EC00
09EA816E60
ENDCHAR
STARTCHAR uni04410447.liga
ENCODING -1
SWIDTH 843 0
DWIDTH 9 0
BBX 11 6 -1 0
BITMAP
008DB2F76F30
06F3A5F49F00
0DC008F4EC00
1F9009EBF900
1F806102F700
09E92000CD10
ENDCHAR
STARTCHAR uni04420447.liga
ENCODING -1
SWIDTH 1211 0
DWIDTH 13 0
BBX 15 6 -1 0
BITMAP
05FBE9AE31F86F30
08F2EC2F64F49F10
0BC1F84F57F6ED00
0E94F57F27EBFA00
2F76F29E0501F800
5F49F04E8000CC10
ENDCHAR
STARTCHAR uni04430447.liga
ENCODING -1
SWIDTH 943 0
DWIDTH 10 0
BBX 12 9 -1 -3
BITMAP
05F3AE1F85F4
08F1DB3F58F1
0BD1F86F5DD0
0EA4F58EBFA0
1FABF3600FA1
0BDDF7000BD2
018EC0000000
075F80000000
04EC10000000
ENDCHAR
STARTCHAR uni04430458.liga
ENCODING -1
SWIDTH 694 0
DWIDTH 8 0
BBX 9 11 -1 -3
BITMAP
00000009C0
00000007A0
05F39E0F90
08F1CB3F60
0BD0F86F30
0EA3F59F00
1F9AF2CC00
0BDDF3F900
008ED8F600
065F96F200
04DDAE8000
ENDCHAR
STARTCHAR uni045E0447.liga
ENCODING -1
SWIDTH 943 0
DWIDTH 10 0
BBX 12 12 -1 -3
BITMAP
002403100000
008C08000000
003A92000000
05F3AE1F85F4
08F1DB3F58F1
0BD1F86F5DD0
0EA4F58EBFA0
1FABF3600FA1
0BDDF7000BD2
018EC0000000
075F80000000
04EC10000000
ENDCHAR
STARTCHAR uni045E0458.liga
ENCODING -1
SWIDTH 694 0
DWIDTH 8 0
BBX 9 11 -1 -3
BITMAP
006B0809C0
003B930690
05F39E0F90
08F1CB3F60
0BD0F86F30
0EA3F59F00
1F9AF2CC00
0BDDF2F900
006DB4F600
065F98F200
04ECAE8000
ENDCHAR
STARTCHAR uni04440437.liga
ENCODING -1
SWIDTH 1076 0
DWIDTH 12 0
BBX 13 12 -1 -3
BITMAP
00000220000000
00000F70000000
00003F40000000
008DBFAE54AE40
06F39D0CC50EC0
0DC0CA0CA00EB0
1F80E70E605F40
2F84F45F17F800
0ADBFCD500AE00
0009D00008BF10
000CA00036BD00
000C50001BD300
ENDCHAR
STARTCHAR uni04450447.liga
ENCODING -1
SWIDTH 981 0
DWIDTH 11 0
BBX 11 6 0 0
BITMAP
07E6749E0EB0
43AC94CB1F80
708F50EB8F50
40BF02CECF20
086F35009F00
560BB3005E60
ENDCHAR
STARTCHAR uni04470447.liga
ENCODING -1
SWIDTH 964 0
DWIDTH 11 0
BBX 11 6 0 0
BITMAP
5F3AE0CC1F80
8F1DB0F94F50
AE5F83F8AF20
6EBF56CDDE00
005F6700CD10
002EC2007E40
ENDCHAR
STARTCHAR uni04480447.liga
ENCODING -1
SWIDTH 1211 0
DWIDTH 13 0
BBX 15 6 -1 0
BITMAP
05F39E0EA1F85F30
08F1CB2F74F48F10
0BD0F85F47F5DC00
0EA3F57F18EBF900
1F9AF6DF4501F910
0BD6EC6E9000CD10
ENDCHAR
STARTCHAR uni045F0447.liga
ENCODING -1
SWIDTH 964 0
DWIDTH 11 0
BBX 12 9 -1 -3
BITMAP
05F39E0CC1F8
08F1CB0F94F5
0BD0F83F8AF2
0EA3F56CDDE0
1F9AF6700CD1
0BD5EC2007E4
001A00000000
004F20000000
000C00000000
ENDCHAR
STARTCHAR uni044B0447.liga
ENCODING -1
SWIDTH 1112 0
DWIDTH 12 0
BBX 13 6 0 0
BITMAP
5F200993F67F20
8E01BF66F3AE00
BB8C5F38F2EB00
E90E7F0AEBF800
F76B9E4502F800
9FC26EA001DD10
ENDCHAR
STARTCHAR uni04550437.liga
ENCODING -1
SWIDTH 768 0
DWIDTH 8 0
BBX 10 10 -1 -3
BITMAP
0003100000
009F407DC1
00BF5434F6
056F6605F5
1B2F840AD1
484FB0CF30
1ADB201F80
0000028FA0
0000092F70
000005DB00
ENDCHAR
STARTCHAR uni04550445.liga
ENCODING -1
SWIDTH 712 0
DWIDTH 8 0
BBX 9 6 -1 0
BITMAP
006C3BC480
00CF59E1A0
048F57FA30
0A3F64F600
493FB8F800
1ADA20AE30
ENDCHAR
STARTCHAR uni04550447.liga
ENCODING -1
SWIDTH 864 0
DWIDTH 10 0
BBX 11 7 -1 0
BITMAP
001410000000
00AF40EA3F60
00CF52F76F30
066F66F7CF10
1B3F78DCED00
463FC100DB10
1AD910009E30
ENDCHAR
STARTCHAR uni04540437.liga
ENCODING -1
SWIDTH 804 0
DWIDTH 9 0
BBX 10 9 -1 -3
BITMAP
008DC03BE5
06E26050DC
0DEB0500EB
1F800505F4
1F80416F80
09E9300AE0
0000008BF1
0000046BD0
000001BD30
ENDCHAR
STARTCHAR uni04540445.liga
ENCODING -1
SWIDTH 740 0
DWIDTH 8 0
BBX 10 6 -1 0
BITMAP
009CB7F3C1
08E184F5A0
0EDB02FD30
2F7000F900
2F8019DC00
09EA815E60
ENDCHAR
STARTCHAR uni04540447.liga
ENCODING -1
SWIDTH 844 0
DWIDTH 9 0
BBX 11 6 -1 0
BITMAP
008DC2F76F30
06E285F49F00
0DEB09F5EC00
1F8009EBF900
1F806002F800
09E82000CD10
ENDCHAR
STARTCHAR uni044D0437.liga
ENCODING -1
SWIDTH 765 0
DWIDTH 8 0
BBX 10 9 -1 -3
BITMAP
03AEB18DC1
0405FB25F5
009DF305F5
0208D00BC0
581E60CE20
2CB8001F80
0000038FA0
0000092F70
000006DA00
ENDCHAR
STARTCHAR uni04560447.liga
ENCODING -1
SWIDTH 717 0
DWIDTH 8 0
BBX 9 9 -1 0
BITMAP
00A7000000
00C8000000
0000000000
05F38F1CC0
08F1AD0F90
0BD0DC7F60
0EA2CECF30
1F97008F30
0BE4004E80
ENDCHAR
STARTCHAR uni04570447.liga
ENCODING -1
SWIDTH 718 0
DWIDTH 8 0
BBX 9 8 -1 0
BITMAP
0A5A500000
0101000000
05F38F1CC0
08F1AD0F90
0BD0DC7F60
0EA2CECF30
1F97007F30
0BE4003E80
ENDCHAR
STARTCHAR uni04570457.liga
ENCODING -1
SWIDTH 476 0
DWIDTH 5 0
BBX 8 8 -1 0
BITMAP
0A6D79B4
01010110
05F36F30
08F19E00
0BD0CC00
0EA0F900
1F97F800
0BD6CD10
ENDCHAR
STARTCHAR uni04580447.liga
ENCODING -1
SWIDTH 697 0
DWIDTH 8 0
BBX 11 11 -3 -3
BITMAP
0000D7000000
0000B5000000
0005F4BD1F90
0008F1EA3F60
000BD2F99F30
000EA5CDDF00
002F7700BE20
005FA2006E50
06CF10000000
28BC00000000
1BD400000000
ENDCHAR
STARTCHAR uni04580458.liga
ENCODING -1
SWIDTH 449 0
DWIDTH 5 0
BBX 9 11 -3 -3
BITMAP
0000D74E20
0000B53C10
0005F4BD00
0008F1EA00
000BD2F700
000E95F400
001F68F200
004F8CE000
04AF2EB000
28CD4F7000
1DD8EB1000
ENDCHAR
STARTCHAR uni045B0447.liga
ENCODING -1
SWIDTH 937 0
DWIDTH 10 0
BBX 12 12 -1 -3
BITMAP
005600000000
00F900000000
0AFD90000000
06F3001F76F3
08FAC44F49F0
0BE1F87F4DC0
0EA2F58EBF90
2F75F3501FA1
5F48F7000CD1
007EB0000000
065E70000000
04DC10000000
ENDCHAR
STARTCHAR uni045B0458.liga
ENCODING -1
SWIDTH 691 0
DWIDTH 8 0
BBX 9 11 -1 -3
BITMAP
00B80009B0
09FD900010
06F3001F80
08FAC43F50
0BE1F86F20
0EA2F69E00
2F75F2CC00
5F48E2F900
005DB4F600
065F99F200
04ECAE7000
ENDCHAR
STARTCHAR uni044E0436.liga
ENCODING -1
SWIDTH 1503 0
DWIDTH 17 0
BBX 18 6 -1 0
BITMAP
05F33CC73BE46F19D8
08F1DC4E90B99D5E26
0BECF63D00BDEDEA00
0E98F35920D5F7D800
2F67F2A6B3E3F4C801
5F42CC71CB45F25EA2
ENDCHAR
STARTCHAR uni044E0437.liga
ENCODING -1
SWIDTH 1001 0
DWIDTH 11 0
BBX 12 9 -1 -3
BITMAP
05F33CC73AE7
08F1DC4E70BE
0BECF62C00BE
0E98F35902F7
2F67F2A35EA0
5F42CC6007F1
000000006AF3
0000000188E1
00000000AE50
ENDCHAR
STARTCHAR uni044E043B.liga
ENCODING -1
SWIDTH 1181 0
DWIDTH 13 0
BBX 14 6 -1 0
BITMAP
05F33CD6000AED
08F1DC1C0056CB
0BECF62C0092F8
0E98F34A20B3F5
2F67F295E495F3
5F42CCC6BC32E9
ENDCHAR
STARTCHAR uni044E043C.liga
ENCODING -1
SWIDTH 1396 0
DWIDTH 15 0
BBX 17 6 -1 0
BITMAP
05F33CD6003F707F40
08F1DC1C006F80DF10
0BECF62C008E95ED00
0E98F34A208D98DB00
2F67F295E38DD6F800
5F42CCC6BA2CE1AC10
ENDCHAR
STARTCHAR uni044E0445.liga
ENCODING -1
SWIDTH 1072 0
DWIDTH 12 0
BBX 13 6 -1 0
BITMAP
05F33CC70DB590
08F1DC3D9BE480
0BECF63D17F900
0E98F35A2CF400
2F67F2A4B3F800
5F42CC70C29E30
ENDCHAR
STARTCHAR uni044F0447.liga
ENCODING -1
SWIDTH 984 0
DWIDTH 11 0
BBX 12 6 -1 0
BITMAP
006CCF39F0DB
02F47F0BC1F8
03F3AC0EA5F6
01ADEA2EEEF3
5B75F76108F0
3CA0CC5005E6
ENDCHAR
STARTCHAR brevecombcy
ENCODING -1
SWIDTH 0 0
DWIDTH 0 0
BBX 5 3 -4 6
BITMAP
010010
2F2640
0AB600
ENDCHAR
STARTCHAR brevecombcy.case
ENCODING -1
SWIDTH 0 0
DWIDTH 0 0
BBX 4 3 -3 9
BITMAP
0101
8B19
4BA2
ENDCHAR
ENDFONT
